{"glyphs":{"0":{"ha":1235,"x_min":0,"x_max":0,"o":"m 617 -14 b 1153 486 913 -14 1153 146 b 617 986 1153 826 911 986 b 82 486 322 986 82 826 b 617 -14 82 146 319 -14 z m 607 151 b 275 486 465 151 275 219 b 607 821 275 753 465 821 l 626 821 b 960 486 771 821 960 753 b 626 151 960 219 771 151 z "},"1":{"ha":738,"x_min":0,"x_max":0,"o":"m 53 728 l 53 522 l 406 749 l 406 0 l 593 0 l 593 972 l 435 972 z "},"2":{"ha":1088,"x_min":0,"x_max":0,"o":"m 671 346 b 993 697 871 443 993 539 b 563 986 993 878 814 986 b 96 668 293 986 103 858 l 293 668 b 553 821 299 753 393 821 l 572 821 b 800 696 713 821 800 769 b 574 489 800 613 733 568 l 88 250 l 88 0 l 999 0 l 999 172 l 314 172 z "},"3":{"ha":1122,"x_min":0,"x_max":0,"o":"m 564 -14 b 1032 271 844 -14 1032 93 b 825 492 1032 390 929 465 b 1025 721 918 524 1025 590 b 564 986 1025 879 853 986 b 92 701 285 986 97 863 l 289 701 b 551 821 303 771 403 821 l 571 821 b 832 699 740 821 832 772 b 581 569 832 621 747 569 l 404 569 l 404 404 l 581 404 b 839 281 743 404 839 354 b 571 151 839 197 731 151 l 551 151 b 271 268 411 151 290 190 l 74 268 b 564 -14 83 96 282 -14 z "},"4":{"ha":1172,"x_min":0,"x_max":0,"o":"m 917 972 l 697 972 l 47 383 l 47 196 l 729 196 l 729 0 l 917 0 l 917 196 l 1122 196 l 1122 360 l 917 360 z m 729 785 l 729 360 l 260 360 z "},"5":{"ha":1075,"x_min":0,"x_max":0,"o":"m 567 626 b 306 563 469 626 378 606 l 354 800 l 968 800 l 968 972 l 210 972 l 88 382 l 285 382 b 524 461 335 439 438 461 l 543 461 b 801 304 697 461 801 400 b 536 151 801 214 703 151 l 517 151 b 254 271 388 151 282 192 l 57 271 b 529 -14 85 82 267 -14 b 994 308 814 -14 994 111 b 567 626 994 494 844 626 z "},"6":{"ha":1164,"x_min":0,"x_max":0,"o":"m 607 661 b 276 558 478 661 357 626 b 625 821 321 719 453 821 l 644 821 b 890 722 792 821 872 771 l 1088 722 b 635 986 1060 886 879 986 b 81 440 307 986 81 751 b 582 -14 81 124 279 -14 b 1071 328 872 -14 1071 121 b 607 661 1071 549 867 661 z m 575 151 b 286 322 419 151 286 213 b 575 496 286 446 424 496 l 594 496 b 876 321 743 496 876 444 b 594 151 876 211 743 151 z "},"7":{"ha":1051,"x_min":0,"x_max":0,"o":"m 38 800 l 718 800 b 285 40 456 650 285 390 l 285 0 l 478 0 l 478 28 b 1003 789 478 419 647 650 l 1003 972 l 38 972 z "},"8":{"ha":1097,"x_min":0,"x_max":0,"o":"m 549 -14 b 983 250 801 -14 983 90 b 783 472 983 365 882 447 b 1017 711 890 493 1017 572 b 549 986 1017 875 824 986 b 81 711 274 986 81 871 b 314 472 81 572 207 493 b 114 250 215 447 114 365 b 549 -14 114 90 296 -14 z m 539 560 b 274 693 374 560 274 613 b 539 821 274 778 374 821 l 558 821 b 824 693 724 821 824 778 b 558 560 824 613 724 560 z m 539 151 b 307 272 394 151 307 201 b 539 394 307 346 394 394 l 558 394 b 790 272 703 394 790 346 b 558 151 790 201 703 151 z "},"9":{"ha":1164,"x_min":0,"x_max":0,"o":"m 582 986 b 93 644 292 986 93 851 b 557 311 93 424 297 311 b 888 414 686 311 807 346 b 539 151 843 253 711 151 l 519 151 b 274 250 372 151 292 201 l 76 250 b 529 -14 104 86 285 -14 b 1083 532 857 -14 1083 221 b 582 986 1083 849 885 986 z m 569 476 b 288 651 421 476 288 528 b 569 821 288 761 421 821 l 589 821 b 878 650 744 821 878 760 b 589 476 878 526 740 476 z "}," ":{"ha":411,"x_min":0,"x_max":0,"o":""},"A":{"ha":1297,"x_min":0,"x_max":0,"o":"m 1300 0 l 772 972 l 525 972 l -3 0 l 215 0 l 338 228 l 953 228 l 1075 0 z m 646 806 l 861 400 l 429 400 z "},"Á":{"ha":1297,"x_min":0,"x_max":0,"o":"m 694 1236 l 583 1035 l 714 1035 l 915 1236 z m 1300 0 l 772 972 l 525 972 l -3 0 l 215 0 l 338 228 l 953 228 l 1075 0 z m 646 806 l 861 400 l 429 400 z "},"Ă":{"ha":1297,"x_min":0,"x_max":0,"o":"m 649 1036 b 939 1244 818 1036 936 1118 l 781 1244 b 649 1168 772 1193 719 1168 b 517 1244 578 1168 525 1193 l 358 1244 b 649 1036 361 1118 479 1036 z m 1300 0 l 772 972 l 525 972 l -3 0 l 215 0 l 338 228 l 953 228 l 1075 0 z m 646 806 l 861 400 l 429 400 z "},"Â":{"ha":1297,"x_min":0,"x_max":0,"o":"m 801 1035 l 960 1035 l 751 1236 l 546 1236 l 338 1035 l 496 1035 l 649 1124 z m 1300 0 l 772 972 l 525 972 l -3 0 l 215 0 l 338 228 l 953 228 l 1075 0 z m 646 806 l 861 400 l 429 400 z "},"Ä":{"ha":1297,"x_min":0,"x_max":0,"o":"m 378 1231 l 378 1061 l 567 1061 l 567 1231 z m 731 1231 l 731 1061 l 919 1061 l 919 1231 z m 1300 0 l 772 972 l 525 972 l -3 0 l 215 0 l 338 228 l 953 228 l 1075 0 z m 646 806 l 861 400 l 429 400 z "},"Ȧ":{"ha":1297,"x_min":0,"x_max":0,"o":"m 546 1249 l 546 1053 l 750 1053 l 750 1249 z m 1300 0 l 772 972 l 525 972 l -3 0 l 215 0 l 338 228 l 953 228 l 1075 0 z m 646 806 l 861 400 l 429 400 z "},"À":{"ha":1297,"x_min":0,"x_max":0,"o":"m 603 1222 l 382 1222 l 583 1021 l 714 1021 z m 1300 0 l 772 972 l 525 972 l -3 0 l 215 0 l 338 228 l 953 228 l 1075 0 z m 646 806 l 861 400 l 429 400 z "},"Ā":{"ha":1297,"x_min":0,"x_max":0,"o":"m 336 1217 l 336 1061 l 960 1061 l 960 1217 z m 1300 0 l 772 972 l 525 972 l -3 0 l 215 0 l 338 228 l 953 228 l 1075 0 z m 646 806 l 861 400 l 429 400 z "},"Ą":{"ha":1297,"x_min":0,"x_max":0,"o":"m 1258 -192 b 1171 -125 1217 -192 1171 -174 b 1300 0 1171 -69 1249 -26 l 772 972 l 525 972 l -3 0 l 215 0 l 338 228 l 953 228 l 1075 0 l 1160 0 b 1040 -167 1101 -32 1040 -86 b 1225 -306 1040 -247 1125 -306 l 1349 -306 l 1349 -192 z m 646 806 l 861 400 l 429 400 z "},"Å":{"ha":1297,"x_min":0,"x_max":0,"o":"m 650 1014 b 839 1167 757 1014 839 1079 b 650 1319 839 1246 757 1319 b 461 1167 543 1319 461 1246 b 650 1014 461 1079 543 1014 z m 650 1221 b 731 1167 697 1221 731 1196 b 650 1113 731 1138 697 1113 b 568 1167 603 1113 568 1138 b 650 1221 568 1196 603 1221 z m 1300 0 l 772 972 l 525 972 l -3 0 l 215 0 l 338 228 l 953 228 l 1075 0 z m 646 806 l 861 400 l 429 400 z "},"Ã":{"ha":1297,"x_min":0,"x_max":0,"o":"m 514 1111 b 596 1092 542 1111 567 1101 l 681 1064 b 811 1036 733 1046 776 1036 b 982 1197 928 1036 982 1111 l 982 1236 l 843 1236 b 785 1175 843 1204 826 1175 b 703 1197 763 1175 728 1189 l 621 1224 b 489 1250 586 1235 547 1250 b 315 1089 394 1250 315 1175 l 315 1050 l 454 1050 b 514 1111 454 1082 472 1111 z m 1300 0 l 772 972 l 525 972 l -3 0 l 215 0 l 338 228 l 953 228 l 1075 0 z m 646 806 l 861 400 l 429 400 z "},"Æ":{"ha":1994,"x_min":0,"x_max":0,"o":"m 1178 414 l 1783 414 l 1783 586 l 1143 586 l 1100 800 l 1842 800 l 1842 972 l 818 972 l -31 0 l 233 0 l 429 228 l 1014 228 l 1060 0 l 1963 0 l 1963 172 l 1226 172 z m 904 781 l 981 400 l 578 400 z "},"Ǽ":{"ha":1994,"x_min":0,"x_max":0,"o":"m 1182 1236 l 1071 1035 l 1201 1035 l 1403 1236 z m 1178 414 l 1783 414 l 1783 586 l 1143 586 l 1100 800 l 1842 800 l 1842 972 l 818 972 l -31 0 l 233 0 l 429 228 l 1014 228 l 1060 0 l 1963 0 l 1963 172 l 1226 172 z m 904 781 l 981 400 l 578 400 z "},"B":{"ha":1269,"x_min":0,"x_max":0,"o":"m 860 0 b 1188 267 1047 0 1188 101 b 1015 501 1188 389 1107 476 b 1160 715 1089 532 1160 606 b 835 972 1160 875 1022 972 l 131 972 l 131 0 z m 328 800 l 804 800 b 958 690 906 800 958 760 b 804 579 958 619 906 579 l 328 579 z m 328 407 l 818 407 b 986 290 926 407 986 365 b 818 172 986 207 926 172 l 328 172 z "},"C":{"ha":1325,"x_min":0,"x_max":0,"o":"m 706 -14 b 1265 319 1104 -14 1243 193 l 1043 319 b 719 158 1021 250 926 158 l 692 158 b 268 486 431 158 268 297 b 692 814 268 675 431 814 l 719 814 b 1043 653 926 814 1025 724 l 1265 653 b 706 986 1243 779 1104 986 b 68 486 307 986 68 775 b 706 -14 68 197 307 -14 z "},"Ć":{"ha":1325,"x_min":0,"x_max":0,"o":"m 771 1035 l 972 1236 l 751 1236 l 640 1035 z m 706 -14 b 1265 319 1104 -14 1243 193 l 1043 319 b 719 158 1021 250 926 158 l 692 158 b 268 486 431 158 268 297 b 692 814 268 675 431 814 l 719 814 b 1043 653 926 814 1025 724 l 1265 653 b 706 986 1243 779 1104 986 b 68 486 307 986 68 775 b 706 -14 68 197 307 -14 z "},"Č":{"ha":1325,"x_min":0,"x_max":0,"o":"m 808 1035 l 1017 1236 l 858 1236 l 706 1147 l 553 1236 l 394 1236 l 603 1035 z m 706 -14 b 1265 319 1104 -14 1243 193 l 1043 319 b 719 158 1021 250 926 158 l 692 158 b 268 486 431 158 268 297 b 692 814 268 675 431 814 l 719 814 b 1043 653 926 814 1025 724 l 1265 653 b 706 986 1243 779 1104 986 b 68 486 307 986 68 775 b 706 -14 68 197 307 -14 z "},"Ç":{"ha":1325,"x_min":0,"x_max":0,"o":"m 692 158 b 268 486 431 158 268 297 b 692 814 268 675 431 814 l 719 814 b 1043 653 926 814 1025 724 l 1265 653 b 706 986 1243 779 1104 986 b 68 486 307 986 68 775 b 649 -12 68 211 285 7 l 649 -154 l 756 -154 b 808 -194 790 -154 808 -174 b 749 -235 808 -222 783 -235 l 575 -235 l 575 -342 l 744 -342 b 918 -194 842 -342 918 -285 b 754 -62 918 -104 851 -62 l 754 -12 b 1265 319 1115 3 1244 199 l 1043 319 b 719 158 1021 250 926 158 z "},"Ĉ":{"ha":1325,"x_min":0,"x_max":0,"o":"m 553 1035 l 706 1124 l 858 1035 l 1017 1035 l 808 1236 l 603 1236 l 394 1035 z m 706 -14 b 1265 319 1104 -14 1243 193 l 1043 319 b 719 158 1021 250 926 158 l 692 158 b 268 486 431 158 268 297 b 692 814 268 675 431 814 l 719 814 b 1043 653 926 814 1025 724 l 1265 653 b 706 986 1243 779 1104 986 b 68 486 307 986 68 775 b 706 -14 68 197 307 -14 z "},"Ċ":{"ha":1325,"x_min":0,"x_max":0,"o":"m 807 1053 l 807 1249 l 603 1249 l 603 1053 z m 706 -14 b 1265 319 1104 -14 1243 193 l 1043 319 b 719 158 1021 250 926 158 l 692 158 b 268 486 431 158 268 297 b 692 814 268 675 431 814 l 719 814 b 1043 653 926 814 1025 724 l 1265 653 b 706 986 1243 779 1104 986 b 68 486 307 986 68 775 b 706 -14 68 197 307 -14 z "},"D":{"ha":1364,"x_min":0,"x_max":0,"o":"m 736 0 b 1293 486 1064 0 1293 176 b 736 972 1293 792 1064 972 l 131 972 l 131 0 z m 328 800 l 704 800 b 1093 486 953 800 1093 694 b 704 172 1093 278 953 172 l 328 172 z "},"Ð":{"ha":1414,"x_min":0,"x_max":0,"o":"m 181 972 l 181 571 l 31 571 l 31 401 l 181 401 l 181 0 l 786 0 b 1343 486 1114 0 1343 176 b 786 972 1343 792 1114 972 z m 378 172 l 378 401 l 768 401 l 768 571 l 378 571 l 378 800 l 754 800 b 1143 486 1003 800 1143 694 b 754 172 1143 278 1003 172 z "},"Ď":{"ha":1364,"x_min":0,"x_max":0,"o":"m 746 1035 l 954 1236 l 796 1236 l 643 1147 l 490 1236 l 332 1236 l 540 1035 z m 736 0 b 1293 486 1064 0 1293 176 b 736 972 1293 792 1064 972 l 131 972 l 131 0 z m 328 800 l 704 800 b 1093 486 953 800 1093 694 b 704 172 1093 278 953 172 l 328 172 z "},"Đ":{"ha":1414,"x_min":0,"x_max":0,"o":"m 181 972 l 181 571 l 31 571 l 31 401 l 181 401 l 181 0 l 786 0 b 1343 486 1114 0 1343 176 b 786 972 1343 792 1114 972 z m 378 172 l 378 401 l 768 401 l 768 571 l 378 571 l 378 800 l 754 800 b 1143 486 1003 800 1143 694 b 754 172 1143 278 1003 172 z "},"E":{"ha":1231,"x_min":0,"x_max":0,"o":"m 328 414 l 1063 414 l 1063 586 l 328 586 l 328 800 l 1146 800 l 1146 972 l 131 972 l 131 0 l 1160 0 l 1160 172 l 328 172 z "},"É":{"ha":1231,"x_min":0,"x_max":0,"o":"m 685 1236 l 574 1035 l 704 1035 l 906 1236 z m 328 414 l 1063 414 l 1063 586 l 328 586 l 328 800 l 1146 800 l 1146 972 l 131 972 l 131 0 l 1160 0 l 1160 172 l 328 172 z "},"Ĕ":{"ha":1231,"x_min":0,"x_max":0,"o":"m 639 1036 b 929 1244 808 1036 926 1118 l 771 1244 b 639 1168 763 1193 710 1168 b 507 1244 568 1168 515 1193 l 349 1244 b 639 1036 351 1118 469 1036 z m 328 414 l 1063 414 l 1063 586 l 328 586 l 328 800 l 1146 800 l 1146 972 l 131 972 l 131 0 l 1160 0 l 1160 172 l 328 172 z "},"Ě":{"ha":1231,"x_min":0,"x_max":0,"o":"m 950 1236 l 792 1236 l 639 1147 l 486 1236 l 328 1236 l 536 1035 l 742 1035 z m 328 414 l 1063 414 l 1063 586 l 328 586 l 328 800 l 1146 800 l 1146 972 l 131 972 l 131 0 l 1160 0 l 1160 172 l 328 172 z "},"Ê":{"ha":1231,"x_min":0,"x_max":0,"o":"m 792 1035 l 950 1035 l 742 1236 l 536 1236 l 328 1035 l 486 1035 l 639 1124 z m 328 414 l 1063 414 l 1063 586 l 328 586 l 328 800 l 1146 800 l 1146 972 l 131 972 l 131 0 l 1160 0 l 1160 172 l 328 172 z "},"Ë":{"ha":1231,"x_min":0,"x_max":0,"o":"m 368 1231 l 368 1061 l 557 1061 l 557 1231 z m 721 1231 l 721 1061 l 910 1061 l 910 1231 z m 328 414 l 1063 414 l 1063 586 l 328 586 l 328 800 l 1146 800 l 1146 972 l 131 972 l 131 0 l 1160 0 l 1160 172 l 328 172 z "},"Ė":{"ha":1231,"x_min":0,"x_max":0,"o":"m 536 1249 l 536 1053 l 740 1053 l 740 1249 z m 328 414 l 1063 414 l 1063 586 l 328 586 l 328 800 l 1146 800 l 1146 972 l 131 972 l 131 0 l 1160 0 l 1160 172 l 328 172 z "},"È":{"ha":1231,"x_min":0,"x_max":0,"o":"m 593 1222 l 372 1222 l 574 1021 l 704 1021 z m 328 414 l 1063 414 l 1063 586 l 328 586 l 328 800 l 1146 800 l 1146 972 l 131 972 l 131 0 l 1160 0 l 1160 172 l 328 172 z "},"Ē":{"ha":1231,"x_min":0,"x_max":0,"o":"m 326 1217 l 326 1061 l 950 1061 l 950 1217 z m 328 414 l 1063 414 l 1063 586 l 328 586 l 328 800 l 1146 800 l 1146 972 l 131 972 l 131 0 l 1160 0 l 1160 172 l 328 172 z "},"Ę":{"ha":1231,"x_min":0,"x_max":0,"o":"m 1118 -192 b 1031 -125 1076 -192 1031 -174 b 1160 0 1031 -69 1108 -26 l 1160 172 l 328 172 l 328 414 l 1063 414 l 1063 586 l 328 586 l 328 800 l 1146 800 l 1146 972 l 131 972 l 131 0 l 1019 0 b 900 -167 961 -32 900 -86 b 1085 -306 900 -247 985 -306 l 1208 -306 l 1208 -192 z "},"F":{"ha":1156,"x_min":0,"x_max":0,"o":"m 328 0 l 328 386 l 1028 386 l 1028 558 l 328 558 l 328 800 l 1118 800 l 1118 972 l 131 972 l 131 0 z "},"G":{"ha":1413,"x_min":0,"x_max":0,"o":"m 713 -14 b 1126 126 960 -14 1078 68 l 1126 0 l 1324 0 l 1324 388 b 1192 519 1324 457 1285 519 l 699 519 l 699 347 l 1126 347 l 1126 343 b 726 158 1126 250 990 158 l 699 158 b 268 486 436 158 268 276 b 704 814 268 696 449 814 l 732 814 b 1079 639 971 814 1065 707 l 1301 639 b 719 986 1274 832 1078 986 b 68 486 308 986 68 778 b 713 -14 68 194 292 -14 z "},"Ğ":{"ha":1413,"x_min":0,"x_max":0,"o":"m 721 1036 b 1011 1244 890 1036 1008 1118 l 853 1244 b 721 1168 844 1193 792 1168 b 589 1244 650 1168 597 1193 l 431 1244 b 721 1036 433 1118 551 1036 z m 713 -14 b 1126 126 960 -14 1078 68 l 1126 0 l 1324 0 l 1324 388 b 1192 519 1324 457 1285 519 l 699 519 l 699 347 l 1126 347 l 1126 343 b 726 158 1126 250 990 158 l 699 158 b 268 486 436 158 268 276 b 704 814 268 696 449 814 l 732 814 b 1079 639 971 814 1065 707 l 1301 639 b 719 986 1274 832 1078 986 b 68 486 308 986 68 778 b 713 -14 68 194 292 -14 z "},"Ĝ":{"ha":1413,"x_min":0,"x_max":0,"o":"m 568 1035 l 721 1124 l 874 1035 l 1032 1035 l 824 1236 l 618 1236 l 410 1035 z m 713 -14 b 1126 126 960 -14 1078 68 l 1126 0 l 1324 0 l 1324 388 b 1192 519 1324 457 1285 519 l 699 519 l 699 347 l 1126 347 l 1126 343 b 726 158 1126 250 990 158 l 699 158 b 268 486 436 158 268 276 b 704 814 268 696 449 814 l 732 814 b 1079 639 971 814 1065 707 l 1301 639 b 719 986 1274 832 1078 986 b 68 486 308 986 68 778 b 713 -14 68 194 292 -14 z "},"Ģ":{"ha":1413,"x_min":0,"x_max":0,"o":"m 713 -14 b 1126 126 960 -14 1078 68 l 1126 0 l 1324 0 l 1324 388 b 1192 519 1324 457 1285 519 l 699 519 l 699 347 l 1126 347 l 1126 343 b 726 158 1126 250 990 158 l 699 158 b 268 486 436 158 268 276 b 704 814 268 696 449 814 l 732 814 b 1079 639 971 814 1065 707 l 1301 639 b 719 986 1274 832 1078 986 b 68 486 308 986 68 778 b 713 -14 68 194 292 -14 z m 635 -429 b 813 -269 739 -429 813 -362 l 813 -86 l 613 -86 l 613 -269 l 699 -269 l 699 -271 b 626 -325 699 -303 678 -325 l 564 -325 l 564 -429 z "},"Ġ":{"ha":1413,"x_min":0,"x_max":0,"o":"m 822 1053 l 822 1249 l 618 1249 l 618 1053 z m 713 -14 b 1126 126 960 -14 1078 68 l 1126 0 l 1324 0 l 1324 388 b 1192 519 1324 457 1285 519 l 699 519 l 699 347 l 1126 347 l 1126 343 b 726 158 1126 250 990 158 l 699 158 b 268 486 436 158 268 276 b 704 814 268 696 449 814 l 732 814 b 1079 639 971 814 1065 707 l 1301 639 b 719 986 1274 832 1078 986 b 68 486 308 986 68 778 b 713 -14 68 194 292 -14 z "},"H":{"ha":1372,"x_min":0,"x_max":0,"o":"m 328 0 l 328 404 l 1044 404 l 1044 0 l 1242 0 l 1242 972 l 1044 972 l 1044 576 l 328 576 l 328 972 l 131 972 l 131 0 z "},"Ħ":{"ha":1513,"x_min":0,"x_max":0,"o":"m 1313 844 l 1313 972 l 1115 972 l 1115 844 l 399 844 l 399 972 l 201 972 l 201 844 l 43 844 l 43 682 l 201 682 l 201 0 l 399 0 l 399 404 l 1115 404 l 1115 0 l 1313 0 l 1313 682 l 1469 682 l 1469 844 z m 399 576 l 399 682 l 1115 682 l 1115 576 z "},"Ĥ":{"ha":1372,"x_min":0,"x_max":0,"o":"m 533 1035 l 686 1124 l 839 1035 l 997 1035 l 789 1236 l 583 1236 l 375 1035 z m 328 0 l 328 404 l 1044 404 l 1044 0 l 1242 0 l 1242 972 l 1044 972 l 1044 576 l 328 576 l 328 972 l 131 972 l 131 0 z "},"I":{"ha":458,"x_min":0,"x_max":0,"o":"m 328 0 l 328 972 l 131 972 l 131 0 z "},"Ĳ":{"ha":1175,"x_min":0,"x_max":0,"o":"m 772 0 b 1050 278 964 0 1050 86 l 1050 972 l 853 972 l 853 290 b 742 179 853 214 818 179 l 125 179 l 125 0 z m 322 288 l 322 972 l 125 972 l 125 288 z "},"Í":{"ha":458,"x_min":0,"x_max":0,"o":"m 294 1035 l 496 1236 l 275 1236 l 164 1035 z m 328 0 l 328 972 l 131 972 l 131 0 z "},"Ĭ":{"ha":458,"x_min":0,"x_max":0,"o":"m 229 1036 b 519 1244 399 1036 517 1118 l 361 1244 b 229 1168 353 1193 300 1168 b 97 1244 158 1168 106 1193 l -61 1244 b 229 1036 -58 1118 60 1036 z m 328 0 l 328 972 l 131 972 l 131 0 z "},"Î":{"ha":458,"x_min":0,"x_max":0,"o":"m 76 1035 l 229 1124 l 382 1035 l 540 1035 l 332 1236 l 126 1236 l -82 1035 z m 328 0 l 328 972 l 131 972 l 131 0 z "},"Ï":{"ha":458,"x_min":0,"x_max":0,"o":"m 147 1061 l 147 1231 l -42 1231 l -42 1061 z m 500 1061 l 500 1231 l 311 1231 l 311 1061 z m 328 0 l 328 972 l 131 972 l 131 0 z "},"İ":{"ha":458,"x_min":0,"x_max":0,"o":"m 331 1053 l 331 1249 l 126 1249 l 126 1053 z m 328 0 l 328 972 l 131 972 l 131 0 z "},"Ì":{"ha":458,"x_min":0,"x_max":0,"o":"m 294 1021 l 183 1222 l -37 1222 l 164 1021 z m 328 0 l 328 972 l 131 972 l 131 0 z "},"Ī":{"ha":458,"x_min":0,"x_max":0,"o":"m 540 1061 l 540 1217 l -83 1217 l -83 1061 z m 328 0 l 328 972 l 131 972 l 131 0 z "},"Į":{"ha":458,"x_min":0,"x_max":0,"o":"m 286 -192 b 199 -125 244 -192 199 -174 b 328 0 199 -69 276 -26 l 328 972 l 131 972 l 131 0 l 188 0 b 68 -167 129 -32 68 -86 b 253 -306 68 -247 153 -306 l 376 -306 l 376 -192 z "},"Ĩ":{"ha":458,"x_min":0,"x_max":0,"o":"m 392 1036 b 563 1197 508 1036 563 1111 l 563 1236 l 424 1236 b 365 1175 424 1204 407 1175 b 283 1197 343 1175 308 1189 l 201 1224 b 69 1250 167 1235 128 1250 b -104 1089 -25 1250 -104 1175 l -104 1050 l 35 1050 b 94 1111 35 1082 53 1111 b 176 1092 122 1111 147 1101 l 261 1064 b 392 1036 314 1046 357 1036 z m 328 0 l 328 972 l 131 972 l 131 0 z "},"J":{"ha":783,"x_min":0,"x_max":0,"o":"m 381 0 b 658 278 572 0 658 86 l 658 972 l 461 972 l 461 290 b 350 179 461 214 426 179 l 44 179 l 44 0 z "},"Ĵ":{"ha":783,"x_min":0,"x_max":0,"o":"m 407 1035 l 560 1124 l 713 1035 l 871 1035 l 663 1236 l 457 1236 l 249 1035 z m 381 0 b 658 278 572 0 658 86 l 658 972 l 461 972 l 461 290 b 350 179 461 214 426 179 l 44 179 l 44 0 z "},"K":{"ha":1257,"x_min":0,"x_max":0,"o":"m 1275 0 l 661 558 l 1240 972 l 929 972 l 328 542 l 328 972 l 131 972 l 131 0 l 328 0 l 328 322 l 500 444 l 985 0 z "},"Ķ":{"ha":1257,"x_min":0,"x_max":0,"o":"m 1240 972 l 929 972 l 328 542 l 328 972 l 131 972 l 131 0 l 328 0 l 328 322 l 500 444 l 985 0 l 1275 0 l 661 558 z m 643 -269 l 643 -271 b 571 -325 643 -303 622 -325 l 508 -325 l 508 -429 l 579 -429 b 757 -269 683 -429 757 -362 l 757 -86 l 557 -86 l 557 -269 z "},"L":{"ha":1136,"x_min":0,"x_max":0,"o":"m 1106 0 l 1106 172 l 328 172 l 328 972 l 131 972 l 131 0 z "},"Ĺ":{"ha":1136,"x_min":0,"x_max":0,"o":"m 294 1035 l 496 1236 l 275 1236 l 164 1035 z m 1106 0 l 1106 172 l 328 172 l 328 972 l 131 972 l 131 0 z "},"Ľ":{"ha":1138,"x_min":0,"x_max":0,"o":"m 1106 0 l 1106 172 l 328 172 l 328 972 l 131 972 l 131 0 z m 622 629 b 800 789 726 629 800 696 l 800 972 l 600 972 l 600 789 l 686 789 l 686 788 b 614 733 686 756 665 733 l 551 733 l 551 629 z "},"Ļ":{"ha":1136,"x_min":0,"x_max":0,"o":"m 1106 0 l 1106 172 l 328 172 l 328 972 l 131 972 l 131 0 z m 540 -429 b 718 -269 644 -429 718 -362 l 718 -86 l 518 -86 l 518 -269 l 604 -269 l 604 -271 b 532 -325 604 -303 583 -325 l 469 -325 l 469 -429 z "},"Ŀ":{"ha":1138,"x_min":0,"x_max":0,"o":"m 1106 0 l 1106 172 l 328 172 l 328 972 l 131 972 l 131 0 z m 879 410 l 879 614 l 657 614 l 657 410 z "},"Ł":{"ha":1253,"x_min":0,"x_max":0,"o":"m 444 400 l 892 569 l 892 753 l 444 585 l 444 972 l 247 972 l 247 510 l 65 442 l 65 257 l 247 326 l 247 0 l 1222 0 l 1222 172 l 444 172 z "},"M":{"ha":1632,"x_min":0,"x_max":0,"o":"m 817 197 l 443 972 l 131 972 l 131 0 l 328 0 l 328 767 l 699 0 l 931 0 l 1304 778 l 1304 0 l 1501 0 l 1501 972 l 1189 972 z "},"N":{"ha":1343,"x_min":0,"x_max":0,"o":"m 1015 231 l 378 972 l 131 972 l 131 0 l 328 0 l 328 742 l 965 0 l 1213 0 l 1213 972 l 1015 972 z "},"Ń":{"ha":1343,"x_min":0,"x_max":0,"o":"m 718 1236 l 607 1035 l 738 1035 l 939 1236 z m 1015 231 l 378 972 l 131 972 l 131 0 l 328 0 l 328 742 l 965 0 l 1213 0 l 1213 972 l 1015 972 z "},"Ň":{"ha":1343,"x_min":0,"x_max":0,"o":"m 983 1236 l 825 1236 l 672 1147 l 519 1236 l 361 1236 l 569 1035 l 775 1035 z m 1015 231 l 378 972 l 131 972 l 131 0 l 328 0 l 328 742 l 965 0 l 1213 0 l 1213 972 l 1015 972 z "},"Ņ":{"ha":1343,"x_min":0,"x_max":0,"o":"m 1015 231 l 378 972 l 131 972 l 131 0 l 328 0 l 328 742 l 965 0 l 1213 0 l 1213 972 l 1015 972 z m 658 -269 l 658 -271 b 586 -325 658 -303 638 -325 l 524 -325 l 524 -429 l 594 -429 b 772 -269 699 -429 772 -362 l 772 -86 l 572 -86 l 572 -269 z "},"Ŋ":{"ha":1343,"x_min":0,"x_max":0,"o":"m 1018 -278 b 1213 -56 1138 -278 1213 -196 l 1213 972 l 1015 972 l 1015 267 l 378 972 l 131 972 l 131 0 l 328 0 l 328 746 l 1015 -21 l 1015 -56 b 951 -119 1015 -94 997 -119 l 699 -119 l 699 -278 z "},"Ñ":{"ha":1343,"x_min":0,"x_max":0,"o":"m 538 1111 b 619 1092 565 1111 590 1101 l 704 1064 b 835 1036 757 1046 800 1036 b 1006 1197 951 1036 1006 1111 l 1006 1236 l 867 1236 b 808 1175 867 1204 850 1175 b 726 1197 786 1175 751 1189 l 644 1224 b 513 1250 610 1235 571 1250 b 339 1089 418 1250 339 1175 l 339 1050 l 478 1050 b 538 1111 478 1082 496 1111 z m 1015 231 l 378 972 l 131 972 l 131 0 l 328 0 l 328 742 l 965 0 l 1213 0 l 1213 972 l 1015 972 z "},"O":{"ha":1440,"x_min":0,"x_max":0,"o":"m 721 -14 b 1372 486 1085 -14 1372 164 b 721 986 1372 808 1085 986 b 68 486 356 986 68 808 b 721 -14 68 164 356 -14 z m 707 158 b 268 486 469 158 268 271 b 707 814 268 701 469 814 l 735 814 b 1172 486 972 814 1172 701 b 735 158 1172 271 972 158 z "},"Ó":{"ha":1440,"x_min":0,"x_max":0,"o":"m 786 1035 l 988 1236 l 767 1236 l 656 1035 z m 721 -14 b 1372 486 1085 -14 1372 164 b 721 986 1372 808 1085 986 b 68 486 356 986 68 808 b 721 -14 68 164 356 -14 z m 707 158 b 268 486 469 158 268 271 b 707 814 268 701 469 814 l 735 814 b 1172 486 972 814 1172 701 b 735 158 1172 271 972 158 z "},"Ŏ":{"ha":1440,"x_min":0,"x_max":0,"o":"m 721 1036 b 1011 1244 890 1036 1008 1118 l 853 1244 b 721 1168 844 1193 792 1168 b 589 1244 650 1168 597 1193 l 431 1244 b 721 1036 433 1118 551 1036 z m 721 -14 b 1372 486 1085 -14 1372 164 b 721 986 1372 808 1085 986 b 68 486 356 986 68 808 b 721 -14 68 164 356 -14 z m 707 158 b 268 486 469 158 268 271 b 707 814 268 701 469 814 l 735 814 b 1172 486 972 814 1172 701 b 735 158 1172 271 972 158 z "},"Ô":{"ha":1440,"x_min":0,"x_max":0,"o":"m 568 1035 l 721 1124 l 874 1035 l 1032 1035 l 824 1236 l 618 1236 l 410 1035 z m 721 -14 b 1372 486 1085 -14 1372 164 b 721 986 1372 808 1085 986 b 68 486 356 986 68 808 b 721 -14 68 164 356 -14 z m 707 158 b 268 486 469 158 268 271 b 707 814 268 701 469 814 l 735 814 b 1172 486 972 814 1172 701 b 735 158 1172 271 972 158 z "},"Ö":{"ha":1440,"x_min":0,"x_max":0,"o":"m 639 1061 l 639 1231 l 450 1231 l 450 1061 z m 992 1061 l 992 1231 l 803 1231 l 803 1061 z m 721 -14 b 1372 486 1085 -14 1372 164 b 721 986 1372 808 1085 986 b 68 486 356 986 68 808 b 721 -14 68 164 356 -14 z m 707 158 b 268 486 469 158 268 271 b 707 814 268 701 469 814 l 735 814 b 1172 486 972 814 1172 701 b 735 158 1172 271 972 158 z "},"Ò":{"ha":1440,"x_min":0,"x_max":0,"o":"m 786 1021 l 675 1222 l 454 1222 l 656 1021 z m 721 -14 b 1372 486 1085 -14 1372 164 b 721 986 1372 808 1085 986 b 68 486 356 986 68 808 b 721 -14 68 164 356 -14 z m 707 158 b 268 486 469 158 268 271 b 707 814 268 701 469 814 l 735 814 b 1172 486 972 814 1172 701 b 735 158 1172 271 972 158 z "},"Ő":{"ha":1440,"x_min":0,"x_max":0,"o":"m 632 1035 l 833 1236 l 613 1236 l 501 1035 z m 940 1035 l 1142 1236 l 921 1236 l 810 1035 z m 721 -14 b 1372 486 1085 -14 1372 164 b 721 986 1372 808 1085 986 b 68 486 356 986 68 808 b 721 -14 68 164 356 -14 z m 707 158 b 268 486 469 158 268 271 b 707 814 268 701 469 814 l 735 814 b 1172 486 972 814 1172 701 b 735 158 1172 271 972 158 z "},"Ō":{"ha":1440,"x_min":0,"x_max":0,"o":"m 1032 1061 l 1032 1217 l 408 1217 l 408 1061 z m 721 -14 b 1372 486 1085 -14 1372 164 b 721 986 1372 808 1085 986 b 68 486 356 986 68 808 b 721 -14 68 164 356 -14 z m 707 158 b 268 486 469 158 268 271 b 707 814 268 701 469 814 l 735 814 b 1172 486 972 814 1172 701 b 735 158 1172 271 972 158 z "},"Ø":{"ha":1458,"x_min":0,"x_max":0,"o":"m 1300 1035 l 1124 900 b 731 986 1015 957 879 986 b 78 486 365 986 78 808 b 189 186 78 365 118 264 l 51 81 l 158 -64 l 338 72 b 731 -14 446 15 582 -14 b 1382 486 1094 -14 1382 164 b 1272 786 1382 607 1342 707 l 1408 890 z m 278 486 b 717 814 278 701 479 814 l 744 814 b 963 776 824 814 899 801 l 342 303 b 278 486 301 351 278 413 z m 1182 486 b 744 158 1182 271 982 158 l 717 158 b 497 196 638 158 563 171 l 1119 669 b 1182 486 1158 621 1182 560 z "},"Ǿ":{"ha":1458,"x_min":0,"x_max":0,"o":"m 776 1236 l 665 1035 l 796 1035 l 997 1236 z m 1300 1035 l 1124 900 b 731 986 1015 957 879 986 b 78 486 365 986 78 808 b 189 186 78 365 118 264 l 51 81 l 158 -64 l 338 72 b 731 -14 446 15 582 -14 b 1382 486 1094 -14 1382 164 b 1272 786 1382 607 1342 707 l 1408 890 z m 278 486 b 717 814 278 701 479 814 l 744 814 b 963 776 824 814 899 801 l 342 303 b 278 486 301 351 278 413 z m 1182 486 b 744 158 1182 271 982 158 l 717 158 b 497 196 638 158 563 171 l 1119 669 b 1182 486 1158 621 1182 560 z "},"Õ":{"ha":1440,"x_min":0,"x_max":0,"o":"m 883 1036 b 1054 1197 1000 1036 1054 1111 l 1054 1236 l 915 1236 b 857 1175 915 1204 899 1175 b 775 1197 835 1175 800 1189 l 693 1224 b 561 1250 658 1235 619 1250 b 388 1089 467 1250 388 1175 l 388 1050 l 526 1050 b 586 1111 526 1082 544 1111 b 668 1092 614 1111 639 1101 l 753 1064 b 883 1036 806 1046 849 1036 z m 721 -14 b 1372 486 1085 -14 1372 164 b 721 986 1372 808 1085 986 b 68 486 356 986 68 808 b 721 -14 68 164 356 -14 z m 707 158 b 268 486 469 158 268 271 b 707 814 268 701 469 814 l 735 814 b 1172 486 972 814 1172 701 b 735 158 1172 271 972 158 z "},"Œ":{"ha":2272,"x_min":0,"x_max":0,"o":"m 721 -14 b 1172 122 900 -14 1060 33 l 1172 0 l 2201 0 l 2201 172 l 1369 172 l 1369 414 l 2104 414 l 2104 586 l 1369 586 l 1369 800 l 2188 800 l 2188 972 l 1172 972 l 1172 850 b 721 986 1060 939 900 986 b 68 486 356 986 68 808 b 721 -14 68 164 356 -14 z m 707 158 b 268 486 469 158 268 271 b 707 814 268 701 469 814 l 735 814 b 1172 486 972 814 1172 701 b 735 158 1172 271 972 158 z "},"P":{"ha":1200,"x_min":0,"x_max":0,"o":"m 328 0 l 328 354 l 786 354 b 1154 663 1014 354 1154 476 b 782 972 1154 846 1008 972 l 131 972 l 131 0 z m 328 800 l 760 800 b 954 663 890 800 954 749 b 760 526 954 576 890 526 l 328 526 z "},"Þ":{"ha":1218,"x_min":0,"x_max":0,"o":"m 328 0 l 328 176 l 786 176 b 1154 485 1014 176 1154 299 b 782 794 1154 668 1008 794 l 328 794 l 328 972 l 131 972 l 131 0 z m 328 622 l 760 622 b 954 485 890 622 954 571 b 760 349 954 399 890 349 l 328 349 z "},"Q":{"ha":1440,"x_min":0,"x_max":0,"o":"m 1171 -278 l 1171 -119 l 872 -119 b 817 -64 831 -119 817 -106 l 817 -10 b 1372 486 1133 19 1372 193 b 721 986 1372 808 1085 986 b 68 486 356 986 68 808 b 633 -10 68 190 311 17 l 633 -139 b 772 -278 633 -215 682 -278 z m 707 158 b 268 486 469 158 268 271 b 707 814 268 701 469 814 l 735 814 b 1172 486 972 814 1172 701 b 735 158 1172 271 972 158 z "},"R":{"ha":1257,"x_min":0,"x_max":0,"o":"m 328 0 l 328 367 l 832 367 b 936 269 907 367 936 344 l 936 0 l 1133 0 l 1133 324 b 975 467 1133 417 1089 467 b 1157 704 1078 496 1157 583 b 811 972 1157 860 1018 972 l 131 972 l 131 0 z m 328 800 l 785 800 b 957 671 893 800 957 754 b 785 539 957 592 893 539 l 328 539 z "},"Ŕ":{"ha":1257,"x_min":0,"x_max":0,"o":"m 672 1035 l 874 1236 l 653 1236 l 542 1035 z m 328 0 l 328 367 l 832 367 b 936 269 907 367 936 344 l 936 0 l 1133 0 l 1133 324 b 975 467 1133 417 1089 467 b 1157 704 1078 496 1157 583 b 811 972 1157 860 1018 972 l 131 972 l 131 0 z m 328 800 l 785 800 b 957 671 893 800 957 754 b 785 539 957 592 893 539 l 328 539 z "},"Ř":{"ha":1257,"x_min":0,"x_max":0,"o":"m 710 1035 l 918 1236 l 760 1236 l 607 1147 l 454 1236 l 296 1236 l 504 1035 z m 328 0 l 328 367 l 832 367 b 936 269 907 367 936 344 l 936 0 l 1133 0 l 1133 324 b 975 467 1133 417 1089 467 b 1157 704 1078 496 1157 583 b 811 972 1157 860 1018 972 l 131 972 l 131 0 z m 328 800 l 785 800 b 957 671 893 800 957 754 b 785 539 957 592 893 539 l 328 539 z "},"Ŗ":{"ha":1257,"x_min":0,"x_max":0,"o":"m 328 0 l 328 367 l 832 367 b 936 269 907 367 936 344 l 936 0 l 1133 0 l 1133 324 b 975 467 1133 417 1089 467 b 1157 704 1078 496 1157 583 b 811 972 1157 860 1018 972 l 131 972 l 131 0 z m 328 800 l 785 800 b 957 671 893 800 957 754 b 785 539 957 592 893 539 l 328 539 z m 554 -429 b 732 -269 658 -429 732 -362 l 732 -86 l 532 -86 l 532 -269 l 618 -269 l 618 -271 b 546 -325 618 -303 597 -325 l 483 -325 l 483 -429 z "},"S":{"ha":1190,"x_min":0,"x_max":0,"o":"m 596 -14 b 1101 289 943 -14 1101 99 b 732 572 1101 453 983 542 l 501 600 b 311 700 346 618 311 650 b 576 814 311 765 388 814 l 604 814 b 908 667 792 814 893 749 l 1129 667 b 592 986 1113 860 935 986 b 110 704 247 986 110 851 b 492 408 110 524 211 444 l 729 379 b 894 272 864 363 894 324 b 608 158 894 215 839 158 l 581 158 b 263 326 349 158 271 240 l 50 326 b 596 -14 56 117 217 -14 z "},"Ś":{"ha":1190,"x_min":0,"x_max":0,"o":"m 658 1035 l 860 1236 l 639 1236 l 528 1035 z m 596 -14 b 1101 289 943 -14 1101 99 b 732 572 1101 453 983 542 l 501 600 b 311 700 346 618 311 650 b 576 814 311 765 388 814 l 604 814 b 908 667 792 814 893 749 l 1129 667 b 592 986 1113 860 935 986 b 110 704 247 986 110 851 b 492 408 110 524 211 444 l 729 379 b 894 272 864 363 894 324 b 608 158 894 215 839 158 l 581 158 b 263 326 349 158 271 240 l 50 326 b 596 -14 56 117 217 -14 z "},"Š":{"ha":1190,"x_min":0,"x_max":0,"o":"m 696 1035 l 904 1236 l 746 1236 l 593 1147 l 440 1236 l 282 1236 l 490 1035 z m 596 -14 b 1101 289 943 -14 1101 99 b 732 572 1101 453 983 542 l 501 600 b 311 700 346 618 311 650 b 576 814 311 765 388 814 l 604 814 b 908 667 792 814 893 749 l 1129 667 b 592 986 1113 860 935 986 b 110 704 247 986 110 851 b 492 408 110 524 211 444 l 729 379 b 894 272 864 363 894 324 b 608 158 894 215 839 158 l 581 158 b 263 326 349 158 271 240 l 50 326 b 596 -14 56 117 217 -14 z "},"Ş":{"ha":1190,"x_min":0,"x_max":0,"o":"m 501 600 b 311 700 346 618 311 650 b 576 814 311 765 388 814 l 604 814 b 908 667 792 814 893 749 l 1129 667 b 592 986 1113 860 935 986 b 110 704 247 986 110 851 b 492 408 110 524 211 444 l 729 379 b 894 272 864 363 894 324 b 608 158 894 215 839 158 l 581 158 b 263 326 349 158 271 240 l 50 326 b 536 -12 56 128 200 0 l 536 -154 l 643 -154 b 696 -194 678 -154 696 -174 b 636 -235 696 -222 671 -235 l 463 -235 l 463 -342 l 632 -342 b 806 -194 729 -342 806 -285 b 642 -62 806 -104 739 -62 l 642 -14 b 1101 289 957 -4 1101 107 b 732 572 1101 453 983 542 z "},"Ŝ":{"ha":1190,"x_min":0,"x_max":0,"o":"m 440 1035 l 593 1124 l 746 1035 l 904 1035 l 696 1236 l 490 1236 l 282 1035 z m 596 -14 b 1101 289 943 -14 1101 99 b 732 572 1101 453 983 542 l 501 600 b 311 700 346 618 311 650 b 576 814 311 765 388 814 l 604 814 b 908 667 792 814 893 749 l 1129 667 b 592 986 1113 860 935 986 b 110 704 247 986 110 851 b 492 408 110 524 211 444 l 729 379 b 894 272 864 363 894 324 b 608 158 894 215 839 158 l 581 158 b 263 326 349 158 271 240 l 50 326 b 596 -14 56 117 217 -14 z "},"Ș":{"ha":1190,"x_min":0,"x_max":0,"o":"m 596 -14 b 1101 289 943 -14 1101 99 b 732 572 1101 453 983 542 l 501 600 b 311 700 346 618 311 650 b 576 814 311 765 388 814 l 604 814 b 908 667 792 814 893 749 l 1129 667 b 592 986 1113 860 935 986 b 110 704 247 986 110 851 b 492 408 110 524 211 444 l 729 379 b 894 272 864 363 894 324 b 608 158 894 215 839 158 l 581 158 b 263 326 349 158 271 240 l 50 326 b 596 -14 56 117 217 -14 z m 511 -429 b 689 -269 615 -429 689 -362 l 689 -86 l 489 -86 l 489 -269 l 575 -269 l 575 -271 b 503 -325 575 -303 554 -325 l 440 -325 l 440 -429 z "},"ẞ":{"ha":1244,"x_min":0,"x_max":0,"o":"m 979 510 b 1113 724 1053 542 1113 618 b 807 972 1113 865 979 972 l 131 972 l 131 0 l 328 0 l 328 800 l 765 800 b 913 692 865 800 913 750 b 765 579 913 621 865 579 l 461 579 l 461 407 l 818 407 b 975 290 913 407 975 360 b 818 172 975 217 913 172 l 461 172 l 461 0 l 860 0 b 1175 264 1032 0 1175 103 b 979 510 1175 399 1092 485 z "},"T":{"ha":1181,"x_min":0,"x_max":0,"o":"m 689 0 l 689 800 l 1151 800 l 1151 972 l 29 972 l 29 800 l 492 800 l 492 0 z "},"Ŧ":{"ha":1217,"x_min":0,"x_max":0,"o":"m 1169 972 l 47 972 l 47 800 l 510 800 l 510 607 l 172 607 l 172 444 l 510 444 l 510 0 l 707 0 l 707 444 l 1044 444 l 1044 607 l 707 607 l 707 800 l 1169 800 z "},"Ť":{"ha":1181,"x_min":0,"x_max":0,"o":"m 693 1035 l 901 1236 l 743 1236 l 590 1147 l 438 1236 l 279 1236 l 488 1035 z m 689 0 l 689 800 l 1151 800 l 1151 972 l 29 972 l 29 800 l 492 800 l 492 0 z "},"Ţ":{"ha":1181,"x_min":0,"x_max":0,"o":"m 689 800 l 1151 800 l 1151 972 l 29 972 l 29 800 l 492 800 l 492 0 l 538 0 l 538 -154 l 644 -154 b 697 -194 679 -154 697 -174 b 638 -235 697 -222 672 -235 l 464 -235 l 464 -342 l 633 -342 b 807 -194 731 -342 807 -285 b 643 -62 807 -104 740 -62 l 643 0 l 689 0 z "},"Ț":{"ha":1181,"x_min":0,"x_max":0,"o":"m 689 0 l 689 800 l 1151 800 l 1151 972 l 29 972 l 29 800 l 492 800 l 492 0 z m 513 -429 b 690 -269 617 -429 690 -362 l 690 -86 l 490 -86 l 490 -269 l 576 -269 l 576 -271 b 504 -325 576 -303 556 -325 l 442 -325 l 442 -429 z "},"U":{"ha":1264,"x_min":0,"x_max":0,"o":"m 632 -14 b 1149 439 967 -14 1149 164 l 1149 972 l 951 972 l 951 453 b 646 158 951 254 843 158 l 618 158 b 313 453 419 158 313 254 l 313 972 l 115 972 l 115 439 b 632 -14 115 164 286 -14 z "},"Ú":{"ha":1264,"x_min":0,"x_max":0,"o":"m 697 1035 l 899 1236 l 678 1236 l 567 1035 z m 632 -14 b 1149 439 967 -14 1149 164 l 1149 972 l 951 972 l 951 453 b 646 158 951 254 843 158 l 618 158 b 313 453 419 158 313 254 l 313 972 l 115 972 l 115 439 b 632 -14 115 164 286 -14 z "},"Ŭ":{"ha":1264,"x_min":0,"x_max":0,"o":"m 632 1036 b 922 1244 801 1036 919 1118 l 764 1244 b 632 1168 756 1193 703 1168 b 500 1244 561 1168 508 1193 l 342 1244 b 632 1036 344 1118 463 1036 z m 632 -14 b 1149 439 967 -14 1149 164 l 1149 972 l 951 972 l 951 453 b 646 158 951 254 843 158 l 618 158 b 313 453 419 158 313 254 l 313 972 l 115 972 l 115 439 b 632 -14 115 164 286 -14 z "},"Û":{"ha":1264,"x_min":0,"x_max":0,"o":"m 479 1035 l 632 1124 l 785 1035 l 943 1035 l 735 1236 l 529 1236 l 321 1035 z m 632 -14 b 1149 439 967 -14 1149 164 l 1149 972 l 951 972 l 951 453 b 646 158 951 254 843 158 l 618 158 b 313 453 419 158 313 254 l 313 972 l 115 972 l 115 439 b 632 -14 115 164 286 -14 z "},"Ü":{"ha":1264,"x_min":0,"x_max":0,"o":"m 550 1061 l 550 1231 l 361 1231 l 361 1061 z m 903 1061 l 903 1231 l 714 1231 l 714 1061 z m 632 -14 b 1149 439 967 -14 1149 164 l 1149 972 l 951 972 l 951 453 b 646 158 951 254 843 158 l 618 158 b 313 453 419 158 313 254 l 313 972 l 115 972 l 115 439 b 632 -14 115 164 286 -14 z "},"Ù":{"ha":1264,"x_min":0,"x_max":0,"o":"m 697 1021 l 586 1222 l 365 1222 l 567 1021 z m 632 -14 b 1149 439 967 -14 1149 164 l 1149 972 l 951 972 l 951 453 b 646 158 951 254 843 158 l 618 158 b 313 453 419 158 313 254 l 313 972 l 115 972 l 115 439 b 632 -14 115 164 286 -14 z "},"Ű":{"ha":1264,"x_min":0,"x_max":0,"o":"m 543 1035 l 744 1236 l 524 1236 l 413 1035 z m 851 1035 l 1053 1236 l 832 1236 l 721 1035 z m 632 -14 b 1149 439 967 -14 1149 164 l 1149 972 l 951 972 l 951 453 b 646 158 951 254 843 158 l 618 158 b 313 453 419 158 313 254 l 313 972 l 115 972 l 115 439 b 632 -14 115 164 286 -14 z "},"Ū":{"ha":1264,"x_min":0,"x_max":0,"o":"m 943 1061 l 943 1217 l 319 1217 l 319 1061 z m 632 -14 b 1149 439 967 -14 1149 164 l 1149 972 l 951 972 l 951 453 b 646 158 951 254 843 158 l 618 158 b 313 453 419 158 313 254 l 313 972 l 115 972 l 115 439 b 632 -14 115 164 286 -14 z "},"Ų":{"ha":1264,"x_min":0,"x_max":0,"o":"m 951 453 b 646 158 951 254 843 158 l 618 158 b 313 453 419 158 313 254 l 313 972 l 115 972 l 115 439 b 618 -14 115 168 282 -8 b 521 -167 567 -47 521 -96 b 706 -306 521 -247 606 -306 l 829 -306 l 829 -192 l 739 -192 b 651 -125 697 -192 651 -174 b 779 -1 651 -69 728 -28 b 1149 439 1019 44 1149 207 l 1149 972 l 951 972 z "},"Ů":{"ha":1264,"x_min":0,"x_max":0,"o":"m 633 1014 b 822 1167 740 1014 822 1079 b 633 1319 822 1246 740 1319 b 444 1167 526 1319 444 1246 b 633 1014 444 1079 526 1014 z m 633 1113 b 551 1167 586 1113 551 1138 b 633 1221 551 1196 586 1221 b 714 1167 681 1221 714 1196 b 633 1113 714 1138 681 1113 z m 632 -14 b 1149 439 967 -14 1149 164 l 1149 972 l 951 972 l 951 453 b 646 158 951 254 843 158 l 618 158 b 313 453 419 158 313 254 l 313 972 l 115 972 l 115 439 b 632 -14 115 164 286 -14 z "},"Ũ":{"ha":1264,"x_min":0,"x_max":0,"o":"m 794 1036 b 965 1197 911 1036 965 1111 l 965 1236 l 826 1236 b 768 1175 826 1204 810 1175 b 686 1197 746 1175 711 1189 l 604 1224 b 472 1250 569 1235 531 1250 b 299 1089 378 1250 299 1175 l 299 1050 l 438 1050 b 497 1111 438 1082 456 1111 b 579 1092 525 1111 550 1101 l 664 1064 b 794 1036 717 1046 760 1036 z m 632 -14 b 1149 439 967 -14 1149 164 l 1149 972 l 951 972 l 951 453 b 646 158 951 254 843 158 l 618 158 b 313 453 419 158 313 254 l 313 972 l 115 972 l 115 439 b 632 -14 115 164 286 -14 z "},"V":{"ha":1297,"x_min":0,"x_max":0,"o":"m 653 167 l 222 972 l -3 972 l 525 0 l 772 0 l 1300 972 l 1082 972 z "},"W":{"ha":1706,"x_min":0,"x_max":0,"o":"m 1240 232 l 976 972 l 733 972 l 475 239 l 229 972 l 19 972 l 353 0 l 588 0 l 853 746 l 1119 0 l 1353 0 l 1686 972 l 1481 972 z "},"Ẃ":{"ha":1706,"x_min":0,"x_max":0,"o":"m 901 1236 l 790 1035 l 921 1035 l 1122 1236 z m 1240 232 l 976 972 l 733 972 l 475 239 l 229 972 l 19 972 l 353 0 l 588 0 l 853 746 l 1119 0 l 1353 0 l 1686 972 l 1481 972 z "},"Ŵ":{"ha":1706,"x_min":0,"x_max":0,"o":"m 1008 1035 l 1167 1035 l 958 1236 l 753 1236 l 544 1035 l 703 1035 l 856 1124 z m 1240 232 l 976 972 l 733 972 l 475 239 l 229 972 l 19 972 l 353 0 l 588 0 l 853 746 l 1119 0 l 1353 0 l 1686 972 l 1481 972 z "},"Ẅ":{"ha":1706,"x_min":0,"x_max":0,"o":"m 585 1231 l 585 1061 l 774 1061 l 774 1231 z m 938 1231 l 938 1061 l 1126 1061 l 1126 1231 z m 1240 232 l 976 972 l 733 972 l 475 239 l 229 972 l 19 972 l 353 0 l 588 0 l 853 746 l 1119 0 l 1353 0 l 1686 972 l 1481 972 z "},"Ẁ":{"ha":1706,"x_min":0,"x_max":0,"o":"m 810 1222 l 589 1222 l 790 1021 l 921 1021 z m 1240 232 l 976 972 l 733 972 l 475 239 l 229 972 l 19 972 l 353 0 l 588 0 l 853 746 l 1119 0 l 1353 0 l 1686 972 l 1481 972 z "},"X":{"ha":1203,"x_min":0,"x_max":0,"o":"m 736 497 l 1185 972 l 918 972 l 601 639 l 286 972 l 18 972 l 467 496 l -3 0 l 265 0 l 600 354 l 935 0 l 1206 0 z "},"Y":{"ha":1186,"x_min":0,"x_max":0,"o":"m 594 597 l 274 972 l 11 972 l 494 421 l 494 0 l 692 0 l 692 421 l 1174 972 l 918 972 z "},"Ý":{"ha":1186,"x_min":0,"x_max":0,"o":"m 639 1236 l 528 1035 l 658 1035 l 860 1236 z m 594 597 l 274 972 l 11 972 l 494 421 l 494 0 l 692 0 l 692 421 l 1174 972 l 918 972 z "},"Ŷ":{"ha":1186,"x_min":0,"x_max":0,"o":"m 746 1035 l 904 1035 l 696 1236 l 490 1236 l 282 1035 l 440 1035 l 593 1124 z m 594 597 l 274 972 l 11 972 l 494 421 l 494 0 l 692 0 l 692 421 l 1174 972 l 918 972 z "},"Ÿ":{"ha":1186,"x_min":0,"x_max":0,"o":"m 322 1231 l 322 1061 l 511 1061 l 511 1231 z m 675 1231 l 675 1061 l 864 1061 l 864 1231 z m 594 597 l 274 972 l 11 972 l 494 421 l 494 0 l 692 0 l 692 421 l 1174 972 l 918 972 z "},"Ỳ":{"ha":1186,"x_min":0,"x_max":0,"o":"m 547 1222 l 326 1222 l 528 1021 l 658 1021 z m 594 597 l 274 972 l 11 972 l 494 421 l 494 0 l 692 0 l 692 421 l 1174 972 l 918 972 z "},"Ȳ":{"ha":1186,"x_min":0,"x_max":0,"o":"m 281 1217 l 281 1061 l 904 1061 l 904 1217 z m 594 597 l 274 972 l 11 972 l 494 421 l 494 0 l 692 0 l 692 421 l 1174 972 l 918 972 z "},"Z":{"ha":1156,"x_min":0,"x_max":0,"o":"m 1074 804 l 1074 972 l 81 972 l 81 800 l 774 800 l 67 168 l 67 0 l 1088 0 l 1088 172 l 367 172 z "},"Ź":{"ha":1156,"x_min":0,"x_max":0,"o":"m 624 1236 l 513 1035 l 643 1035 l 844 1236 z m 1074 804 l 1074 972 l 81 972 l 81 800 l 774 800 l 67 168 l 67 0 l 1088 0 l 1088 172 l 367 172 z "},"Ž":{"ha":1156,"x_min":0,"x_max":0,"o":"m 889 1236 l 731 1236 l 578 1147 l 425 1236 l 267 1236 l 475 1035 l 681 1035 z m 1074 804 l 1074 972 l 81 972 l 81 800 l 774 800 l 67 168 l 67 0 l 1088 0 l 1088 172 l 367 172 z "},"Ż":{"ha":1156,"x_min":0,"x_max":0,"o":"m 475 1249 l 475 1053 l 679 1053 l 679 1249 z m 1074 804 l 1074 972 l 81 972 l 81 800 l 774 800 l 67 168 l 67 0 l 1088 0 l 1088 172 l 367 172 z "},"a":{"ha":982,"x_min":0,"x_max":0,"o":"m 382 -14 b 701 92 554 -14 654 44 b 713 0 701 67 704 31 l 900 0 b 883 153 886 49 883 111 l 883 435 b 482 708 883 617 738 708 b 88 479 253 708 96 608 l 278 479 b 465 557 286 522 358 557 l 490 557 b 696 457 618 557 696 524 l 696 449 l 375 429 b 58 208 154 415 58 340 b 382 -14 58 76 153 -14 z m 406 138 b 249 214 288 138 249 174 b 381 283 249 250 278 276 l 696 303 l 696 279 b 431 138 696 188 589 138 z "},"á":{"ha":982,"x_min":0,"x_max":0,"o":"m 553 767 l 747 975 l 531 975 l 413 767 z m 382 -14 b 701 92 554 -14 654 44 b 713 0 701 67 704 31 l 900 0 b 883 153 886 49 883 111 l 883 435 b 482 708 883 617 738 708 b 88 479 253 708 96 608 l 278 479 b 465 557 286 522 358 557 l 490 557 b 696 457 618 557 696 524 l 696 449 l 375 429 b 58 208 154 415 58 340 b 382 -14 58 76 153 -14 z m 406 138 b 249 214 288 138 249 174 b 381 283 249 250 278 276 l 696 303 l 696 279 b 431 138 696 188 589 138 z "},"ă":{"ha":982,"x_min":0,"x_max":0,"o":"m 483 767 b 774 983 651 767 771 849 l 618 983 b 483 901 613 929 569 901 b 349 983 397 901 354 929 l 193 983 b 483 767 196 849 315 767 z m 382 -14 b 701 92 554 -14 654 44 b 713 0 701 67 704 31 l 900 0 b 883 153 886 49 883 111 l 883 435 b 482 708 883 617 738 708 b 88 479 253 708 96 608 l 278 479 b 465 557 286 522 358 557 l 490 557 b 696 457 618 557 696 524 l 696 449 l 375 429 b 58 208 154 415 58 340 b 382 -14 58 76 153 -14 z m 406 138 b 249 214 288 138 249 174 b 381 283 249 250 278 276 l 696 303 l 696 279 b 431 138 696 188 589 138 z "},"â":{"ha":982,"x_min":0,"x_max":0,"o":"m 308 767 l 485 868 l 658 767 l 817 767 l 572 975 l 393 975 l 150 767 z m 382 -14 b 701 92 554 -14 654 44 b 713 0 701 67 704 31 l 900 0 b 883 153 886 49 883 111 l 883 435 b 482 708 883 617 738 708 b 88 479 253 708 96 608 l 278 479 b 465 557 286 522 358 557 l 490 557 b 696 457 618 557 696 524 l 696 449 l 375 429 b 58 208 154 415 58 340 b 382 -14 58 76 153 -14 z m 406 138 b 249 214 288 138 249 174 b 381 283 249 250 278 276 l 696 303 l 696 279 b 431 138 696 188 589 138 z "},"ä":{"ha":982,"x_min":0,"x_max":0,"o":"m 413 782 l 413 967 l 224 967 l 224 782 z m 743 782 l 743 967 l 554 967 l 554 782 z m 382 -14 b 701 92 554 -14 654 44 b 713 0 701 67 704 31 l 900 0 b 883 153 886 49 883 111 l 883 435 b 482 708 883 617 738 708 b 88 479 253 708 96 608 l 278 479 b 465 557 286 522 358 557 l 490 557 b 696 457 618 557 696 524 l 696 449 l 375 429 b 58 208 154 415 58 340 b 382 -14 58 76 153 -14 z m 406 138 b 249 214 288 138 249 174 b 381 283 249 250 278 276 l 696 303 l 696 279 b 431 138 696 188 589 138 z "},"ȧ":{"ha":982,"x_min":0,"x_max":0,"o":"m 585 776 l 585 972 l 381 972 l 381 776 z m 382 -14 b 701 92 554 -14 654 44 b 713 0 701 67 704 31 l 900 0 b 883 153 886 49 883 111 l 883 435 b 482 708 883 617 738 708 b 88 479 253 708 96 608 l 278 479 b 465 557 286 522 358 557 l 490 557 b 696 457 618 557 696 524 l 696 449 l 375 429 b 58 208 154 415 58 340 b 382 -14 58 76 153 -14 z m 406 138 b 249 214 288 138 249 174 b 381 283 249 250 278 276 l 696 303 l 696 279 b 431 138 696 188 589 138 z "},"à":{"ha":982,"x_min":0,"x_max":0,"o":"m 553 767 l 435 975 l 218 975 l 413 767 z m 382 -14 b 701 92 554 -14 654 44 b 713 0 701 67 704 31 l 900 0 b 883 153 886 49 883 111 l 883 435 b 482 708 883 617 738 708 b 88 479 253 708 96 608 l 278 479 b 465 557 286 522 358 557 l 490 557 b 696 457 618 557 696 524 l 696 449 l 375 429 b 58 208 154 415 58 340 b 382 -14 58 76 153 -14 z m 406 138 b 249 214 288 138 249 174 b 381 283 249 250 278 276 l 696 303 l 696 279 b 431 138 696 188 589 138 z "},"ā":{"ha":982,"x_min":0,"x_max":0,"o":"m 778 785 l 778 931 l 188 931 l 188 785 z m 382 -14 b 701 92 554 -14 654 44 b 713 0 701 67 704 31 l 900 0 b 883 153 886 49 883 111 l 883 435 b 482 708 883 617 738 708 b 88 479 253 708 96 608 l 278 479 b 465 557 286 522 358 557 l 490 557 b 696 457 618 557 696 524 l 696 449 l 375 429 b 58 208 154 415 58 340 b 382 -14 58 76 153 -14 z m 406 138 b 249 214 288 138 249 174 b 381 283 249 250 278 276 l 696 303 l 696 279 b 431 138 696 188 589 138 z "},"ą":{"ha":982,"x_min":0,"x_max":0,"o":"m 858 -192 b 771 -125 817 -192 771 -174 b 900 0 771 -69 849 -26 b 883 153 886 49 883 111 l 883 435 b 482 708 883 617 738 708 b 88 479 253 708 96 608 l 278 479 b 465 557 286 522 358 557 l 490 557 b 696 457 618 557 696 524 l 696 449 l 375 429 b 58 208 154 415 58 340 b 382 -14 58 76 153 -14 b 701 92 554 -14 654 44 b 713 0 701 67 704 31 l 760 0 b 640 -167 701 -32 640 -86 b 825 -306 640 -247 725 -306 l 949 -306 l 949 -192 z m 696 279 b 431 138 696 188 589 138 l 406 138 b 249 214 288 138 249 174 b 381 283 249 250 278 276 l 696 303 z "},"å":{"ha":982,"x_min":0,"x_max":0,"o":"m 483 767 b 676 924 599 767 676 835 b 483 1081 676 1004 599 1081 b 290 924 368 1081 290 1004 b 483 767 290 835 368 767 z m 485 864 b 399 924 439 864 399 892 b 485 983 399 956 439 983 b 569 924 533 983 569 956 b 485 864 569 892 533 864 z m 382 -14 b 701 92 554 -14 654 44 b 713 0 701 67 704 31 l 900 0 b 883 153 886 49 883 111 l 883 435 b 482 708 883 617 738 708 b 88 479 253 708 96 608 l 278 479 b 465 557 286 522 358 557 l 490 557 b 696 457 618 557 696 524 l 696 449 l 375 429 b 58 208 154 415 58 340 b 382 -14 58 76 153 -14 z m 406 138 b 249 214 288 138 249 174 b 381 283 249 250 278 276 l 696 303 l 696 279 b 431 138 696 188 589 138 z "},"ã":{"ha":982,"x_min":0,"x_max":0,"o":"m 647 767 b 804 928 754 767 804 842 l 804 967 l 671 967 b 626 906 671 935 658 906 b 551 924 604 906 576 915 l 431 961 b 325 981 397 971 383 981 b 165 819 238 981 165 906 l 165 781 l 299 781 b 344 842 299 813 314 842 b 406 829 368 842 376 839 l 529 790 b 647 767 582 774 613 767 z m 382 -14 b 701 92 554 -14 654 44 b 713 0 701 67 704 31 l 900 0 b 883 153 886 49 883 111 l 883 435 b 482 708 883 617 738 708 b 88 479 253 708 96 608 l 278 479 b 465 557 286 522 358 557 l 490 557 b 696 457 618 557 696 524 l 696 449 l 375 429 b 58 208 154 415 58 340 b 382 -14 58 76 153 -14 z m 406 138 b 249 214 288 138 249 174 b 381 283 249 250 278 276 l 696 303 l 696 279 b 431 138 696 188 589 138 z "},"æ":{"ha":1650,"x_min":0,"x_max":0,"o":"m 424 -14 b 794 131 563 -14 701 19 b 1158 -14 871 36 999 -14 b 1579 219 1432 -14 1553 99 l 1379 219 b 1171 138 1357 179 1296 138 l 1146 138 b 894 286 1019 138 925 193 l 1586 286 l 1586 354 b 1158 708 1586 557 1431 708 b 815 585 1022 708 896 665 b 482 708 757 663 646 708 b 88 479 253 708 96 608 l 278 479 b 465 557 286 522 358 557 l 490 557 b 696 457 618 557 696 524 l 696 449 l 375 429 b 58 208 154 415 58 340 b 424 -14 58 76 147 -14 z m 899 428 b 1146 557 929 506 1013 557 l 1171 557 b 1390 428 1296 557 1386 507 z m 406 138 b 249 214 288 138 249 174 b 381 283 249 250 278 276 l 696 303 l 696 279 b 431 138 696 188 589 138 z "},"ǽ":{"ha":1650,"x_min":0,"x_max":0,"o":"m 888 767 l 1082 975 l 865 975 l 747 767 z m 424 -14 b 794 131 563 -14 701 19 b 1158 -14 871 36 999 -14 b 1579 219 1432 -14 1553 99 l 1379 219 b 1171 138 1357 179 1296 138 l 1146 138 b 894 286 1019 138 925 193 l 1586 286 l 1586 354 b 1158 708 1586 557 1431 708 b 815 585 1022 708 896 665 b 482 708 757 663 646 708 b 88 479 253 708 96 608 l 278 479 b 465 557 286 522 358 557 l 490 557 b 696 457 618 557 696 524 l 696 449 l 375 429 b 58 208 154 415 58 340 b 424 -14 58 76 147 -14 z m 899 428 b 1146 557 929 506 1013 557 l 1171 557 b 1390 428 1296 557 1386 507 z m 406 138 b 249 214 288 138 249 174 b 381 283 249 250 278 276 l 696 303 l 696 279 b 431 138 696 188 589 138 z "},"b":{"ha":1118,"x_min":0,"x_max":0,"o":"m 626 -14 b 1058 347 878 -14 1058 114 b 624 708 1058 560 878 708 b 293 590 451 708 344 647 l 293 972 l 106 972 l 106 0 l 293 0 l 293 106 b 626 -14 365 29 481 -14 z m 578 138 b 293 347 406 138 293 222 b 578 557 293 472 406 557 l 603 557 b 868 347 763 557 868 472 b 603 138 868 222 763 138 z "},"c":{"ha":1003,"x_min":0,"x_max":0,"o":"m 519 -14 b 949 243 800 -14 926 110 l 751 243 b 533 144 738 186 649 144 l 508 144 b 249 347 333 144 249 240 b 508 550 249 456 333 550 l 533 550 b 753 451 643 550 728 521 l 950 451 b 519 708 928 600 772 708 b 58 347 231 708 58 551 b 519 -14 58 140 221 -14 z "},"ć":{"ha":1003,"x_min":0,"x_max":0,"o":"m 590 767 l 785 975 l 568 975 l 450 767 z m 519 -14 b 949 243 800 -14 926 110 l 751 243 b 533 144 738 186 649 144 l 508 144 b 249 347 333 144 249 240 b 508 550 249 456 333 550 l 533 550 b 753 451 643 550 728 521 l 950 451 b 519 708 928 600 772 708 b 58 347 231 708 58 551 b 519 -14 58 140 221 -14 z "},"č":{"ha":1003,"x_min":0,"x_max":0,"o":"m 610 765 l 854 974 l 696 974 l 522 876 l 346 974 l 188 974 l 431 765 z m 519 -14 b 949 243 800 -14 926 110 l 751 243 b 533 144 738 186 649 144 l 508 144 b 249 347 333 144 249 240 b 508 550 249 456 333 550 l 533 550 b 753 451 643 550 728 521 l 950 451 b 519 708 928 600 772 708 b 58 347 231 708 58 551 b 519 -14 58 140 221 -14 z "},"ç":{"ha":1003,"x_min":0,"x_max":0,"o":"m 508 144 b 249 347 333 144 249 240 b 508 550 249 456 333 550 l 533 550 b 753 451 643 550 728 521 l 950 451 b 519 708 928 600 772 708 b 58 347 231 708 58 551 b 464 -12 58 154 201 6 l 464 -154 l 571 -154 b 624 -194 606 -154 624 -174 b 564 -235 624 -222 599 -235 l 390 -235 l 390 -342 l 560 -342 b 733 -194 657 -342 733 -285 b 569 -62 733 -104 667 -62 l 569 -12 b 949 243 815 1 928 118 l 751 243 b 533 144 738 186 649 144 z "},"ĉ":{"ha":1003,"x_min":0,"x_max":0,"o":"m 346 767 l 522 868 l 696 767 l 854 767 l 610 975 l 431 975 l 188 767 z m 519 -14 b 949 243 800 -14 926 110 l 751 243 b 533 144 738 186 649 144 l 508 144 b 249 347 333 144 249 240 b 508 550 249 456 333 550 l 533 550 b 753 451 643 550 728 521 l 950 451 b 519 708 928 600 772 708 b 58 347 231 708 58 551 b 519 -14 58 140 221 -14 z "},"ċ":{"ha":1003,"x_min":0,"x_max":0,"o":"m 622 776 l 622 972 l 418 972 l 418 776 z m 519 -14 b 949 243 800 -14 926 110 l 751 243 b 533 144 738 186 649 144 l 508 144 b 249 347 333 144 249 240 b 508 550 249 456 333 550 l 533 550 b 753 451 643 550 728 521 l 950 451 b 519 708 928 600 772 708 b 58 347 231 708 58 551 b 519 -14 58 140 221 -14 z "},"d":{"ha":1118,"x_min":0,"x_max":0,"o":"m 492 -14 b 825 106 638 -14 753 29 l 825 0 l 1013 0 l 1013 972 l 825 972 l 825 597 b 494 708 774 647 667 708 b 60 347 247 708 60 560 b 492 -14 60 114 240 -14 z m 515 138 b 250 347 356 138 250 222 b 515 557 250 472 356 557 l 540 557 b 825 347 713 557 825 472 b 540 138 825 222 713 138 z "},"ð":{"ha":1104,"x_min":0,"x_max":0,"o":"m 933 926 l 878 1029 l 683 929 b 310 978 583 967 475 978 l 310 822 b 374 824 335 824 356 824 b 469 818 407 824 439 822 l 404 785 l 463 683 l 639 775 b 825 578 729 735 794 669 b 528 663 744 642 626 663 b 57 335 231 663 57 515 b 543 -14 57 136 222 -14 b 1036 406 917 -14 1036 181 b 808 863 1036 607 950 764 z m 532 138 b 244 331 363 138 244 208 b 532 511 244 458 363 511 l 557 511 b 846 331 713 511 846 458 b 557 138 846 208 713 138 z "},"ď":{"ha":1319,"x_min":0,"x_max":0,"o":"m 492 -14 b 825 106 638 -14 753 29 l 825 0 l 1013 0 l 1013 972 l 825 972 l 825 597 b 494 708 774 647 667 708 b 60 347 247 708 60 560 b 492 -14 60 114 240 -14 z m 1167 629 b 1344 789 1271 629 1344 696 l 1344 972 l 1144 972 l 1144 789 l 1231 789 l 1231 788 b 1158 733 1231 756 1210 733 l 1096 733 l 1096 629 z m 515 138 b 250 347 356 138 250 222 b 515 557 250 472 356 557 l 540 557 b 825 347 713 557 825 472 b 540 138 825 222 713 138 z "},"đ":{"ha":1118,"x_min":0,"x_max":0,"o":"m 1013 901 l 1013 972 l 825 972 l 825 901 l 458 901 l 458 769 l 825 769 l 825 597 b 494 708 774 647 667 708 b 60 347 247 708 60 560 b 492 -14 60 114 240 -14 b 825 106 638 -14 753 29 l 825 0 l 1013 0 l 1013 769 l 1142 769 l 1142 901 z m 515 138 b 250 347 356 138 250 222 b 515 557 250 472 356 557 l 540 557 b 825 347 713 557 825 472 b 540 138 825 222 713 138 z "},"e":{"ha":1015,"x_min":0,"x_max":0,"o":"m 951 354 b 524 708 951 557 796 708 b 60 358 276 708 60 582 b 524 -14 60 121 247 -14 b 944 219 797 -14 918 99 l 744 219 b 536 138 722 179 661 138 l 511 138 b 260 286 385 138 290 193 l 951 286 z m 264 428 b 511 557 294 506 378 557 l 536 557 b 756 428 661 557 751 507 z "},"é":{"ha":1015,"x_min":0,"x_max":0,"o":"m 567 975 l 449 767 l 589 767 l 783 975 z m 951 354 b 524 708 951 557 796 708 b 60 358 276 708 60 582 b 524 -14 60 121 247 -14 b 944 219 797 -14 918 99 l 744 219 b 536 138 722 179 661 138 l 511 138 b 260 286 385 138 290 193 l 951 286 z m 264 428 b 511 557 294 506 378 557 l 536 557 b 756 428 661 557 751 507 z "},"ĕ":{"ha":1015,"x_min":0,"x_max":0,"o":"m 519 767 b 810 983 688 767 807 849 l 654 983 b 519 901 649 929 606 901 b 385 983 433 901 390 929 l 229 983 b 519 767 232 849 351 767 z m 951 354 b 524 708 951 557 796 708 b 60 358 276 708 60 582 b 524 -14 60 121 247 -14 b 944 219 797 -14 918 99 l 744 219 b 536 138 722 179 661 138 l 511 138 b 260 286 385 138 290 193 l 951 286 z m 264 428 b 511 557 294 506 378 557 l 536 557 b 756 428 661 557 751 507 z "},"ě":{"ha":1015,"x_min":0,"x_max":0,"o":"m 853 974 l 694 974 l 521 876 l 344 974 l 186 974 l 429 765 l 608 765 z m 951 354 b 524 708 951 557 796 708 b 60 358 276 708 60 582 b 524 -14 60 121 247 -14 b 944 219 797 -14 918 99 l 744 219 b 536 138 722 179 661 138 l 511 138 b 260 286 385 138 290 193 l 951 286 z m 264 428 b 511 557 294 506 378 557 l 536 557 b 756 428 661 557 751 507 z "},"ê":{"ha":1015,"x_min":0,"x_max":0,"o":"m 694 767 l 853 767 l 608 975 l 429 975 l 186 767 l 344 767 l 521 868 z m 951 354 b 524 708 951 557 796 708 b 60 358 276 708 60 582 b 524 -14 60 121 247 -14 b 944 219 797 -14 918 99 l 744 219 b 536 138 722 179 661 138 l 511 138 b 260 286 385 138 290 193 l 951 286 z m 264 428 b 511 557 294 506 378 557 l 536 557 b 756 428 661 557 751 507 z "},"ë":{"ha":1015,"x_min":0,"x_max":0,"o":"m 260 967 l 260 782 l 449 782 l 449 967 z m 590 967 l 590 782 l 779 782 l 779 967 z m 951 354 b 524 708 951 557 796 708 b 60 358 276 708 60 582 b 524 -14 60 121 247 -14 b 944 219 797 -14 918 99 l 744 219 b 536 138 722 179 661 138 l 511 138 b 260 286 385 138 290 193 l 951 286 z m 264 428 b 511 557 294 506 378 557 l 536 557 b 756 428 661 557 751 507 z "},"ė":{"ha":1015,"x_min":0,"x_max":0,"o":"m 417 972 l 417 776 l 621 776 l 621 972 z m 951 354 b 524 708 951 557 796 708 b 60 358 276 708 60 582 b 524 -14 60 121 247 -14 b 944 219 797 -14 918 99 l 744 219 b 536 138 722 179 661 138 l 511 138 b 260 286 385 138 290 193 l 951 286 z m 264 428 b 511 557 294 506 378 557 l 536 557 b 756 428 661 557 751 507 z "},"è":{"ha":1015,"x_min":0,"x_max":0,"o":"m 471 975 l 254 975 l 449 767 l 589 767 z m 951 354 b 524 708 951 557 796 708 b 60 358 276 708 60 582 b 524 -14 60 121 247 -14 b 944 219 797 -14 918 99 l 744 219 b 536 138 722 179 661 138 l 511 138 b 260 286 385 138 290 193 l 951 286 z m 264 428 b 511 557 294 506 378 557 l 536 557 b 756 428 661 557 751 507 z "},"ē":{"ha":1015,"x_min":0,"x_max":0,"o":"m 224 931 l 224 785 l 814 785 l 814 931 z m 951 354 b 524 708 951 557 796 708 b 60 358 276 708 60 582 b 524 -14 60 121 247 -14 b 944 219 797 -14 918 99 l 744 219 b 536 138 722 179 661 138 l 511 138 b 260 286 385 138 290 193 l 951 286 z m 264 428 b 511 557 294 506 378 557 l 536 557 b 756 428 661 557 751 507 z "},"ę":{"ha":1015,"x_min":0,"x_max":0,"o":"m 951 354 b 524 708 951 557 796 708 b 60 358 276 708 60 582 b 514 -14 60 124 243 -11 b 417 -167 463 -47 417 -96 b 601 -306 417 -247 501 -306 l 725 -306 l 725 -192 l 635 -192 b 547 -125 593 -192 547 -174 b 676 0 547 -69 625 -26 b 944 219 844 33 924 124 l 744 219 b 536 138 722 179 661 138 l 511 138 b 260 286 385 138 290 193 l 951 286 z m 264 428 b 511 557 294 506 378 557 l 536 557 b 756 428 661 557 751 507 z "},"f":{"ha":717,"x_min":0,"x_max":0,"o":"m 440 0 l 440 543 l 685 543 l 685 694 l 440 694 l 440 753 b 499 810 440 794 457 810 l 738 810 l 738 972 l 465 972 b 251 785 324 972 251 910 l 251 694 l 28 694 l 28 543 l 251 543 l 251 0 z "},"g":{"ha":1089,"x_min":0,"x_max":0,"o":"m 493 -306 b 983 42 836 -306 983 -161 l 983 694 l 796 694 l 796 592 b 475 708 756 642 658 708 b 60 354 268 708 60 594 b 475 0 60 108 268 0 b 796 119 656 0 749 61 l 796 56 b 506 -154 796 -92 689 -154 l 481 -154 b 240 -76 350 -154 269 -133 l 46 -76 b 493 -306 65 -210 199 -306 z m 501 151 b 250 354 368 151 250 214 b 501 557 250 494 375 557 l 526 557 b 796 354 676 557 796 494 b 526 151 796 214 669 151 z "},"ğ":{"ha":1089,"x_min":0,"x_max":0,"o":"m 517 767 b 807 983 685 767 804 849 l 651 983 b 517 901 646 929 603 901 b 382 983 431 901 388 929 l 226 983 b 517 767 229 849 349 767 z m 493 -306 b 983 42 836 -306 983 -161 l 983 694 l 796 694 l 796 592 b 475 708 756 642 658 708 b 60 354 268 708 60 594 b 475 0 60 108 268 0 b 796 119 656 0 749 61 l 796 56 b 506 -154 796 -92 689 -154 l 481 -154 b 240 -76 350 -154 269 -133 l 46 -76 b 493 -306 65 -210 199 -306 z m 501 151 b 250 354 368 151 250 214 b 501 557 250 494 375 557 l 526 557 b 796 354 676 557 796 494 b 526 151 796 214 669 151 z "},"ĝ":{"ha":1089,"x_min":0,"x_max":0,"o":"m 342 767 l 518 868 l 692 767 l 850 767 l 606 975 l 426 975 l 183 767 z m 493 -306 b 983 42 836 -306 983 -161 l 983 694 l 796 694 l 796 592 b 475 708 756 642 658 708 b 60 354 268 708 60 594 b 475 0 60 108 268 0 b 796 119 656 0 749 61 l 796 56 b 506 -154 796 -92 689 -154 l 481 -154 b 240 -76 350 -154 269 -133 l 46 -76 b 493 -306 65 -210 199 -306 z m 501 151 b 250 354 368 151 250 214 b 501 557 250 494 375 557 l 526 557 b 796 354 676 557 796 494 b 526 151 796 214 669 151 z "},"ģ":{"ha":1089,"x_min":0,"x_max":0,"o":"m 590 1133 b 413 974 486 1133 413 1067 l 413 790 l 613 790 l 613 974 l 526 974 l 526 975 b 599 1029 526 1007 547 1029 l 661 1029 l 661 1133 z m 493 -306 b 983 42 836 -306 983 -161 l 983 694 l 796 694 l 796 592 b 475 708 756 642 658 708 b 60 354 268 708 60 594 b 475 0 60 108 268 0 b 796 119 656 0 749 61 l 796 56 b 506 -154 796 -92 689 -154 l 481 -154 b 240 -76 350 -154 269 -133 l 46 -76 b 493 -306 65 -210 199 -306 z m 501 151 b 250 354 368 151 250 214 b 501 557 250 494 375 557 l 526 557 b 796 354 676 557 796 494 b 526 151 796 214 669 151 z "},"ġ":{"ha":1089,"x_min":0,"x_max":0,"o":"m 618 776 l 618 972 l 414 972 l 414 776 z m 493 -306 b 983 42 836 -306 983 -161 l 983 694 l 796 694 l 796 592 b 475 708 756 642 658 708 b 60 354 268 708 60 594 b 475 0 60 108 268 0 b 796 119 656 0 749 61 l 796 56 b 506 -154 796 -92 689 -154 l 481 -154 b 240 -76 350 -154 269 -133 l 46 -76 b 493 -306 65 -210 199 -306 z m 501 151 b 250 354 368 151 250 214 b 501 557 250 494 375 557 l 526 557 b 796 354 676 557 796 494 b 526 151 796 214 669 151 z "},"h":{"ha":1051,"x_min":0,"x_max":0,"o":"m 293 0 l 293 308 b 540 557 293 467 419 557 l 565 557 b 771 343 708 557 771 488 l 771 0 l 958 0 l 958 381 b 603 708 958 585 818 708 b 293 567 444 708 349 651 l 293 972 l 106 972 l 106 0 z "},"ħ":{"ha":1051,"x_min":0,"x_max":0,"o":"m 603 708 b 293 567 444 708 349 651 l 293 769 l 660 769 l 660 901 l 293 901 l 293 972 l 106 972 l 106 901 l -24 901 l -24 769 l 106 769 l 106 0 l 293 0 l 293 308 b 540 557 293 467 419 557 l 565 557 b 771 343 708 557 771 488 l 771 0 l 958 0 l 958 381 b 603 708 958 585 818 708 z "},"ĥ":{"ha":1051,"x_min":0,"x_max":0,"o":"m 353 1017 l 529 1118 l 703 1017 l 861 1017 l 617 1225 l 438 1225 l 194 1017 z m 293 0 l 293 308 b 540 557 293 467 419 557 l 565 557 b 771 343 708 557 771 488 l 771 0 l 958 0 l 958 381 b 603 708 958 585 818 708 b 293 567 444 708 349 651 l 293 972 l 106 972 l 106 0 z "},"i":{"ha":399,"x_min":0,"x_max":0,"o":"m 301 776 l 301 972 l 97 972 l 97 776 z m 293 0 l 293 694 l 106 694 l 106 0 z "},"ı":{"ha":399,"x_min":0,"x_max":0,"o":"m 293 0 l 293 694 l 106 694 l 106 0 z "},"í":{"ha":399,"x_min":0,"x_max":0,"o":"m 269 767 l 464 975 l 247 975 l 129 767 z m 293 0 l 293 694 l 106 694 l 106 0 z "},"ĭ":{"ha":399,"x_min":0,"x_max":0,"o":"m 200 767 b 490 983 368 767 488 849 l 335 983 b 200 901 329 929 286 901 b 65 983 114 901 71 929 l -90 983 b 200 767 -87 849 32 767 z m 293 0 l 293 694 l 106 694 l 106 0 z "},"î":{"ha":399,"x_min":0,"x_max":0,"o":"m 25 767 l 201 868 l 375 767 l 533 767 l 289 975 l 110 975 l -133 767 z m 293 0 l 293 694 l 106 694 l 106 0 z "},"ï":{"ha":399,"x_min":0,"x_max":0,"o":"m 129 782 l 129 967 l -60 967 l -60 782 z m 460 782 l 460 967 l 271 967 l 271 782 z m 293 0 l 293 694 l 106 694 l 106 0 z "},"ì":{"ha":399,"x_min":0,"x_max":0,"o":"m 269 767 l 151 975 l -65 975 l 129 767 z m 293 0 l 293 694 l 106 694 l 106 0 z "},"ĳ":{"ha":903,"x_min":0,"x_max":0,"o":"m 303 776 l 303 972 l 99 972 l 99 776 z m 806 776 l 806 972 l 601 972 l 601 776 z m 610 -264 b 797 -69 728 -264 797 -194 l 797 694 l 610 694 l 610 -50 b 554 -106 610 -92 594 -106 l 106 -106 l 106 -264 z m 293 0 l 293 694 l 106 694 l 106 0 z "},"ī":{"ha":399,"x_min":0,"x_max":0,"o":"m 494 785 l 494 931 l -96 931 l -96 785 z m 293 0 l 293 694 l 106 694 l 106 0 z "},"į":{"ha":399,"x_min":0,"x_max":0,"o":"m 97 972 l 97 776 l 301 776 l 301 972 z m 251 -192 b 164 -125 210 -192 164 -174 b 293 0 164 -69 242 -26 l 293 694 l 106 694 l 106 0 l 153 0 b 33 -167 94 -32 33 -86 b 218 -306 33 -247 118 -306 l 342 -306 l 342 -192 z "},"ĩ":{"ha":399,"x_min":0,"x_max":0,"o":"m 364 767 b 521 928 471 767 521 842 l 521 967 l 388 967 b 343 906 388 935 375 906 b 268 924 321 906 293 915 l 147 961 b 42 981 114 971 100 981 b -118 819 -46 981 -118 906 l -118 781 l 15 781 b 61 842 15 813 31 842 b 122 829 85 842 93 839 l 246 790 b 364 767 299 774 329 767 z m 293 0 l 293 694 l 106 694 l 106 0 z "},"j":{"ha":415,"x_min":0,"x_max":0,"o":"m 318 776 l 318 972 l 114 972 l 114 776 z m 122 -264 b 310 -69 242 -264 310 -194 l 310 694 l 122 694 l 122 -50 b 67 -106 122 -92 108 -106 l -211 -106 l -211 -264 z "},"ȷ":{"ha":415,"x_min":0,"x_max":0,"o":"m 122 -264 b 310 -69 242 -264 310 -194 l 310 694 l 122 694 l 122 -50 b 67 -106 122 -92 108 -106 l -211 -106 l -211 -264 z "},"ĵ":{"ha":415,"x_min":0,"x_max":0,"o":"m 42 767 l 218 868 l 392 767 l 550 767 l 306 975 l 126 975 l -117 767 z m 122 -264 b 310 -69 242 -264 310 -194 l 310 694 l 122 694 l 122 -50 b 67 -106 122 -92 108 -106 l -211 -106 l -211 -264 z "},"k":{"ha":999,"x_min":0,"x_max":0,"o":"m 1004 0 l 547 417 l 986 694 l 679 694 l 293 442 l 293 972 l 106 972 l 106 0 l 293 0 l 293 256 l 392 317 l 719 0 z "},"ķ":{"ha":999,"x_min":0,"x_max":0,"o":"m 986 694 l 679 694 l 293 442 l 293 972 l 106 972 l 106 0 l 293 0 l 293 256 l 392 317 l 719 0 l 1004 0 l 547 417 z m 493 -269 l 493 -271 b 421 -325 493 -303 472 -325 l 358 -325 l 358 -429 l 429 -429 b 607 -269 533 -429 607 -362 l 607 -86 l 407 -86 l 407 -269 z "},"l":{"ha":399,"x_min":0,"x_max":0,"o":"m 293 0 l 293 972 l 106 972 l 106 0 z "},"ĺ":{"ha":399,"x_min":0,"x_max":0,"o":"m 269 1044 l 464 1253 l 247 1253 l 129 1044 z m 293 0 l 293 972 l 106 972 l 106 0 z "},"ľ":{"ha":583,"x_min":0,"x_max":0,"o":"m 293 0 l 293 972 l 106 972 l 106 0 z m 428 629 b 606 789 532 629 606 696 l 606 972 l 406 972 l 406 789 l 492 789 l 492 788 b 419 733 492 756 471 733 l 357 733 l 357 629 z "},"ļ":{"ha":399,"x_min":0,"x_max":0,"o":"m 293 0 l 293 972 l 106 972 l 106 0 z m 122 -429 b 300 -269 226 -429 300 -362 l 300 -86 l 100 -86 l 100 -269 l 186 -269 l 186 -271 b 114 -325 186 -303 165 -325 l 51 -325 l 51 -429 z "},"ŀ":{"ha":618,"x_min":0,"x_max":0,"o":"m 293 0 l 293 972 l 106 972 l 106 0 z m 619 382 l 619 586 l 397 586 l 397 382 z "},"ł":{"ha":549,"x_min":0,"x_max":0,"o":"m 371 683 l 371 972 l 183 972 l 183 596 l 39 528 l 39 358 l 183 426 l 183 0 l 371 0 l 371 514 l 524 586 l 524 756 z "},"m":{"ha":1678,"x_min":0,"x_max":0,"o":"m 293 0 l 293 322 b 506 557 293 465 369 557 l 531 557 b 751 371 685 557 751 481 l 751 0 l 939 0 l 939 322 b 1168 557 939 465 1024 557 l 1193 557 b 1397 371 1342 557 1397 481 l 1397 0 l 1585 0 l 1585 378 b 1215 708 1585 564 1492 708 b 871 556 1067 708 936 664 b 564 708 813 660 700 708 b 293 586 431 708 343 663 l 293 694 l 106 694 l 106 0 z "},"n":{"ha":1051,"x_min":0,"x_max":0,"o":"m 293 0 l 293 308 b 540 557 293 467 419 557 l 565 557 b 771 343 708 557 771 488 l 771 0 l 958 0 l 958 381 b 603 708 958 585 818 708 b 293 567 444 708 349 651 l 293 694 l 106 694 l 106 0 z "},"ń":{"ha":1051,"x_min":0,"x_max":0,"o":"m 636 767 l 831 975 l 614 975 l 496 767 z m 293 0 l 293 308 b 540 557 293 467 419 557 l 565 557 b 771 343 708 557 771 488 l 771 0 l 958 0 l 958 381 b 603 708 958 585 818 708 b 293 567 444 708 349 651 l 293 694 l 106 694 l 106 0 z "},"ň":{"ha":1051,"x_min":0,"x_max":0,"o":"m 656 765 l 900 974 l 742 974 l 568 876 l 392 974 l 233 974 l 476 765 z m 293 0 l 293 308 b 540 557 293 467 419 557 l 565 557 b 771 343 708 557 771 488 l 771 0 l 958 0 l 958 381 b 603 708 958 585 818 708 b 293 567 444 708 349 651 l 293 694 l 106 694 l 106 0 z "},"ņ":{"ha":1051,"x_min":0,"x_max":0,"o":"m 293 0 l 293 308 b 540 557 293 467 419 557 l 565 557 b 771 343 708 557 771 488 l 771 0 l 958 0 l 958 381 b 603 708 958 585 818 708 b 293 567 444 708 349 651 l 293 694 l 106 694 l 106 0 z m 454 -429 b 632 -269 558 -429 632 -362 l 632 -86 l 432 -86 l 432 -269 l 518 -269 l 518 -271 b 446 -325 518 -303 497 -325 l 383 -325 l 383 -429 z "},"ŋ":{"ha":1051,"x_min":0,"x_max":0,"o":"m 782 -278 b 958 -97 904 -278 958 -222 l 958 381 b 603 708 958 585 818 708 b 293 567 444 708 349 651 l 293 694 l 106 694 l 106 0 l 293 0 l 293 308 b 540 557 293 467 419 557 l 565 557 b 771 343 708 557 771 488 l 771 -61 b 715 -117 771 -103 760 -117 l 511 -117 l 511 -278 z "},"ñ":{"ha":1051,"x_min":0,"x_max":0,"o":"m 731 767 b 888 928 838 767 888 842 l 888 967 l 754 967 b 710 906 754 935 742 906 b 635 924 688 906 660 915 l 514 961 b 408 981 481 971 467 981 b 249 819 321 981 249 906 l 249 781 l 382 781 b 428 842 382 813 397 842 b 489 829 451 842 460 839 l 613 790 b 731 767 665 774 696 767 z m 293 0 l 293 308 b 540 557 293 467 419 557 l 565 557 b 771 343 708 557 771 488 l 771 0 l 958 0 l 958 381 b 603 708 958 585 818 708 b 293 567 444 708 349 651 l 293 694 l 106 694 l 106 0 z "},"o":{"ha":1083,"x_min":0,"x_max":0,"o":"m 540 -14 b 1026 347 814 -14 1026 136 b 540 708 1026 560 814 708 b 57 347 267 708 57 560 b 540 -14 57 136 267 -14 z m 529 138 b 247 347 356 138 247 222 b 529 557 247 472 356 557 l 554 557 b 836 347 729 557 836 472 b 554 138 836 222 729 138 z "},"ó":{"ha":1083,"x_min":0,"x_max":0,"o":"m 611 767 l 806 975 l 589 975 l 471 767 z m 540 -14 b 1026 347 814 -14 1026 136 b 540 708 1026 560 814 708 b 57 347 267 708 57 560 b 540 -14 57 136 267 -14 z m 529 138 b 247 347 356 138 247 222 b 529 557 247 472 356 557 l 554 557 b 836 347 729 557 836 472 b 554 138 836 222 729 138 z "},"ŏ":{"ha":1083,"x_min":0,"x_max":0,"o":"m 542 767 b 832 983 710 767 829 849 l 676 983 b 542 901 671 929 628 901 b 407 983 456 901 413 929 l 251 983 b 542 767 254 849 374 767 z m 540 -14 b 1026 347 814 -14 1026 136 b 540 708 1026 560 814 708 b 57 347 267 708 57 560 b 540 -14 57 136 267 -14 z m 529 138 b 247 347 356 138 247 222 b 529 557 247 472 356 557 l 554 557 b 836 347 729 557 836 472 b 554 138 836 222 729 138 z "},"ô":{"ha":1083,"x_min":0,"x_max":0,"o":"m 367 767 l 543 868 l 717 767 l 875 767 l 631 975 l 451 975 l 208 767 z m 540 -14 b 1026 347 814 -14 1026 136 b 540 708 1026 560 814 708 b 57 347 267 708 57 560 b 540 -14 57 136 267 -14 z m 529 138 b 247 347 356 138 247 222 b 529 557 247 472 356 557 l 554 557 b 836 347 729 557 836 472 b 554 138 836 222 729 138 z "},"ö":{"ha":1083,"x_min":0,"x_max":0,"o":"m 471 782 l 471 967 l 282 967 l 282 782 z m 801 782 l 801 967 l 613 967 l 613 782 z m 540 -14 b 1026 347 814 -14 1026 136 b 540 708 1026 560 814 708 b 57 347 267 708 57 560 b 540 -14 57 136 267 -14 z m 529 138 b 247 347 356 138 247 222 b 529 557 247 472 356 557 l 554 557 b 836 347 729 557 836 472 b 554 138 836 222 729 138 z "},"ò":{"ha":1083,"x_min":0,"x_max":0,"o":"m 611 767 l 493 975 l 276 975 l 471 767 z m 540 -14 b 1026 347 814 -14 1026 136 b 540 708 1026 560 814 708 b 57 347 267 708 57 560 b 540 -14 57 136 267 -14 z m 529 138 b 247 347 356 138 247 222 b 529 557 247 472 356 557 l 554 557 b 836 347 729 557 836 472 b 554 138 836 222 729 138 z "},"ő":{"ha":1083,"x_min":0,"x_max":0,"o":"m 483 767 l 678 975 l 461 975 l 343 767 z m 746 767 l 940 975 l 724 975 l 606 767 z m 540 -14 b 1026 347 814 -14 1026 136 b 540 708 1026 560 814 708 b 57 347 267 708 57 560 b 540 -14 57 136 267 -14 z m 529 138 b 247 347 356 138 247 222 b 529 557 247 472 356 557 l 554 557 b 836 347 729 557 836 472 b 554 138 836 222 729 138 z "},"ō":{"ha":1083,"x_min":0,"x_max":0,"o":"m 836 785 l 836 931 l 246 931 l 246 785 z m 540 -14 b 1026 347 814 -14 1026 136 b 540 708 1026 560 814 708 b 57 347 267 708 57 560 b 540 -14 57 136 267 -14 z m 529 138 b 247 347 356 138 247 222 b 529 557 247 472 356 557 l 554 557 b 836 347 729 557 836 472 b 554 138 836 222 729 138 z "},"ø":{"ha":1085,"x_min":0,"x_max":0,"o":"m 1007 639 l 900 764 l 785 664 b 542 708 714 693 631 708 b 58 347 268 708 58 560 b 156 122 58 260 94 183 l 78 56 l 185 -69 l 300 31 b 542 -14 371 1 453 -14 b 1028 347 815 -14 1028 136 b 929 572 1028 435 992 513 z m 249 347 b 531 557 249 472 357 557 l 556 557 b 649 547 589 557 621 554 l 285 235 b 249 347 261 267 249 304 z m 531 138 b 436 147 496 138 465 140 l 800 461 b 838 347 825 429 838 390 b 556 138 838 222 731 138 z "},"ǿ":{"ha":1085,"x_min":0,"x_max":0,"o":"m 590 975 l 472 767 l 613 767 l 807 975 z m 1007 639 l 900 764 l 785 664 b 542 708 714 693 631 708 b 58 347 268 708 58 560 b 156 122 58 260 94 183 l 78 56 l 185 -69 l 300 31 b 542 -14 371 1 453 -14 b 1028 347 815 -14 1028 136 b 929 572 1028 435 992 513 z m 249 347 b 531 557 249 472 357 557 l 556 557 b 649 547 589 557 621 554 l 285 235 b 249 347 261 267 249 304 z m 531 138 b 436 147 496 138 465 140 l 800 461 b 838 347 825 429 838 390 b 556 138 838 222 731 138 z "},"õ":{"ha":1083,"x_min":0,"x_max":0,"o":"m 706 767 b 863 928 813 767 863 842 l 863 967 l 729 967 b 685 906 729 935 717 906 b 610 924 663 906 635 915 l 489 961 b 383 981 456 971 442 981 b 224 819 296 981 224 906 l 224 781 l 357 781 b 403 842 357 813 372 842 b 464 829 426 842 435 839 l 588 790 b 706 767 640 774 671 767 z m 540 -14 b 1026 347 814 -14 1026 136 b 540 708 1026 560 814 708 b 57 347 267 708 57 560 b 540 -14 57 136 267 -14 z m 529 138 b 247 347 356 138 247 222 b 529 557 247 472 356 557 l 554 557 b 836 347 729 557 836 472 b 554 138 836 222 729 138 z "},"œ":{"ha":1792,"x_min":0,"x_max":0,"o":"m 540 -14 b 922 122 692 -14 832 38 b 1300 -14 1003 33 1136 -14 b 1721 219 1574 -14 1694 99 l 1521 219 b 1313 138 1499 179 1438 138 l 1288 138 b 1036 286 1161 138 1067 193 l 1728 286 l 1728 354 b 1300 708 1728 557 1572 708 b 924 572 1149 708 1008 661 b 540 708 832 657 692 708 b 57 347 281 708 57 560 b 540 -14 57 136 281 -14 z m 529 138 b 247 347 369 138 247 222 b 529 557 247 472 369 557 l 554 557 b 836 347 715 557 836 472 b 554 138 836 222 715 138 z m 1040 428 b 1288 557 1071 506 1154 557 l 1313 557 b 1532 428 1438 557 1528 507 z "},"p":{"ha":1118,"x_min":0,"x_max":0,"o":"m 293 -278 l 293 104 b 624 -14 344 47 451 -14 b 1058 347 871 -14 1058 132 b 626 708 1058 578 878 708 b 293 589 481 708 365 665 l 293 694 l 106 694 l 106 -278 z m 578 138 b 293 347 406 138 293 222 b 578 557 293 472 406 557 l 603 557 b 868 347 763 557 868 472 b 603 138 868 222 763 138 z "},"þ":{"ha":1118,"x_min":0,"x_max":0,"o":"m 293 -278 l 293 104 b 624 -14 344 47 451 -14 b 1058 347 874 -14 1058 132 b 626 708 1058 578 874 708 b 293 589 481 708 365 665 l 293 972 l 106 972 l 106 -278 z m 578 138 b 293 347 406 138 293 222 b 578 557 293 472 406 557 l 603 557 b 868 347 763 557 868 472 b 603 138 868 222 763 138 z "},"q":{"ha":1118,"x_min":0,"x_max":0,"o":"m 1013 -278 l 1013 694 l 825 694 l 825 589 b 492 708 753 665 638 708 b 60 347 240 708 60 578 b 494 -14 60 132 247 -14 b 825 104 667 -14 774 47 l 825 -278 z m 515 138 b 250 347 356 138 250 222 b 515 557 250 472 356 557 l 540 557 b 825 347 713 557 825 472 b 540 138 825 222 713 138 z "},"r":{"ha":706,"x_min":0,"x_max":0,"o":"m 293 0 l 293 356 b 471 526 293 475 333 526 l 675 526 l 675 694 l 511 694 b 293 565 397 694 324 638 l 293 694 l 106 694 l 106 0 z "},"ŕ":{"ha":706,"x_min":0,"x_max":0,"o":"m 442 767 l 636 975 l 419 975 l 301 767 z m 293 0 l 293 356 b 471 526 293 475 333 526 l 675 526 l 675 694 l 511 694 b 293 565 397 694 324 638 l 293 694 l 106 694 l 106 0 z "},"ř":{"ha":706,"x_min":0,"x_max":0,"o":"m 461 765 l 706 974 l 547 974 l 374 876 l 197 974 l 39 974 l 282 765 z m 293 0 l 293 356 b 471 526 293 475 333 526 l 675 526 l 675 694 l 511 694 b 293 565 397 694 324 638 l 293 694 l 106 694 l 106 0 z "},"ŗ":{"ha":706,"x_min":0,"x_max":0,"o":"m 293 0 l 293 356 b 471 526 293 475 333 526 l 675 526 l 675 694 l 511 694 b 293 565 397 694 324 638 l 293 694 l 106 694 l 106 0 z m 122 -429 b 300 -269 226 -429 300 -362 l 300 -86 l 100 -86 l 100 -269 l 186 -269 l 186 -271 b 114 -325 186 -303 165 -325 l 51 -325 l 51 -429 z "},"s":{"ha":921,"x_min":0,"x_max":0,"o":"m 463 -14 b 847 207 728 -14 847 71 b 569 419 847 313 783 399 l 400 436 b 278 497 292 447 278 468 b 444 557 278 532 332 557 l 469 557 b 668 465 596 557 654 519 l 861 465 b 456 708 847 610 721 708 b 89 485 239 708 89 639 b 349 278 89 381 147 297 l 544 258 b 657 199 640 249 657 226 b 476 138 657 161 619 138 l 451 138 b 240 229 340 138 249 178 l 47 229 b 463 -14 58 79 210 -14 z "},"ś":{"ha":921,"x_min":0,"x_max":0,"o":"m 531 767 l 725 975 l 508 975 l 390 767 z m 463 -14 b 847 207 728 -14 847 71 b 569 419 847 313 783 399 l 400 436 b 278 497 292 447 278 468 b 444 557 278 532 332 557 l 469 557 b 668 465 596 557 654 519 l 861 465 b 456 708 847 610 721 708 b 89 485 239 708 89 639 b 349 278 89 381 147 297 l 544 258 b 657 199 640 249 657 226 b 476 138 657 161 619 138 l 451 138 b 240 229 340 138 249 178 l 47 229 b 463 -14 58 79 210 -14 z "},"š":{"ha":921,"x_min":0,"x_max":0,"o":"m 550 765 l 794 974 l 636 974 l 463 876 l 286 974 l 128 974 l 371 765 z m 463 -14 b 847 207 728 -14 847 71 b 569 419 847 313 783 399 l 400 436 b 278 497 292 447 278 468 b 444 557 278 532 332 557 l 469 557 b 668 465 596 557 654 519 l 861 465 b 456 708 847 610 721 708 b 89 485 239 708 89 639 b 349 278 89 381 147 297 l 544 258 b 657 199 640 249 657 226 b 476 138 657 161 619 138 l 451 138 b 240 229 340 138 249 178 l 47 229 b 463 -14 58 79 210 -14 z "},"ş":{"ha":921,"x_min":0,"x_max":0,"o":"m 400 436 b 278 497 292 447 278 468 b 444 557 278 532 332 557 l 469 557 b 668 465 596 557 654 519 l 861 465 b 456 708 847 610 721 708 b 89 485 239 708 89 639 b 349 278 89 381 147 297 l 544 258 b 657 199 640 249 657 226 b 476 138 657 161 619 138 l 451 138 b 240 229 340 138 249 178 l 47 229 b 399 -11 57 92 185 3 l 399 -154 l 506 -154 b 558 -194 540 -154 558 -174 b 499 -235 558 -222 533 -235 l 325 -235 l 325 -342 l 494 -342 b 668 -194 592 -342 668 -285 b 504 -62 668 -104 601 -62 l 504 -12 b 847 207 740 -4 847 78 b 569 419 847 313 783 399 z "},"ŝ":{"ha":921,"x_min":0,"x_max":0,"o":"m 286 767 l 463 868 l 636 767 l 794 767 l 550 975 l 371 975 l 128 767 z m 463 -14 b 847 207 728 -14 847 71 b 569 419 847 313 783 399 l 400 436 b 278 497 292 447 278 468 b 444 557 278 532 332 557 l 469 557 b 668 465 596 557 654 519 l 861 465 b 456 708 847 610 721 708 b 89 485 239 708 89 639 b 349 278 89 381 147 297 l 544 258 b 657 199 640 249 657 226 b 476 138 657 161 619 138 l 451 138 b 240 229 340 138 249 178 l 47 229 b 463 -14 58 79 210 -14 z "},"ș":{"ha":921,"x_min":0,"x_max":0,"o":"m 463 -14 b 847 207 728 -14 847 71 b 569 419 847 313 783 399 l 400 436 b 278 497 292 447 278 468 b 444 557 278 532 332 557 l 469 557 b 668 465 596 557 654 519 l 861 465 b 456 708 847 610 721 708 b 89 485 239 708 89 639 b 349 278 89 381 147 297 l 544 258 b 657 199 640 249 657 226 b 476 138 657 161 619 138 l 451 138 b 240 229 340 138 249 178 l 47 229 b 463 -14 58 79 210 -14 z m 374 -429 b 551 -269 478 -429 551 -362 l 551 -86 l 351 -86 l 351 -269 l 438 -269 l 438 -271 b 365 -325 438 -303 417 -325 l 303 -325 l 303 -429 z "},"ß":{"ha":1019,"x_min":0,"x_max":0,"o":"m 293 -257 l 293 650 b 517 835 293 786 390 835 l 531 835 b 742 713 683 835 742 774 b 549 585 742 638 686 585 l 422 585 l 422 433 l 556 433 b 767 292 697 433 767 378 b 560 151 767 206 710 151 l 422 151 l 422 0 l 593 0 b 957 282 826 0 957 115 b 768 518 957 428 840 503 b 922 732 822 540 922 601 b 524 986 922 850 821 986 b 106 657 238 986 106 851 l 106 -257 z "},"t":{"ha":778,"x_min":0,"x_max":0,"o":"m 740 0 l 740 156 l 468 156 b 413 211 426 156 413 169 l 413 543 l 699 543 l 699 694 l 413 694 l 413 919 l 225 919 l 225 694 l 19 694 l 19 543 l 225 543 l 225 153 b 378 0 225 56 281 0 z "},"ŧ":{"ha":799,"x_min":0,"x_max":0,"o":"m 485 156 b 429 211 443 156 429 169 l 429 317 l 717 317 l 717 449 l 429 449 l 429 543 l 715 543 l 715 694 l 429 694 l 429 919 l 242 919 l 242 694 l 36 694 l 36 543 l 242 543 l 242 449 l 33 449 l 33 317 l 242 317 l 242 153 b 394 0 242 56 297 0 l 757 0 l 757 156 z "},"ť":{"ha":924,"x_min":0,"x_max":0,"o":"m 839 629 b 1017 789 943 629 1017 696 l 1017 972 l 817 972 l 817 789 l 903 789 l 903 788 b 831 733 903 756 882 733 l 768 733 l 768 629 z m 740 0 l 740 156 l 468 156 b 413 211 426 156 413 169 l 413 543 l 699 543 l 699 694 l 413 694 l 413 919 l 225 919 l 225 694 l 19 694 l 19 543 l 225 543 l 225 153 b 378 0 225 56 281 0 z "},"ţ":{"ha":778,"x_min":0,"x_max":0,"o":"m 740 156 l 468 156 b 413 211 426 156 413 169 l 413 543 l 699 543 l 699 694 l 413 694 l 413 919 l 225 919 l 225 694 l 19 694 l 19 543 l 225 543 l 225 153 b 326 6 225 74 261 24 l 326 -154 l 433 -154 b 486 -194 468 -154 486 -174 b 426 -235 486 -222 461 -235 l 253 -235 l 253 -342 l 422 -342 b 596 -194 519 -342 596 -285 b 432 -62 596 -104 529 -62 l 432 0 l 740 0 z "},"ț":{"ha":778,"x_min":0,"x_max":0,"o":"m 740 0 l 740 156 l 468 156 b 413 211 426 156 413 169 l 413 543 l 699 543 l 699 694 l 413 694 l 413 919 l 225 919 l 225 694 l 19 694 l 19 543 l 225 543 l 225 153 b 378 0 225 56 281 0 z m 301 -429 b 479 -269 406 -429 479 -362 l 479 -86 l 279 -86 l 279 -269 l 365 -269 l 365 -271 b 293 -325 365 -303 344 -325 l 231 -325 l 231 -429 z "},"u":{"ha":1036,"x_min":0,"x_max":0,"o":"m 456 -14 b 743 111 593 -14 685 36 l 743 0 l 931 0 l 931 694 l 743 694 l 743 374 b 510 138 743 222 636 138 l 485 138 b 282 343 338 138 282 208 l 282 694 l 94 694 l 94 306 b 456 -14 94 106 225 -14 z "},"ú":{"ha":1036,"x_min":0,"x_max":0,"o":"m 582 767 l 776 975 l 560 975 l 442 767 z m 456 -14 b 743 111 593 -14 685 36 l 743 0 l 931 0 l 931 694 l 743 694 l 743 374 b 510 138 743 222 636 138 l 485 138 b 282 343 338 138 282 208 l 282 694 l 94 694 l 94 306 b 456 -14 94 106 225 -14 z "},"ŭ":{"ha":1036,"x_min":0,"x_max":0,"o":"m 513 767 b 803 983 681 767 800 849 l 647 983 b 513 901 642 929 599 901 b 378 983 426 901 383 929 l 222 983 b 513 767 225 849 344 767 z m 456 -14 b 743 111 593 -14 685 36 l 743 0 l 931 0 l 931 694 l 743 694 l 743 374 b 510 138 743 222 636 138 l 485 138 b 282 343 338 138 282 208 l 282 694 l 94 694 l 94 306 b 456 -14 94 106 225 -14 z "},"û":{"ha":1036,"x_min":0,"x_max":0,"o":"m 338 767 l 514 868 l 688 767 l 846 767 l 601 975 l 422 975 l 179 767 z m 456 -14 b 743 111 593 -14 685 36 l 743 0 l 931 0 l 931 694 l 743 694 l 743 374 b 510 138 743 222 636 138 l 485 138 b 282 343 338 138 282 208 l 282 694 l 94 694 l 94 306 b 456 -14 94 106 225 -14 z "},"ü":{"ha":1036,"x_min":0,"x_max":0,"o":"m 442 782 l 442 967 l 253 967 l 253 782 z m 772 782 l 772 967 l 583 967 l 583 782 z m 456 -14 b 743 111 593 -14 685 36 l 743 0 l 931 0 l 931 694 l 743 694 l 743 374 b 510 138 743 222 636 138 l 485 138 b 282 343 338 138 282 208 l 282 694 l 94 694 l 94 306 b 456 -14 94 106 225 -14 z "},"ù":{"ha":1036,"x_min":0,"x_max":0,"o":"m 582 767 l 464 975 l 247 975 l 442 767 z m 456 -14 b 743 111 593 -14 685 36 l 743 0 l 931 0 l 931 694 l 743 694 l 743 374 b 510 138 743 222 636 138 l 485 138 b 282 343 338 138 282 208 l 282 694 l 94 694 l 94 306 b 456 -14 94 106 225 -14 z "},"ű":{"ha":1036,"x_min":0,"x_max":0,"o":"m 454 767 l 649 975 l 432 975 l 314 767 z m 717 767 l 911 975 l 694 975 l 576 767 z m 456 -14 b 743 111 593 -14 685 36 l 743 0 l 931 0 l 931 694 l 743 694 l 743 374 b 510 138 743 222 636 138 l 485 138 b 282 343 338 138 282 208 l 282 694 l 94 694 l 94 306 b 456 -14 94 106 225 -14 z "},"ū":{"ha":1036,"x_min":0,"x_max":0,"o":"m 807 785 l 807 931 l 217 931 l 217 785 z m 456 -14 b 743 111 593 -14 685 36 l 743 0 l 931 0 l 931 694 l 743 694 l 743 374 b 510 138 743 222 636 138 l 485 138 b 282 343 338 138 282 208 l 282 694 l 94 694 l 94 306 b 456 -14 94 106 225 -14 z "},"ų":{"ha":1036,"x_min":0,"x_max":0,"o":"m 889 -192 b 801 -125 847 -192 801 -174 b 931 0 801 -69 879 -26 l 931 694 l 743 694 l 743 374 b 510 138 743 222 636 138 l 485 138 b 282 343 338 138 282 208 l 282 694 l 94 694 l 94 306 b 456 -14 94 106 225 -14 b 743 111 593 -14 685 36 l 743 0 l 790 0 b 671 -167 732 -32 671 -86 b 856 -306 671 -247 756 -306 l 979 -306 l 979 -192 z "},"ů":{"ha":1036,"x_min":0,"x_max":0,"o":"m 513 767 b 706 924 628 767 706 835 b 513 1081 706 1004 628 1081 b 319 924 397 1081 319 1004 b 513 767 319 835 397 767 z m 514 864 b 428 924 468 864 428 892 b 514 983 428 956 468 983 b 599 924 563 983 599 956 b 514 864 599 892 563 864 z m 456 -14 b 743 111 593 -14 685 36 l 743 0 l 931 0 l 931 694 l 743 694 l 743 374 b 510 138 743 222 636 138 l 485 138 b 282 343 338 138 282 208 l 282 694 l 94 694 l 94 306 b 456 -14 94 106 225 -14 z "},"ũ":{"ha":1036,"x_min":0,"x_max":0,"o":"m 676 767 b 833 928 783 767 833 842 l 833 967 l 700 967 b 656 906 700 935 688 906 b 581 924 633 906 606 915 l 460 961 b 354 981 426 971 413 981 b 194 819 267 981 194 906 l 194 781 l 328 781 b 374 842 328 813 343 842 b 435 829 397 842 406 839 l 558 790 b 676 767 611 774 642 767 z m 456 -14 b 743 111 593 -14 685 36 l 743 0 l 931 0 l 931 694 l 743 694 l 743 374 b 510 138 743 222 636 138 l 485 138 b 282 343 338 138 282 208 l 282 694 l 94 694 l 94 306 b 456 -14 94 106 225 -14 z "},"v":{"ha":1001,"x_min":0,"x_max":0,"o":"m 501 163 l 215 694 l 4 694 l 381 0 l 619 0 l 997 694 l 788 694 z "},"w":{"ha":1428,"x_min":0,"x_max":0,"o":"m 1018 224 l 817 694 l 611 694 l 415 224 l 217 694 l 13 694 l 310 0 l 507 0 l 714 483 l 919 0 l 1111 0 l 1422 694 l 1221 694 z "},"ẃ":{"ha":1428,"x_min":0,"x_max":0,"o":"m 761 975 l 643 767 l 783 767 l 978 975 z m 1018 224 l 817 694 l 611 694 l 415 224 l 217 694 l 13 694 l 310 0 l 507 0 l 714 483 l 919 0 l 1111 0 l 1422 694 l 1221 694 z "},"ŵ":{"ha":1428,"x_min":0,"x_max":0,"o":"m 889 767 l 1047 767 l 803 975 l 624 975 l 381 767 l 539 767 l 715 868 z m 1018 224 l 817 694 l 611 694 l 415 224 l 217 694 l 13 694 l 310 0 l 507 0 l 714 483 l 919 0 l 1111 0 l 1422 694 l 1221 694 z "},"ẅ":{"ha":1428,"x_min":0,"x_max":0,"o":"m 454 967 l 454 782 l 643 782 l 643 967 z m 785 967 l 785 782 l 974 782 l 974 967 z m 1018 224 l 817 694 l 611 694 l 415 224 l 217 694 l 13 694 l 310 0 l 507 0 l 714 483 l 919 0 l 1111 0 l 1422 694 l 1221 694 z "},"ẁ":{"ha":1428,"x_min":0,"x_max":0,"o":"m 665 975 l 449 975 l 643 767 l 783 767 z m 1018 224 l 817 694 l 611 694 l 415 224 l 217 694 l 13 694 l 310 0 l 507 0 l 714 483 l 919 0 l 1111 0 l 1422 694 l 1221 694 z "},"x":{"ha":936,"x_min":0,"x_max":0,"o":"m 594 354 l 911 694 l 661 694 l 469 489 l 278 694 l 25 694 l 343 353 l 13 0 l 263 0 l 467 219 l 671 0 l 924 0 z "},"y":{"ha":1018,"x_min":0,"x_max":0,"o":"m 471 -278 b 618 -132 568 -278 618 -229 l 618 44 l 1019 694 l 801 694 l 524 235 l 239 694 l 15 694 l 431 40 l 431 -61 b 375 -117 431 -103 417 -117 l 90 -117 l 90 -278 z "},"ý":{"ha":1018,"x_min":0,"x_max":0,"o":"m 590 767 l 785 975 l 568 975 l 450 767 z m 471 -278 b 618 -132 568 -278 618 -229 l 618 44 l 1019 694 l 801 694 l 524 235 l 239 694 l 15 694 l 431 40 l 431 -61 b 375 -117 431 -103 417 -117 l 90 -117 l 90 -278 z "},"ŷ":{"ha":1018,"x_min":0,"x_max":0,"o":"m 346 767 l 522 868 l 696 767 l 854 767 l 610 975 l 431 975 l 188 767 z m 471 -278 b 618 -132 568 -278 618 -229 l 618 44 l 1019 694 l 801 694 l 524 235 l 239 694 l 15 694 l 431 40 l 431 -61 b 375 -117 431 -103 417 -117 l 90 -117 l 90 -278 z "},"ÿ":{"ha":1018,"x_min":0,"x_max":0,"o":"m 450 782 l 450 967 l 261 967 l 261 782 z m 781 782 l 781 967 l 592 967 l 592 782 z m 471 -278 b 618 -132 568 -278 618 -229 l 618 44 l 1019 694 l 801 694 l 524 235 l 239 694 l 15 694 l 431 40 l 431 -61 b 375 -117 431 -103 417 -117 l 90 -117 l 90 -278 z "},"ỳ":{"ha":1018,"x_min":0,"x_max":0,"o":"m 590 767 l 472 975 l 256 975 l 450 767 z m 471 -278 b 618 -132 568 -278 618 -229 l 618 44 l 1019 694 l 801 694 l 524 235 l 239 694 l 15 694 l 431 40 l 431 -61 b 375 -117 431 -103 417 -117 l 90 -117 l 90 -278 z "},"ȳ":{"ha":1018,"x_min":0,"x_max":0,"o":"m 815 785 l 815 931 l 225 931 l 225 785 z m 471 -278 b 618 -132 568 -278 618 -229 l 618 44 l 1019 694 l 801 694 l 524 235 l 239 694 l 15 694 l 431 40 l 431 -61 b 375 -117 431 -103 417 -117 l 90 -117 l 90 -278 z "},"z":{"ha":933,"x_min":0,"x_max":0,"o":"m 856 544 l 856 694 l 71 694 l 71 543 l 563 543 l 64 150 l 64 0 l 876 0 l 876 151 l 357 151 z "},"ź":{"ha":933,"x_min":0,"x_max":0,"o":"m 511 975 l 393 767 l 533 767 l 728 975 z m 856 544 l 856 694 l 71 694 l 71 543 l 563 543 l 64 150 l 64 0 l 876 0 l 876 151 l 357 151 z "},"ž":{"ha":933,"x_min":0,"x_max":0,"o":"m 797 974 l 639 974 l 465 876 l 289 974 l 131 974 l 374 765 l 553 765 z m 856 544 l 856 694 l 71 694 l 71 543 l 563 543 l 64 150 l 64 0 l 876 0 l 876 151 l 357 151 z "},"ż":{"ha":933,"x_min":0,"x_max":0,"o":"m 361 972 l 361 776 l 565 776 l 565 972 z m 856 544 l 856 694 l 71 694 l 71 543 l 563 543 l 64 150 l 64 0 l 876 0 l 876 151 l 357 151 z "},"ﬁ":{"ha":1099,"x_min":0,"x_max":0,"o":"m 440 0 l 440 543 l 808 543 l 808 0 l 993 0 l 993 694 l 440 694 l 440 753 b 499 810 440 794 457 810 l 682 810 l 682 972 l 465 972 b 251 785 324 972 251 910 l 251 694 l 28 694 l 28 543 l 251 543 l 251 0 z m 999 779 l 999 972 l 800 972 l 800 779 z "},"ﬂ":{"ha":1103,"x_min":0,"x_max":0,"o":"m 403 0 l 403 543 l 647 543 l 647 694 l 403 694 l 403 753 b 461 810 403 794 419 810 l 813 810 l 813 0 l 997 0 l 997 972 l 428 972 b 214 785 286 972 214 910 l 214 694 l 32 694 l 32 543 l 214 543 l 214 0 z "},"ª":{"ha":660,"x_min":0,"x_max":0,"o":"m 249 569 b 428 626 329 569 392 593 b 433 576 429 604 431 588 l 557 576 b 551 664 553 604 551 640 l 551 818 b 329 979 551 929 465 979 b 94 838 182 979 99 914 l 224 838 b 324 879 235 863 271 879 l 329 879 b 418 833 386 879 418 864 l 418 822 l 235 810 b 81 686 133 803 81 756 b 249 569 81 613 158 569 z m 278 669 b 214 704 239 669 214 682 b 267 738 214 722 231 735 l 421 749 l 421 738 b 283 669 421 693 357 669 z "},"º":{"ha":692,"x_min":0,"x_max":0,"o":"m 349 569 b 622 774 518 569 622 658 b 349 979 622 889 518 979 b 69 774 174 979 69 889 b 349 569 69 658 174 569 z m 346 681 b 211 774 261 681 211 714 b 346 868 211 833 261 868 l 351 868 b 481 774 429 868 481 833 b 351 681 481 714 429 681 z "},"Δ":{"ha":1310,"x_min":0,"x_max":0,"o":"m 549 972 l 28 125 l 28 0 l 1282 0 l 1282 125 l 761 972 z m 1060 165 l 250 165 l 656 808 z "},"Ω":{"ha":1489,"x_min":0,"x_max":0,"o":"m 647 0 l 647 165 b 278 492 432 201 278 315 b 738 814 278 697 454 814 l 751 814 b 1211 492 1035 814 1211 697 b 842 165 1211 315 1057 201 l 842 0 l 1383 0 l 1383 165 l 1185 165 b 1407 514 1311 242 1407 344 b 744 986 1407 792 1122 986 b 82 514 367 986 82 792 b 304 165 82 344 178 242 l 106 165 l 106 0 z "},"μ":{"ha":1057,"x_min":0,"x_max":0,"o":"m 292 -278 l 292 14 b 468 -14 342 -4 400 -14 b 765 103 607 -14 700 24 l 765 0 l 951 0 l 951 694 l 765 694 l 765 364 b 514 135 765 222 690 135 l 503 135 b 292 326 393 135 292 189 l 292 694 l 106 694 l 106 -278 z "},"π":{"ha":1371,"x_min":0,"x_max":0,"o":"m 443 0 l 443 543 l 875 543 l 875 146 b 1051 0 875 49 954 0 l 1299 0 l 1299 151 l 1118 151 b 1063 207 1076 151 1063 165 l 1063 543 l 1299 543 l 1299 694 l 21 694 l 21 543 l 256 543 l 256 0 z "},"⓿":{"ha":1717,"x_min":0,"x_max":0,"o":"m 858 -56 b 1647 486 1308 -56 1647 161 b 858 1028 1647 811 1308 1028 b 69 486 408 1028 69 811 b 858 -56 69 161 408 -56 z m 858 211 b 544 492 638 211 544 350 b 858 774 544 633 638 774 b 1172 492 1079 774 1172 633 b 858 211 1172 350 1079 211 z m 861 342 b 1017 492 965 342 1017 394 b 861 643 1017 589 965 643 l 856 643 b 700 492 751 643 700 589 b 856 342 700 394 751 342 z "},"❶":{"ha":1717,"x_min":0,"x_max":0,"o":"m 858 -56 b 1647 486 1308 -56 1647 161 b 858 1028 1647 811 1308 1028 b 69 486 408 1028 69 811 b 858 -56 69 161 408 -56 z m 811 589 l 594 465 l 594 624 l 833 767 l 961 767 l 961 218 l 811 218 z "},"❷":{"ha":1717,"x_min":0,"x_max":0,"o":"m 858 -56 b 1647 486 1308 -56 1647 161 b 858 1028 1647 811 1308 1028 b 69 486 408 1028 69 811 b 858 -56 69 161 408 -56 z m 583 353 l 889 522 b 964 594 940 551 964 567 b 853 650 964 626 933 650 l 847 650 b 735 593 769 650 736 625 l 581 593 b 863 775 588 704 699 775 b 1126 608 1054 775 1126 685 b 972 425 1126 542 1086 485 l 817 344 l 1122 344 l 1122 219 l 583 219 z "},"❸":{"ha":1717,"x_min":0,"x_max":0,"o":"m 858 -56 b 1647 486 1308 -56 1647 161 b 858 1028 1647 811 1308 1028 b 69 486 408 1028 69 811 b 858 -56 69 161 408 -56 z m 836 213 b 561 389 690 213 561 275 l 717 389 b 836 336 719 356 775 336 l 843 336 b 963 388 936 336 963 356 b 844 436 963 419 933 436 l 729 436 l 729 556 l 843 556 b 958 604 929 556 958 574 b 853 651 958 632 933 651 l 846 651 b 726 601 754 651 733 629 l 571 601 b 843 775 571 715 699 775 b 1111 618 983 775 1111 719 b 1024 497 1111 564 1089 519 b 1115 368 1090 472 1115 424 b 836 213 1115 264 978 213 z "},"❹":{"ha":1717,"x_min":0,"x_max":0,"o":"m 858 -56 b 1647 486 1308 -56 1647 161 b 858 1028 1647 811 1308 1028 b 69 486 408 1028 69 811 b 858 -56 69 161 408 -56 z m 882 318 l 494 318 l 494 469 l 851 767 l 1022 767 l 1022 436 l 1131 436 l 1131 318 l 1022 318 l 1022 218 l 882 218 z m 882 436 l 882 638 l 639 436 z "},"❺":{"ha":1717,"x_min":0,"x_max":0,"o":"m 858 -56 b 1647 486 1308 -56 1647 161 b 858 1028 1647 811 1308 1028 b 69 486 408 1028 69 811 b 858 -56 69 161 408 -56 z m 835 211 b 568 382 686 211 579 276 l 724 382 b 833 335 733 354 778 335 l 839 335 b 950 400 919 335 950 364 b 842 463 950 438 922 463 l 836 463 b 738 431 797 463 751 454 l 588 431 l 649 767 l 1093 767 l 1093 642 l 754 642 l 735 551 b 883 583 769 569 807 583 b 1103 407 997 583 1103 524 b 835 211 1103 286 1003 211 z "},"❻":{"ha":1717,"x_min":0,"x_max":0,"o":"m 858 -56 b 1647 486 1308 -56 1647 161 b 858 1028 1647 811 1308 1028 b 69 486 408 1028 69 811 b 858 -56 69 161 408 -56 z m 840 211 b 544 465 663 211 544 310 b 868 774 544 656 661 774 b 1122 608 1019 774 1111 703 l 975 608 b 861 651 965 632 933 651 l 853 651 b 689 519 750 651 700 590 b 871 575 731 554 786 575 b 1117 403 1008 575 1117 504 b 840 211 1117 292 1003 211 z m 839 333 b 964 397 926 333 964 361 b 839 457 964 433 926 457 l 833 457 b 711 396 751 457 711 431 b 833 333 711 360 746 333 z "},"❼":{"ha":1717,"x_min":0,"x_max":0,"o":"m 858 -56 b 1647 486 1308 -56 1647 161 b 858 1028 1647 811 1308 1028 b 69 486 408 1028 69 811 b 858 -56 69 161 408 -56 z m 711 236 b 951 639 711 401 767 501 l 593 639 l 593 767 l 1147 767 l 1147 656 b 874 243 928 519 874 413 l 874 218 l 711 218 z "},"❽":{"ha":1717,"x_min":0,"x_max":0,"o":"m 858 -56 b 1647 486 1308 -56 1647 161 b 858 1028 1647 811 1308 1028 b 69 486 408 1028 69 811 b 858 -56 69 161 408 -56 z m 858 211 b 600 368 708 211 600 275 b 713 488 600 422 642 469 b 592 624 640 510 592 551 b 858 774 592 719 714 774 b 1124 624 1003 774 1124 719 b 1001 488 1124 551 1075 510 b 1114 368 1074 469 1114 422 b 858 211 1114 275 1008 211 z m 864 549 b 971 600 931 549 971 567 b 864 651 971 633 931 651 l 857 651 b 744 600 789 651 744 633 b 857 549 744 567 789 549 z m 861 333 b 961 382 933 333 961 353 b 861 432 961 411 933 432 l 854 432 b 753 382 786 432 753 411 b 854 333 753 353 786 333 z "},"❾":{"ha":1717,"x_min":0,"x_max":0,"o":"m 858 -56 b 1647 486 1308 -56 1647 161 b 858 1028 1647 811 1308 1028 b 69 486 408 1028 69 811 b 858 -56 69 161 408 -56 z m 839 211 b 582 376 688 211 593 282 l 732 376 b 846 333 742 353 774 333 l 854 333 b 1018 465 957 333 1007 394 b 836 410 976 431 921 410 b 590 582 699 410 590 481 b 867 774 590 693 704 774 b 1163 519 1044 774 1163 675 b 839 211 1163 329 1046 211 z m 874 528 b 996 589 956 528 996 554 b 874 651 996 625 961 651 l 868 651 b 743 588 781 651 743 624 b 868 528 743 551 781 528 z "},"⓪":{"ha":1717,"x_min":0,"x_max":0,"o":"m 858 -56 b 1647 486 1308 -56 1647 161 b 858 1028 1647 811 1308 1028 b 69 486 408 1028 69 811 b 858 -56 69 161 408 -56 z m 858 65 b 208 486 489 65 208 235 b 858 907 208 738 489 907 b 1508 486 1228 907 1508 738 b 858 65 1508 235 1228 65 z m 858 211 b 1172 492 1079 211 1172 350 b 858 774 1172 633 1079 774 b 544 492 638 774 544 633 b 858 211 544 350 638 211 z m 856 342 b 700 492 751 342 700 394 b 856 643 700 589 751 643 l 861 643 b 1017 492 965 643 1017 589 b 861 342 1017 394 965 342 z "},"①":{"ha":1717,"x_min":0,"x_max":0,"o":"m 858 -56 b 1647 486 1308 -56 1647 161 b 858 1028 1647 811 1308 1028 b 69 486 408 1028 69 811 b 858 -56 69 161 408 -56 z m 858 65 b 208 486 489 65 208 235 b 858 907 208 738 489 907 b 1508 486 1228 907 1508 738 b 858 65 1508 235 1228 65 z m 961 218 l 961 767 l 833 767 l 594 624 l 594 465 l 811 589 l 811 218 z "},"②":{"ha":1717,"x_min":0,"x_max":0,"o":"m 858 -56 b 1647 486 1308 -56 1647 161 b 858 1028 1647 811 1308 1028 b 69 486 408 1028 69 811 b 858 -56 69 161 408 -56 z m 858 65 b 208 486 489 65 208 235 b 858 907 208 738 489 907 b 1508 486 1228 907 1508 738 b 858 65 1508 235 1228 65 z m 1122 219 l 1122 344 l 817 344 l 972 425 b 1126 608 1086 485 1126 542 b 863 775 1126 685 1054 775 b 581 593 699 775 588 704 l 735 593 b 847 650 736 625 769 650 l 853 650 b 964 594 933 650 964 626 b 889 522 964 567 940 551 l 583 353 l 583 219 z "},"③":{"ha":1717,"x_min":0,"x_max":0,"o":"m 858 -56 b 1647 486 1308 -56 1647 161 b 858 1028 1647 811 1308 1028 b 69 486 408 1028 69 811 b 858 -56 69 161 408 -56 z m 858 65 b 208 486 489 65 208 235 b 858 907 208 738 489 907 b 1508 486 1228 907 1508 738 b 858 65 1508 235 1228 65 z m 836 213 b 1115 368 978 213 1115 264 b 1024 497 1115 424 1090 472 b 1111 618 1089 519 1111 564 b 843 775 1111 719 983 775 b 571 601 699 775 571 715 l 726 601 b 846 651 733 629 754 651 l 853 651 b 958 604 933 651 958 632 b 843 556 958 574 929 556 l 729 556 l 729 436 l 844 436 b 963 388 933 436 963 419 b 843 336 963 356 936 336 l 836 336 b 717 389 775 336 719 356 l 561 389 b 836 213 561 275 690 213 z "},"④":{"ha":1717,"x_min":0,"x_max":0,"o":"m 858 -56 b 1647 486 1308 -56 1647 161 b 858 1028 1647 811 1308 1028 b 69 486 408 1028 69 811 b 858 -56 69 161 408 -56 z m 858 65 b 208 486 489 65 208 235 b 858 907 208 738 489 907 b 1508 486 1228 907 1508 738 b 858 65 1508 235 1228 65 z m 1022 218 l 1022 318 l 1131 318 l 1131 436 l 1022 436 l 1022 767 l 851 767 l 494 469 l 494 318 l 882 318 l 882 218 z m 882 638 l 882 436 l 639 436 z "},"⑤":{"ha":1717,"x_min":0,"x_max":0,"o":"m 858 -56 b 1647 486 1308 -56 1647 161 b 858 1028 1647 811 1308 1028 b 69 486 408 1028 69 811 b 858 -56 69 161 408 -56 z m 858 65 b 208 486 489 65 208 235 b 858 907 208 738 489 907 b 1508 486 1228 907 1508 738 b 858 65 1508 235 1228 65 z m 835 211 b 1103 407 1003 211 1103 286 b 883 583 1103 524 997 583 b 735 551 807 583 769 569 l 754 642 l 1093 642 l 1093 767 l 649 767 l 588 431 l 738 431 b 836 463 751 454 797 463 l 842 463 b 950 400 922 463 950 438 b 839 335 950 364 919 335 l 833 335 b 724 382 778 335 733 354 l 568 382 b 835 211 579 276 686 211 z "},"⑥":{"ha":1717,"x_min":0,"x_max":0,"o":"m 858 -56 b 1647 486 1308 -56 1647 161 b 858 1028 1647 811 1308 1028 b 69 486 408 1028 69 811 b 858 -56 69 161 408 -56 z m 858 65 b 208 486 489 65 208 235 b 858 907 208 738 489 907 b 1508 486 1228 907 1508 738 b 858 65 1508 235 1228 65 z m 840 211 b 1117 403 1003 211 1117 292 b 871 575 1117 504 1008 575 b 689 519 786 575 731 554 b 853 651 700 590 750 651 l 861 651 b 975 608 933 651 965 632 l 1122 608 b 868 774 1111 703 1019 774 b 544 465 661 774 544 656 b 840 211 544 310 663 211 z m 833 333 b 711 396 746 333 711 360 b 833 457 711 431 751 457 l 839 457 b 964 397 926 457 964 433 b 839 333 964 361 926 333 z "},"⑦":{"ha":1717,"x_min":0,"x_max":0,"o":"m 858 -56 b 1647 486 1308 -56 1647 161 b 858 1028 1647 811 1308 1028 b 69 486 408 1028 69 811 b 858 -56 69 161 408 -56 z m 858 65 b 208 486 489 65 208 235 b 858 907 208 738 489 907 b 1508 486 1228 907 1508 738 b 858 65 1508 235 1228 65 z m 874 218 l 874 243 b 1147 656 874 413 928 519 l 1147 767 l 593 767 l 593 639 l 951 639 b 711 236 767 501 711 401 l 711 218 z "},"⑧":{"ha":1717,"x_min":0,"x_max":0,"o":"m 858 -56 b 1647 486 1308 -56 1647 161 b 858 1028 1647 811 1308 1028 b 69 486 408 1028 69 811 b 858 -56 69 161 408 -56 z m 858 65 b 208 486 489 65 208 235 b 858 907 208 738 489 907 b 1508 486 1228 907 1508 738 b 858 65 1508 235 1228 65 z m 858 211 b 1114 368 1008 211 1114 275 b 1001 488 1114 422 1074 469 b 1124 624 1075 510 1124 551 b 858 774 1124 719 1003 774 b 592 624 714 774 592 719 b 713 488 592 551 640 510 b 600 368 642 469 600 422 b 858 211 600 275 708 211 z m 857 549 b 744 600 789 549 744 567 b 857 651 744 633 789 651 l 864 651 b 971 600 931 651 971 633 b 864 549 971 567 931 549 z m 854 333 b 753 382 786 333 753 353 b 854 432 753 411 786 432 l 861 432 b 961 382 933 432 961 411 b 861 333 961 353 933 333 z "},"⑨":{"ha":1717,"x_min":0,"x_max":0,"o":"m 858 -56 b 1647 486 1308 -56 1647 161 b 858 1028 1647 811 1308 1028 b 69 486 408 1028 69 811 b 858 -56 69 161 408 -56 z m 858 65 b 208 486 489 65 208 235 b 858 907 208 738 489 907 b 1508 486 1228 907 1508 738 b 858 65 1508 235 1228 65 z m 839 211 b 1163 519 1046 211 1163 329 b 867 774 1163 675 1044 774 b 590 582 704 774 590 693 b 836 410 590 481 699 410 b 1018 465 921 410 976 431 b 854 333 1007 394 957 333 l 846 333 b 732 376 774 333 742 353 l 582 376 b 839 211 593 282 688 211 z m 868 528 b 743 588 781 528 743 551 b 868 651 743 624 781 651 l 874 651 b 996 589 961 651 996 625 b 874 528 996 554 956 528 z "},"⁰":{"ha":736,"x_min":0,"x_max":0,"o":"m 368 569 b 682 850 589 569 682 708 b 368 1132 682 992 589 1132 b 54 850 147 1132 54 992 b 368 569 54 708 147 569 z m 365 700 b 210 850 261 700 210 753 b 365 1001 210 947 261 1001 l 371 1001 b 526 850 475 1001 526 947 b 371 700 526 753 475 700 z "},"¹":{"ha":501,"x_min":0,"x_max":0,"o":"m 408 576 l 408 1125 l 281 1125 l 42 982 l 42 824 l 258 947 l 258 576 z "},"²":{"ha":669,"x_min":0,"x_max":0,"o":"m 603 576 l 603 701 l 297 701 l 453 782 b 607 965 567 842 607 899 b 343 1132 607 1042 535 1132 b 61 950 179 1132 68 1061 l 215 950 b 328 1007 217 982 250 1007 l 333 1007 b 444 951 414 1007 444 983 b 369 879 444 924 421 908 l 64 710 l 64 576 z "},"³":{"ha":667,"x_min":0,"x_max":0,"o":"m 325 569 b 604 725 467 569 604 621 b 513 854 604 781 579 829 b 600 975 578 876 600 921 b 332 1132 600 1076 472 1132 b 60 958 188 1132 60 1072 l 215 958 b 335 1008 222 986 243 1008 l 342 1008 b 447 961 422 1008 447 989 b 332 913 447 931 418 913 l 218 913 l 218 793 l 333 793 b 451 744 422 793 451 776 b 332 693 451 713 425 693 l 325 693 b 206 746 264 693 208 713 l 50 746 b 325 569 50 632 179 569 z "},"⁴":{"ha":725,"x_min":0,"x_max":0,"o":"m 571 576 l 571 676 l 679 676 l 679 794 l 571 794 l 571 1125 l 400 1125 l 43 828 l 43 676 l 431 676 l 431 576 z m 431 996 l 431 794 l 188 794 z "},"⁵":{"ha":643,"x_min":0,"x_max":0,"o":"m 314 569 b 582 765 482 569 582 644 b 363 942 582 882 476 942 b 214 910 286 942 249 928 l 233 1000 l 572 1000 l 572 1125 l 128 1125 l 67 789 l 217 789 b 315 821 231 813 276 821 l 321 821 b 429 758 401 821 429 796 b 318 693 429 722 399 693 l 313 693 b 203 740 257 693 213 713 l 47 740 b 314 569 58 635 165 569 z "},"⁶":{"ha":690,"x_min":0,"x_max":0,"o":"m 351 569 b 628 761 514 569 628 650 b 382 933 628 863 519 933 b 200 878 297 933 242 913 b 364 1010 211 949 261 1010 l 372 1010 b 486 967 444 1010 476 990 l 633 967 b 379 1132 622 1061 531 1132 b 56 824 172 1132 56 1014 b 351 569 56 668 174 569 z m 344 692 b 222 754 257 692 222 718 b 344 815 222 789 263 815 l 350 815 b 475 756 438 815 475 792 b 350 692 475 719 438 692 z "},"⁷":{"ha":613,"x_min":0,"x_max":0,"o":"m 314 576 l 314 601 b 588 1014 314 771 368 878 l 588 1125 l 33 1125 l 33 997 l 392 997 b 151 594 207 860 151 760 l 151 576 z "},"⁸":{"ha":651,"x_min":0,"x_max":0,"o":"m 326 569 b 582 726 476 569 582 633 b 469 846 582 781 542 828 b 592 982 543 868 592 910 b 326 1132 592 1078 471 1132 b 60 982 182 1132 60 1078 b 181 846 60 910 108 868 b 68 726 110 828 68 781 b 326 569 68 633 176 569 z m 325 907 b 213 958 257 907 213 925 b 325 1010 213 992 257 1010 l 332 1010 b 439 958 399 1010 439 992 b 332 907 439 925 399 907 z m 322 692 b 221 740 254 692 221 711 b 322 790 221 769 254 790 l 329 790 b 429 740 401 790 429 769 b 329 692 429 711 401 692 z "},"⁹":{"ha":690,"x_min":0,"x_max":0,"o":"m 311 569 b 635 878 518 569 635 688 b 339 1132 635 1033 517 1132 b 63 940 176 1132 63 1051 b 308 768 63 839 171 768 b 490 824 393 768 449 789 b 326 692 479 753 429 692 l 318 692 b 204 735 246 692 214 711 l 54 735 b 311 569 65 640 160 569 z m 340 886 b 215 946 253 886 215 910 b 340 1010 215 982 253 1010 l 346 1010 b 468 947 433 1010 468 983 b 346 886 468 913 428 886 z "},"⁄":{"ha":240,"x_min":0,"x_max":0,"o":"m -157 0 l 546 972 l 397 972 l -306 0 z "},"⅟":{"ha":742,"x_min":0,"x_max":0,"o":"m 408 424 l 408 972 l 281 972 l 42 829 l 42 671 l 258 794 l 258 424 z m 344 0 l 1047 972 l 899 972 l 196 0 z "},"½":{"ha":1440,"x_min":0,"x_max":0,"o":"m 408 424 l 408 972 l 281 972 l 42 829 l 42 671 l 258 794 l 258 424 z m 344 0 l 1047 972 l 899 972 l 196 0 z m 1343 0 l 1343 125 l 1038 125 l 1193 206 b 1347 389 1307 265 1347 322 b 1083 556 1347 465 1275 556 b 801 374 919 556 808 485 l 956 374 b 1068 431 957 406 990 431 l 1074 431 b 1185 375 1154 431 1185 407 b 1110 303 1185 347 1161 332 l 804 133 l 804 0 z "},"⅓":{"ha":1439,"x_min":0,"x_max":0,"o":"m 408 424 l 408 972 l 281 972 l 42 829 l 42 671 l 258 794 l 258 424 z m 344 0 l 1047 972 l 899 972 l 196 0 z m 1067 -7 b 1346 149 1208 -7 1346 44 b 1254 278 1346 204 1321 253 b 1342 399 1319 300 1342 344 b 1074 556 1342 500 1214 556 b 801 382 929 556 801 496 l 957 382 b 1076 432 964 410 985 432 l 1083 432 b 1189 385 1164 432 1189 413 b 1074 336 1189 354 1160 336 l 960 336 l 960 217 l 1075 217 b 1193 168 1164 217 1193 200 b 1074 117 1193 136 1167 117 l 1067 117 b 947 169 1006 117 950 136 l 792 169 b 1067 -7 792 56 921 -7 z "},"⅔":{"ha":1578,"x_min":0,"x_max":0,"o":"m 601 424 l 601 549 l 296 549 l 451 629 b 606 813 565 689 606 746 b 342 979 606 889 533 979 b 60 797 178 979 67 908 l 214 797 b 326 854 215 829 249 854 l 332 854 b 443 799 413 854 443 831 b 368 726 443 771 419 756 l 63 557 l 63 424 z m 513 0 l 1215 972 l 1067 972 l 364 0 z m 1235 -7 b 1514 149 1376 -7 1514 44 b 1422 278 1514 204 1489 253 b 1510 399 1488 300 1510 344 b 1242 556 1510 500 1382 556 b 969 382 1097 556 969 496 l 1125 382 b 1244 432 1132 410 1153 432 l 1251 432 b 1357 385 1332 432 1357 413 b 1242 336 1357 354 1328 336 l 1128 336 l 1128 217 l 1243 217 b 1361 168 1332 217 1361 200 b 1242 117 1361 136 1335 117 l 1235 117 b 1115 169 1174 117 1118 136 l 960 169 b 1235 -7 960 56 1089 -7 z "},"¼":{"ha":1444,"x_min":0,"x_max":0,"o":"m 408 424 l 408 972 l 281 972 l 42 829 l 42 671 l 258 794 l 258 424 z m 344 0 l 1047 972 l 899 972 l 196 0 z m 1243 0 l 1243 100 l 1351 100 l 1351 218 l 1243 218 l 1243 549 l 1072 549 l 715 251 l 715 100 l 1103 100 l 1103 0 z m 1103 419 l 1103 218 l 860 218 z "},"¾":{"ha":1579,"x_min":0,"x_max":0,"o":"m 325 417 b 604 572 467 417 604 468 b 513 701 604 628 579 676 b 600 822 578 724 600 768 b 332 979 600 924 472 979 b 60 806 188 979 60 919 l 215 806 b 335 856 222 833 243 856 l 342 856 b 447 808 422 856 447 836 b 332 760 447 778 418 760 l 218 760 l 218 640 l 333 640 b 451 592 422 640 451 624 b 332 540 451 560 425 540 l 325 540 b 206 593 264 540 208 560 l 50 593 b 325 417 50 479 179 417 z m 510 0 l 1213 972 l 1064 972 l 361 0 z m 1408 0 l 1408 100 l 1517 100 l 1517 218 l 1408 218 l 1408 549 l 1238 549 l 881 251 l 881 100 l 1268 100 l 1268 0 z m 1268 419 l 1268 218 l 1025 218 z "},"⅕":{"ha":1417,"x_min":0,"x_max":0,"o":"m 408 424 l 408 972 l 281 972 l 42 829 l 42 671 l 258 794 l 258 424 z m 344 0 l 1047 972 l 899 972 l 196 0 z m 1056 -7 b 1324 189 1224 -7 1324 68 b 1104 365 1324 306 1218 365 b 956 333 1028 365 990 351 l 975 424 l 1314 424 l 1314 549 l 869 549 l 808 213 l 958 213 b 1057 244 972 236 1018 244 l 1063 244 b 1171 182 1143 244 1171 219 b 1060 117 1171 146 1140 117 l 1054 117 b 944 164 999 117 954 136 l 789 164 b 1056 -7 800 58 907 -7 z "},"⅖":{"ha":1556,"x_min":0,"x_max":0,"o":"m 601 424 l 601 549 l 296 549 l 451 629 b 606 813 565 689 606 746 b 342 979 606 889 533 979 b 60 797 178 979 67 908 l 214 797 b 326 854 215 829 249 854 l 332 854 b 443 799 413 854 443 831 b 368 726 443 771 419 756 l 63 557 l 63 424 z m 513 0 l 1215 972 l 1067 972 l 364 0 z m 1224 -7 b 1492 189 1392 -7 1492 68 b 1272 365 1492 306 1386 365 b 1124 333 1196 365 1158 351 l 1143 424 l 1482 424 l 1482 549 l 1038 549 l 976 213 l 1126 213 b 1225 244 1140 236 1186 244 l 1231 244 b 1339 182 1311 244 1339 219 b 1228 117 1339 146 1308 117 l 1222 117 b 1113 164 1167 117 1122 136 l 957 164 b 1224 -7 968 58 1075 -7 z "},"⅗":{"ha":1551,"x_min":0,"x_max":0,"o":"m 325 417 b 604 572 467 417 604 468 b 513 701 604 628 579 676 b 600 822 578 724 600 768 b 332 979 600 924 472 979 b 60 806 188 979 60 919 l 215 806 b 335 856 222 833 243 856 l 342 856 b 447 808 422 856 447 836 b 332 760 447 778 418 760 l 218 760 l 218 640 l 333 640 b 451 592 422 640 451 624 b 332 540 451 560 425 540 l 325 540 b 206 593 264 540 208 560 l 50 593 b 325 417 50 479 179 417 z m 510 0 l 1213 972 l 1064 972 l 361 0 z m 1221 -7 b 1489 189 1389 -7 1489 68 b 1269 365 1489 306 1383 365 b 1121 333 1193 365 1156 351 l 1140 424 l 1479 424 l 1479 549 l 1035 549 l 974 213 l 1124 213 b 1222 244 1138 236 1183 244 l 1228 244 b 1336 182 1308 244 1336 219 b 1225 117 1336 146 1306 117 l 1219 117 b 1110 164 1164 117 1119 136 l 954 164 b 1221 -7 965 58 1072 -7 z "},"⅘":{"ha":1594,"x_min":0,"x_max":0,"o":"m 569 424 l 569 524 l 678 524 l 678 642 l 569 642 l 569 972 l 399 972 l 42 675 l 42 524 l 429 524 l 429 424 z m 568 0 l 1271 972 l 1122 972 l 419 0 z m 429 843 l 429 642 l 186 642 z m 1279 -7 b 1547 189 1447 -7 1547 68 b 1328 365 1547 306 1442 365 b 1179 333 1251 365 1214 351 l 1199 424 l 1538 424 l 1538 549 l 1093 549 l 1032 213 l 1182 213 b 1281 244 1196 236 1242 244 l 1286 244 b 1394 182 1367 244 1394 219 b 1283 117 1394 146 1364 117 l 1278 117 b 1168 164 1222 117 1178 136 l 1013 164 b 1279 -7 1024 58 1131 -7 z "},"⅙":{"ha":1468,"x_min":0,"x_max":0,"o":"m 408 424 l 408 972 l 281 972 l 42 829 l 42 671 l 258 794 l 258 424 z m 344 0 l 1047 972 l 899 972 l 196 0 z m 1093 -7 b 1369 185 1256 -7 1369 74 b 1124 357 1369 286 1261 357 b 942 301 1039 357 983 336 b 1106 433 953 372 1003 433 l 1114 433 b 1228 390 1186 433 1218 414 l 1375 390 b 1121 556 1364 485 1272 556 b 797 247 914 556 797 438 b 1093 -7 797 92 915 -7 z m 1086 115 b 964 178 999 115 964 142 b 1086 239 964 213 1004 239 l 1092 239 b 1217 179 1179 239 1217 215 b 1092 115 1217 143 1179 115 z "},"⅚":{"ha":1579,"x_min":0,"x_max":0,"o":"m 313 417 b 581 613 481 417 581 492 b 361 789 581 729 475 789 b 213 757 285 789 247 775 l 232 847 l 571 847 l 571 972 l 126 972 l 65 636 l 215 636 b 314 668 229 660 275 668 l 319 668 b 428 606 400 668 428 643 b 317 540 428 569 397 540 l 311 540 b 201 588 256 540 211 560 l 46 588 b 313 417 57 482 164 417 z m 486 0 l 1189 972 l 1040 972 l 338 0 z m 1235 -7 b 1511 185 1397 -7 1511 74 b 1265 357 1511 286 1403 357 b 1083 301 1181 357 1125 336 b 1247 433 1094 372 1144 433 l 1256 433 b 1369 390 1328 433 1360 414 l 1517 390 b 1263 556 1506 485 1414 556 b 939 247 1056 556 939 438 b 1235 -7 939 92 1057 -7 z m 1228 115 b 1106 178 1140 115 1106 142 b 1228 239 1106 213 1146 239 l 1233 239 b 1358 179 1321 239 1358 215 b 1233 115 1358 143 1321 115 z "},"⅛":{"ha":1426,"x_min":0,"x_max":0,"o":"m 408 424 l 408 972 l 281 972 l 42 829 l 42 671 l 258 794 l 258 424 z m 344 0 l 1047 972 l 899 972 l 196 0 z m 1068 -7 b 1324 150 1218 -7 1324 57 b 1211 269 1324 204 1283 251 b 1333 406 1285 292 1333 333 b 1068 556 1333 501 1213 556 b 801 406 924 556 801 501 b 922 269 801 333 850 292 b 810 150 851 251 810 204 b 1068 -7 810 57 918 -7 z m 1067 331 b 954 382 999 331 954 349 b 1067 433 954 415 999 433 l 1074 433 b 1181 382 1140 433 1181 415 b 1074 331 1181 349 1140 331 z m 1064 115 b 963 164 996 115 963 135 b 1064 214 963 193 996 214 l 1071 214 b 1171 164 1143 214 1171 193 b 1071 115 1171 135 1143 115 z "},"⅜":{"ha":1561,"x_min":0,"x_max":0,"o":"m 325 417 b 604 572 467 417 604 468 b 513 701 604 628 579 676 b 600 822 578 724 600 768 b 332 979 600 924 472 979 b 60 806 188 979 60 919 l 215 806 b 335 856 222 833 243 856 l 342 856 b 447 808 422 856 447 836 b 332 760 447 778 418 760 l 218 760 l 218 640 l 333 640 b 451 592 422 640 451 624 b 332 540 451 560 425 540 l 325 540 b 206 593 264 540 208 560 l 50 593 b 325 417 50 479 179 417 z m 510 0 l 1213 972 l 1064 972 l 361 0 z m 1233 -7 b 1489 150 1383 -7 1489 57 b 1376 269 1489 204 1449 251 b 1499 406 1450 292 1499 333 b 1233 556 1499 501 1378 556 b 967 406 1089 556 967 501 b 1088 269 967 333 1015 292 b 975 150 1017 251 975 204 b 1233 -7 975 57 1083 -7 z m 1232 331 b 1119 382 1164 331 1119 349 b 1232 433 1119 415 1164 433 l 1239 433 b 1346 382 1306 433 1346 415 b 1239 331 1346 349 1306 331 z m 1229 115 b 1128 164 1161 115 1128 135 b 1229 214 1128 193 1161 214 l 1236 214 b 1336 164 1308 214 1336 193 b 1236 115 1336 135 1308 115 z "},"⅝":{"ha":1538,"x_min":0,"x_max":0,"o":"m 313 417 b 581 613 481 417 581 492 b 361 789 581 729 475 789 b 213 757 285 789 247 775 l 232 847 l 571 847 l 571 972 l 126 972 l 65 636 l 215 636 b 314 668 229 660 275 668 l 319 668 b 428 606 400 668 428 643 b 317 540 428 569 397 540 l 311 540 b 201 588 256 540 211 560 l 46 588 b 313 417 57 482 164 417 z m 486 0 l 1189 972 l 1040 972 l 338 0 z m 1210 -7 b 1465 150 1360 -7 1465 57 b 1353 269 1465 204 1425 251 b 1475 406 1426 292 1475 333 b 1210 556 1475 501 1354 556 b 943 406 1065 556 943 501 b 1064 269 943 333 992 292 b 951 150 993 251 951 204 b 1210 -7 951 57 1060 -7 z m 1208 331 b 1096 382 1140 331 1096 349 b 1208 433 1096 415 1140 433 l 1215 433 b 1322 382 1282 433 1322 415 b 1215 331 1322 349 1282 331 z m 1206 115 b 1104 164 1138 115 1104 135 b 1206 214 1104 193 1138 214 l 1213 214 b 1313 164 1285 214 1313 193 b 1213 115 1313 135 1285 115 z "},"⅞":{"ha":1400,"x_min":0,"x_max":0,"o":"m 314 424 l 314 449 b 588 861 314 618 368 725 l 588 972 l 33 972 l 33 844 l 392 844 b 151 442 207 707 151 607 l 151 424 z m 386 0 l 1089 972 l 940 972 l 238 0 z m 1110 -7 b 1365 150 1260 -7 1365 57 b 1253 269 1365 204 1325 251 b 1375 406 1326 292 1375 333 b 1110 556 1375 501 1254 556 b 843 406 965 556 843 501 b 964 269 843 333 892 292 b 851 150 893 251 851 204 b 1110 -7 851 57 960 -7 z m 1108 331 b 996 382 1040 331 996 349 b 1108 433 996 415 1040 433 l 1115 433 b 1222 382 1182 433 1222 415 b 1115 331 1222 349 1182 331 z m 1106 115 b 1004 164 1038 115 1004 135 b 1106 214 1004 193 1038 214 l 1113 214 b 1213 164 1185 214 1213 193 b 1113 115 1213 135 1185 115 z "},"Ⅰ":{"ha":921,"x_min":0,"x_max":0,"o":"m 839 0 l 839 149 l 553 149 l 553 824 l 839 824 l 839 972 l 82 972 l 82 824 l 367 824 l 367 149 l 82 149 l 82 0 z "},"Ⅱ":{"ha":1511,"x_min":0,"x_max":0,"o":"m 1429 0 l 1429 149 l 1143 149 l 1143 824 l 1429 824 l 1429 972 l 82 972 l 82 824 l 367 824 l 367 149 l 82 149 l 82 0 z m 553 824 l 957 824 l 957 149 l 553 149 z "},"Ⅲ":{"ha":2101,"x_min":0,"x_max":0,"o":"m 2019 0 l 2019 149 l 1733 149 l 1733 824 l 2019 824 l 2019 972 l 82 972 l 82 824 l 367 824 l 367 149 l 82 149 l 82 0 z m 553 824 l 957 824 l 957 149 l 553 149 z m 1143 824 l 1547 824 l 1547 149 l 1143 149 z "},"Ⅳ":{"ha":2104,"x_min":0,"x_max":0,"o":"m 1761 0 l 1761 149 l 1496 149 l 1818 824 l 2053 824 l 2053 972 l 1428 972 l 1428 824 l 1628 824 l 1314 163 l 1004 824 l 1199 824 l 1199 972 l 94 972 l 94 824 l 379 824 l 379 149 l 94 149 l 94 0 z m 565 824 l 810 824 l 1128 149 l 565 149 z "},"Ⅴ":{"ha":1583,"x_min":0,"x_max":0,"o":"m 1240 0 l 1240 149 l 975 149 l 1297 824 l 1532 824 l 1532 972 l 907 972 l 907 824 l 1107 824 l 793 163 l 483 824 l 678 824 l 678 972 l 53 972 l 53 824 l 289 824 l 607 149 l 331 149 l 331 0 z "},"Ⅵ":{"ha":2107,"x_min":0,"x_max":0,"o":"m 2013 0 l 2013 149 l 1726 149 l 1726 824 l 2013 824 l 2013 972 l 907 972 l 907 824 l 1107 824 l 793 163 l 483 824 l 678 824 l 678 972 l 53 972 l 53 824 l 289 824 l 607 149 l 331 149 l 331 0 z m 1297 824 l 1540 824 l 1540 149 l 975 149 z "},"Ⅶ":{"ha":2697,"x_min":0,"x_max":0,"o":"m 2603 0 l 2603 149 l 2317 149 l 2317 824 l 2603 824 l 2603 972 l 907 972 l 907 824 l 1107 824 l 793 163 l 483 824 l 678 824 l 678 972 l 53 972 l 53 824 l 289 824 l 607 149 l 331 149 l 331 0 z m 1297 824 l 1540 824 l 1540 149 l 975 149 z m 1726 824 l 2131 824 l 2131 149 l 1726 149 z "},"Ⅷ":{"ha":3286,"x_min":0,"x_max":0,"o":"m 3192 0 l 3192 149 l 2906 149 l 2906 824 l 3192 824 l 3192 972 l 907 972 l 907 824 l 1107 824 l 793 163 l 483 824 l 678 824 l 678 972 l 53 972 l 53 824 l 289 824 l 607 149 l 331 149 l 331 0 z m 1292 824 l 1539 824 l 1539 149 l 971 149 z m 1725 824 l 2129 824 l 2129 149 l 1725 149 z m 2315 824 l 2719 824 l 2719 149 l 2315 149 z "},"Ⅸ":{"ha":2096,"x_min":0,"x_max":0,"o":"m 2011 0 l 2011 149 l 1785 149 l 1428 490 l 1776 824 l 2011 824 l 2011 972 l 82 972 l 82 824 l 367 824 l 367 149 l 82 149 l 82 0 z m 553 824 l 821 824 l 1174 486 l 821 149 l 553 149 z m 1072 824 l 1532 824 l 1303 597 z m 1299 379 l 1533 149 l 1064 149 z "},"Ⅹ":{"ha":1589,"x_min":0,"x_max":0,"o":"m 1511 0 l 1511 149 l 1282 149 l 925 490 l 1274 824 l 1497 824 l 1497 972 l 93 972 l 93 824 l 318 824 l 671 486 l 318 149 l 79 149 l 79 0 z m 569 824 l 1029 824 l 800 597 z m 796 379 l 1031 149 l 561 149 z "},"Ⅼ":{"ha":1368,"x_min":0,"x_max":0,"o":"m 1307 0 l 1307 375 l 1121 375 l 1121 149 l 540 149 l 540 824 l 811 824 l 811 972 l 82 972 l 82 824 l 354 824 l 354 149 l 82 149 l 82 0 z "},"Ⅽ":{"ha":1414,"x_min":0,"x_max":0,"o":"m 678 -14 b 1113 94 808 -14 1000 18 l 1113 0 l 1299 0 l 1299 319 l 1121 319 b 726 135 1075 194 893 135 l 713 135 b 267 492 429 135 267 264 b 715 838 267 708 435 838 l 729 838 b 1128 653 885 838 1093 779 l 1306 653 l 1306 972 l 1119 972 l 1119 886 b 699 986 1008 956 858 986 b 78 486 354 986 78 799 b 678 -14 78 174 329 -14 z "},"Ⅾ":{"ha":1546,"x_min":0,"x_max":0,"o":"m 850 0 b 1468 490 1206 0 1468 181 b 850 972 1468 792 1206 972 l 82 972 l 82 824 l 353 824 l 353 149 l 82 149 l 82 0 z m 539 824 l 832 824 b 1279 492 1114 824 1279 703 b 832 149 1279 281 1114 149 l 539 149 z "},"Ⅿ":{"ha":2117,"x_min":0,"x_max":0,"o":"m 701 0 l 701 149 l 536 149 l 536 806 l 969 0 l 1153 0 l 1581 806 l 1581 149 l 1415 149 l 1415 0 l 2035 0 l 2035 149 l 1767 149 l 1767 824 l 2035 824 l 2035 972 l 1474 972 l 1064 196 l 650 972 l 82 972 l 82 824 l 350 824 l 350 149 l 82 149 l 82 0 z "},".":{"ha":428,"x_min":0,"x_max":0,"o":"m 325 0 l 325 204 l 103 204 l 103 0 z "},",":{"ha":447,"x_min":0,"x_max":0,"o":"m 146 -208 b 339 -21 271 -208 339 -118 l 339 204 l 114 204 l 114 0 l 219 0 l 219 -14 b 139 -99 219 -62 201 -99 l 43 -99 l 43 -208 z "},":":{"ha":428,"x_min":0,"x_max":0,"o":"m 325 490 l 325 694 l 103 694 l 103 490 z m 325 0 l 325 204 l 103 204 l 103 0 z "},";":{"ha":472,"x_min":0,"x_max":0,"o":"m 356 490 l 356 694 l 133 694 l 133 490 z m 163 -208 b 356 -21 288 -208 356 -118 l 356 204 l 131 204 l 131 0 l 236 0 l 236 -14 b 156 -99 236 -62 218 -99 l 60 -99 l 60 -208 z "},"…":{"ha":1275,"x_min":0,"x_max":0,"o":"m 325 0 l 325 204 l 103 204 l 103 0 z m 749 0 l 749 204 l 526 204 l 526 0 z m 1172 0 l 1172 204 l 950 204 l 950 0 z "},"!":{"ha":444,"x_min":0,"x_max":0,"o":"m 271 264 l 321 646 l 321 972 l 124 972 l 124 646 l 174 264 z m 335 0 l 335 204 l 107 204 l 107 0 z "},"¡":{"ha":425,"x_min":0,"x_max":0,"o":"m 100 694 l 100 490 l 328 490 l 328 694 z m 164 431 l 114 49 l 114 -278 l 311 -278 l 311 49 l 261 431 z "},"?":{"ha":931,"x_min":0,"x_max":0,"o":"m 400 278 l 400 390 b 461 439 400 425 415 439 l 582 439 b 874 707 761 439 874 558 b 572 972 874 867 754 972 l 65 972 l 65 800 l 560 800 b 679 706 643 800 679 758 b 565 604 679 644 636 604 l 381 604 b 215 426 282 604 215 554 l 215 278 z m 421 0 l 421 204 l 193 204 l 193 0 z "},"¿":{"ha":918,"x_min":0,"x_max":0,"o":"m 504 694 l 504 490 l 732 490 l 732 694 z m 525 417 l 525 304 b 464 256 525 269 510 256 l 343 256 b 51 -12 164 256 51 136 b 353 -278 51 -172 171 -278 l 860 -278 l 860 -106 l 365 -106 b 246 -11 282 -106 246 -64 b 360 90 246 50 289 90 l 544 90 b 710 268 643 90 710 140 l 710 417 z "},"·":{"ha":428,"x_min":0,"x_max":0,"o":"m 325 382 l 325 586 l 103 586 l 103 382 z "},"•":{"ha":867,"x_min":0,"x_max":0,"o":"m 433 201 b 746 486 619 201 746 329 b 433 771 746 643 619 771 b 121 486 247 771 121 643 b 433 201 121 329 247 201 z "},"*":{"ha":781,"x_min":0,"x_max":0,"o":"m 389 700 l 506 554 l 617 638 l 529 746 l 708 746 l 708 876 l 529 876 l 617 985 l 506 1068 l 389 922 l 271 1068 l 160 985 l 247 876 l 74 876 l 74 746 l 247 746 l 160 638 l 271 554 z "},"#":{"ha":1382,"x_min":0,"x_max":0,"o":"m 1315 751 l 1110 751 l 1181 972 l 1004 972 l 933 751 l 617 751 l 688 972 l 511 972 l 440 751 l 140 751 l 140 586 l 388 586 l 322 383 l 67 383 l 67 218 l 268 218 l 199 0 l 375 0 l 444 218 l 761 218 l 692 0 l 868 0 l 938 218 l 1243 218 l 1243 383 l 992 383 l 1057 586 l 1315 586 z m 499 383 l 564 586 l 881 586 l 815 383 z "},"/":{"ha":860,"x_min":0,"x_max":0,"o":"m 247 0 l 808 972 l 611 972 l 50 0 z "},"\\":{"ha":867,"x_min":0,"x_max":0,"o":"m 818 0 l 251 972 l 51 972 l 618 0 z "},"(":{"ha":722,"x_min":0,"x_max":0,"o":"m 679 -50 b 256 486 357 -1 256 225 b 679 1022 256 747 357 974 l 679 1174 b 67 486 239 1135 67 807 b 679 -201 67 164 235 -172 z "},")":{"ha":722,"x_min":0,"x_max":0,"o":"m 43 1022 b 467 486 365 974 467 747 b 43 -50 467 225 365 -1 l 43 -201 b 656 486 483 -162 656 165 b 43 1174 656 808 488 1144 z "},"{":{"ha":660,"x_min":0,"x_max":0,"o":"m 611 -201 l 611 -50 l 433 -50 b 389 10 394 -50 389 -39 l 389 354 b 278 472 389 444 340 472 l 239 472 l 239 500 l 278 500 b 389 618 340 500 389 521 l 389 963 b 433 1022 389 1011 394 1022 l 611 1022 l 611 1174 l 389 1174 b 201 958 254 1174 201 1104 l 201 646 b 146 585 201 604 190 585 l 56 585 l 56 388 l 146 388 b 201 326 190 388 201 368 l 201 14 b 389 -201 201 -132 254 -201 z "},"}":{"ha":658,"x_min":0,"x_max":0,"o":"m 47 1175 l 47 1024 l 225 1024 b 269 964 264 1024 269 1013 l 269 619 b 381 501 269 529 318 501 l 419 501 l 419 474 l 381 474 b 269 356 318 474 269 453 l 269 11 b 225 -49 269 -37 264 -49 l 47 -49 l 47 -200 l 269 -200 b 457 15 404 -200 457 -131 l 457 328 b 513 389 457 369 468 389 l 603 389 l 603 586 l 513 586 b 457 647 468 586 457 606 l 457 960 b 269 1175 457 1106 404 1175 z "},"[":{"ha":638,"x_min":0,"x_max":0,"o":"m 592 -201 l 592 -50 l 315 -50 l 315 1022 l 592 1022 l 592 1174 l 128 1174 l 128 -201 z "},"]":{"ha":638,"x_min":0,"x_max":0,"o":"m 46 1174 l 46 1022 l 322 1022 l 322 -50 l 46 -50 l 46 -201 l 510 -201 l 510 1174 z "},"":{"ha":632,"x_min":0,"x_max":0,"o":"m 678 -201 l 678 -53 l 403 -53 b 340 -6 367 -53 340 -36 l 340 6 b 403 56 340 36 367 56 l 546 56 l 546 204 l 364 204 b 278 282 308 204 278 226 l 278 690 b 364 768 278 746 308 768 l 546 768 l 546 917 l 404 917 b 340 965 368 917 340 935 l 340 976 b 404 1025 340 1007 368 1025 l 678 1025 l 678 1174 l 349 1174 b 151 1000 244 1174 151 1111 b 204 882 151 958 167 922 b 89 724 113 863 89 789 l 89 249 b 204 97 89 183 113 117 b 151 -28 164 54 151 14 b 351 -201 151 -139 247 -201 z "},"":{"ha":632,"x_min":0,"x_max":0,"o":"m -46 1174 l -46 1025 l 229 1025 b 292 978 265 1025 292 1008 l 292 967 b 229 917 292 936 265 917 l 86 917 l 86 768 l 268 768 b 354 690 324 768 354 746 l 354 282 b 268 204 354 226 324 204 l 86 204 l 86 56 l 228 56 b 292 7 264 56 292 38 l 292 -4 b 228 -53 292 -35 264 -53 l -46 -53 l -46 -201 l 283 -201 b 481 -28 388 -201 481 -139 b 428 90 481 14 465 50 b 543 249 519 110 543 183 l 543 724 b 428 875 543 789 519 856 b 481 1000 468 918 481 958 b 281 1174 481 1111 385 1174 z "},"〈":{"ha":690,"x_min":0,"x_max":0,"o":"m 683 -118 l 214 489 l 683 1090 l 485 1090 l 11 486 l 485 -118 z "},"〉":{"ha":690,"x_min":0,"x_max":0,"o":"m 7 1090 l 476 483 l 7 -118 l 206 -118 l 679 486 l 206 1090 z "},"【":{"ha":710,"x_min":0,"x_max":0,"o":"m 722 -201 b 314 488 433 1 314 253 b 722 1174 314 726 436 976 l 128 1174 l 128 -201 z "},"】":{"ha":711,"x_min":0,"x_max":0,"o":"m -11 1175 b 397 486 278 972 397 721 b -11 -200 397 247 275 -3 l 583 -200 l 583 1175 z "},"「":{"ha":576,"x_min":0,"x_max":0,"o":"m 278 536 l 278 1022 l 549 1022 l 549 1174 l 90 1174 l 90 536 z "},"」":{"ha":604,"x_min":0,"x_max":0,"o":"m 333 436 l 333 -50 l 63 -50 l 63 -201 l 521 -201 l 521 436 z "},"《":{"ha":1028,"x_min":0,"x_max":0,"o":"m 679 -118 l 213 489 l 679 1090 l 482 1090 l 11 486 l 482 -118 z m 1019 -118 l 553 489 l 1019 1090 l 822 1090 l 351 486 l 822 -118 z "},"》":{"ha":1028,"x_min":0,"x_max":0,"o":"m 8 1090 l 475 483 l 8 -118 l 206 -118 l 676 486 l 206 1090 z m 349 1090 l 815 483 l 349 -118 l 546 -118 l 1017 486 l 546 1090 z "},"〔":{"ha":635,"x_min":0,"x_max":0,"o":"m 646 -201 l 289 64 l 289 908 l 646 1174 l 400 1174 l 100 951 l 100 21 l 400 -201 z "},"〕":{"ha":635,"x_min":0,"x_max":0,"o":"m -11 1175 l 346 910 l 346 65 l -11 -200 l 235 -200 l 535 22 l 535 953 l 235 1175 z "},"『":{"ha":729,"x_min":0,"x_max":0,"o":"m 421 422 l 421 894 l 701 894 l 701 1174 l 83 1174 l 83 422 z m 201 1072 l 583 1072 l 583 996 l 303 996 l 303 524 l 201 524 z "},"』":{"ha":757,"x_min":0,"x_max":0,"o":"m 329 550 l 329 78 l 49 78 l 49 -201 l 667 -201 l 667 550 z m 549 -100 l 167 -100 l 167 -24 l 447 -24 l 447 449 l 549 449 z "},"-":{"ha":765,"x_min":0,"x_max":0,"o":"m 663 343 l 663 497 l 103 497 l 103 343 z "},"­":{"ha":765,"x_min":0,"x_max":0,"o":"m 663 343 l 663 497 l 103 497 l 103 343 z "},"–":{"ha":1136,"x_min":0,"x_max":0,"o":"m 1033 343 l 1033 497 l 103 497 l 103 343 z "},"—":{"ha":1803,"x_min":0,"x_max":0,"o":"m 1700 343 l 1700 497 l 103 497 l 103 343 z "},"―":{"ha":1803,"x_min":0,"x_max":0,"o":"m 1700 343 l 1700 497 l 103 497 l 103 343 z "},"_":{"ha":1133,"x_min":0,"x_max":0,"o":"m 1039 -149 l 1039 0 l 94 0 l 94 -149 z "},"‚":{"ha":447,"x_min":0,"x_max":0,"o":"m 146 -208 b 339 -21 271 -208 339 -118 l 339 204 l 114 204 l 114 0 l 219 0 l 219 -14 b 139 -99 219 -62 201 -99 l 43 -99 l 43 -208 z "},"„":{"ha":800,"x_min":0,"x_max":0,"o":"m 146 -208 b 336 -21 271 -208 336 -118 l 336 204 l 114 204 l 114 0 l 222 0 l 222 -14 b 139 -101 222 -62 201 -101 l 33 -101 l 33 -208 z m 501 -208 b 692 -21 626 -208 692 -118 l 692 204 l 469 204 l 469 0 l 578 0 l 578 -14 b 494 -101 578 -62 557 -101 l 389 -101 l 389 -208 z "},"“":{"ha":831,"x_min":0,"x_max":0,"o":"m 294 986 b 104 799 169 986 104 896 l 104 574 l 326 574 l 326 778 l 218 778 l 218 792 b 301 879 218 840 239 879 l 407 879 l 407 986 z m 650 986 b 460 799 525 986 460 896 l 460 574 l 682 574 l 682 778 l 574 778 l 574 792 b 657 879 574 840 594 879 l 763 879 l 763 986 z "},"”":{"ha":831,"x_min":0,"x_max":0,"o":"m 197 597 b 388 785 322 597 388 688 l 388 1010 l 165 1010 l 165 806 l 274 806 l 274 792 b 190 704 274 743 253 704 l 85 704 l 85 597 z m 553 597 b 743 785 678 597 743 688 l 743 1010 l 521 1010 l 521 806 l 629 806 l 629 792 b 546 704 629 743 608 704 l 440 704 l 440 597 z "},"‘":{"ha":474,"x_min":0,"x_max":0,"o":"m 297 986 b 104 799 172 986 104 896 l 104 574 l 329 574 l 329 778 l 224 778 l 224 792 b 304 876 224 840 242 876 l 400 876 l 400 986 z "},"’":{"ha":471,"x_min":0,"x_max":0,"o":"m 190 597 b 383 785 315 597 383 688 l 383 1010 l 158 1010 l 158 806 l 264 806 l 264 792 b 183 707 264 743 246 707 l 88 707 l 88 597 z "},"«":{"ha":1038,"x_min":0,"x_max":0,"o":"m 358 694 l 50 396 l 358 97 l 599 97 l 286 397 l 594 694 z m 976 694 l 740 694 l 432 396 l 740 97 l 981 97 l 668 397 z "},"»":{"ha":1036,"x_min":0,"x_max":0,"o":"m 56 694 l 368 394 l 60 97 l 296 97 l 604 396 l 296 694 z m 438 694 l 750 394 l 442 97 l 678 97 l 986 396 l 678 694 z "},"‹":{"ha":656,"x_min":0,"x_max":0,"o":"m 594 694 l 358 694 l 50 396 l 358 97 l 599 97 l 286 397 z "},"›":{"ha":656,"x_min":0,"x_max":0,"o":"m 61 694 l 369 397 l 57 97 l 297 97 l 606 396 l 297 694 z "},"\"":{"ha":586,"x_min":0,"x_max":0,"o":"m 211 639 l 258 826 l 258 972 l 93 972 l 93 826 l 140 639 z m 446 639 l 493 826 l 493 972 l 328 972 l 328 826 l 375 639 z "},"'":{"ha":351,"x_min":0,"x_max":0,"o":"m 211 639 l 258 826 l 258 972 l 93 972 l 93 826 l 140 639 z "}," ":{"ha":104,"x_min":0,"x_max":0,"o":""}," ":{"ha":174,"x_min":0,"x_max":0,"o":""}," ":{"ha":411,"x_min":0,"x_max":0,"o":""}," ":{"ha":694,"x_min":0,"x_max":0,"o":""}," ":{"ha":1389,"x_min":0,"x_max":0,"o":""},"₿":{"ha":1269,"x_min":0,"x_max":0,"o":"m 1015 501 b 1160 715 1089 532 1160 606 b 857 972 1160 868 1033 964 l 857 1139 l 715 1139 l 715 972 l 507 972 l 507 1139 l 365 1139 l 365 972 l 131 972 l 131 0 l 365 0 l 365 -167 l 507 -167 l 507 0 l 715 0 l 715 -167 l 857 -167 l 857 0 l 860 0 b 1188 267 1047 0 1188 101 b 1015 501 1188 389 1107 476 z m 804 800 b 958 690 906 800 958 760 b 804 579 958 619 906 579 l 328 579 l 328 800 z m 328 172 l 328 407 l 818 407 b 986 290 926 407 986 365 b 818 172 986 207 926 172 z "},"¢":{"ha":1035,"x_min":0,"x_max":0,"o":"m 646 538 b 763 451 704 525 746 497 l 965 451 b 685 693 949 567 847 658 l 726 861 l 576 861 l 539 708 l 532 708 b 68 347 243 708 68 551 b 364 6 68 183 172 53 l 321 -167 l 471 -167 l 508 -14 l 532 -14 b 964 243 813 -14 942 110 l 761 243 b 549 147 747 186 663 147 z m 264 347 b 499 547 264 451 339 539 l 403 165 b 264 347 308 196 264 268 z "},"¤":{"ha":1258,"x_min":0,"x_max":0,"o":"m 1101 424 b 1047 594 1101 486 1082 544 l 1175 722 l 1050 847 l 913 715 b 626 785 833 760 733 785 b 346 718 521 785 424 760 l 210 847 l 85 722 l 208 599 b 151 424 172 547 151 489 b 213 240 151 356 174 293 l 85 118 l 210 -7 l 347 124 b 626 56 425 81 522 56 b 910 126 733 56 831 82 l 1050 -7 l 1175 118 l 1043 244 b 1101 424 1081 297 1101 358 z m 621 221 b 344 424 453 221 344 300 b 621 619 344 543 453 619 l 632 619 b 908 424 800 619 908 543 b 632 221 908 300 800 221 z "},"$":{"ha":1204,"x_min":0,"x_max":0,"o":"m 701 576 l 747 800 b 917 667 849 776 906 726 l 1138 667 b 783 972 1124 822 1007 933 l 818 1139 l 653 1139 l 621 986 l 600 986 b 118 704 256 986 118 851 b 500 408 118 524 219 444 l 501 408 l 451 171 b 271 326 325 196 278 260 l 58 326 b 417 -1 63 156 171 38 l 382 -167 l 547 -167 l 579 -14 l 604 -14 b 1110 289 951 -14 1110 99 b 740 572 1110 453 992 542 z m 510 600 b 319 700 354 618 319 650 b 585 814 319 765 396 814 l 540 596 z m 615 158 l 663 389 l 738 379 b 903 272 872 363 903 324 b 617 158 903 215 847 158 z "},"€":{"ha":1372,"x_min":0,"x_max":0,"o":"m 771 151 b 501 250 656 151 563 186 l 772 292 l 772 447 l 426 396 b 417 486 419 424 417 454 l 839 550 l 839 706 l 450 647 b 771 821 503 758 615 821 l 785 821 b 1094 667 969 821 1075 768 l 1293 667 b 779 986 1265 867 1072 986 b 238 615 490 986 290 849 l 75 592 l 75 433 l 224 456 b 235 367 225 425 229 396 l 75 343 l 75 185 l 292 218 b 779 -14 381 68 553 -14 b 1293 306 1072 -14 1265 106 l 1094 306 b 785 151 1075 204 969 151 z "},"ƒ":{"ha":836,"x_min":0,"x_max":0,"o":"m 807 807 l 807 972 l 592 972 b 329 708 426 972 365 894 l 318 650 l 92 650 l 92 489 l 286 489 l 189 -18 b 76 -112 176 -86 154 -112 l -103 -112 l -103 -278 l 110 -278 b 382 -14 278 -278 346 -201 l 478 489 l 754 489 l 754 650 l 508 650 l 521 713 b 626 807 535 782 551 807 z "},"£":{"ha":1058,"x_min":0,"x_max":0,"o":"m 399 165 b 460 276 444 196 453 228 l 476 401 l 738 449 l 738 604 l 499 561 l 514 674 b 636 807 529 782 557 807 l 933 807 l 933 972 l 638 972 b 328 681 431 972 357 894 l 307 526 l 74 483 l 74 328 l 285 367 l 268 249 b 181 165 260 190 240 165 l 74 165 l 74 0 l 994 0 l 994 165 z "},"₩":{"ha":1706,"x_min":0,"x_max":0,"o":"m 1481 972 l 1342 546 l 1128 546 l 976 972 l 733 972 l 583 546 l 372 546 l 229 972 l 19 972 l 165 546 l 33 546 l 33 407 l 214 407 l 353 0 l 588 0 l 732 407 l 974 407 l 1119 0 l 1353 0 l 1492 407 l 1672 407 l 1672 546 l 1540 546 l 1686 972 z m 853 746 l 924 546 l 782 546 z m 418 407 l 533 407 l 475 239 z m 1178 407 l 1297 407 l 1240 232 z "},"¥":{"ha":1265,"x_min":0,"x_max":0,"o":"m 963 972 l 639 597 l 318 972 l 56 972 l 444 528 l 193 488 l 193 332 l 539 388 l 539 304 l 240 257 l 240 101 l 539 149 l 539 0 l 736 0 l 736 179 l 1028 225 l 1028 381 l 736 335 l 736 419 l 1078 474 l 1078 629 l 892 600 l 1218 972 z "},"∙":{"ha":944,"x_min":0,"x_max":0,"o":"m 472 201 b 785 486 658 201 785 329 b 472 771 785 643 658 771 b 160 486 286 771 160 643 b 472 201 160 329 286 201 z "},"∕":{"ha":842,"x_min":0,"x_max":0,"o":"m 242 0 l 803 972 l 606 972 l 44 0 z "},"+":{"ha":1049,"x_min":0,"x_max":0,"o":"m 619 21 l 619 276 l 978 276 l 978 439 l 619 439 l 619 694 l 429 694 l 429 439 l 71 439 l 71 276 l 429 276 l 429 21 z "},"−":{"ha":1169,"x_min":0,"x_max":0,"o":"m 1060 276 l 1060 439 l 110 439 l 110 276 z "},"×":{"ha":943,"x_min":0,"x_max":0,"o":"m 610 354 l 858 535 l 764 667 l 472 454 l 179 668 l 83 533 l 332 351 l 83 169 l 178 39 l 469 251 l 763 38 l 860 172 z "},"÷":{"ha":1133,"x_min":0,"x_max":0,"o":"m 667 499 l 667 689 l 467 689 l 467 499 z m 1049 276 l 1049 439 l 85 439 l 85 276 z m 667 26 l 667 217 l 467 217 l 467 26 z "},"=":{"ha":1172,"x_min":0,"x_max":0,"o":"m 1061 415 l 1061 578 l 111 578 l 111 415 z m 1061 138 l 1061 300 l 111 300 l 111 138 z "},"≠":{"ha":1172,"x_min":0,"x_max":0,"o":"m 1061 578 l 781 578 l 835 694 l 650 694 l 596 578 l 111 578 l 111 415 l 521 415 l 468 300 l 111 300 l 111 138 l 393 138 l 339 21 l 524 21 l 578 138 l 1061 138 l 1061 300 l 653 300 l 706 415 l 1061 415 z "},">":{"ha":1040,"x_min":0,"x_max":0,"o":"m 104 490 l 678 356 l 104 219 l 104 36 l 972 272 l 972 442 l 104 678 z "},"<":{"ha":1043,"x_min":0,"x_max":0,"o":"m 69 440 l 69 271 l 938 35 l 938 222 l 364 358 l 938 493 l 938 676 z "},"≥":{"ha":1197,"x_min":0,"x_max":0,"o":"m 107 553 l 793 456 l 107 358 l 107 182 l 1099 344 l 1099 569 l 107 732 z m 1099 0 l 1099 160 l 107 160 l 107 0 z "},"≤":{"ha":1197,"x_min":0,"x_max":0,"o":"m 99 572 l 99 344 l 1090 182 l 1090 364 l 414 460 l 1090 556 l 1090 735 z m 1090 0 l 1090 163 l 99 163 l 99 0 z "},"±":{"ha":1178,"x_min":0,"x_max":0,"o":"m 683 236 l 683 381 l 1071 381 l 1071 543 l 683 543 l 683 694 l 493 694 l 493 543 l 107 543 l 107 381 l 493 381 l 493 236 z m 1071 0 l 1071 161 l 107 161 l 107 0 z "},"≈":{"ha":1147,"x_min":0,"x_max":0,"o":"m 840 386 b 1033 557 944 386 1033 460 l 1033 613 l 847 613 b 792 560 847 578 826 560 b 306 626 736 560 417 626 b 115 456 201 626 115 553 l 115 400 l 301 400 b 357 453 301 435 322 453 b 840 386 413 453 743 386 z m 840 83 b 1033 254 944 83 1033 157 l 1033 310 l 847 310 b 792 257 847 275 826 257 b 311 324 736 257 422 324 b 115 153 207 324 115 250 l 115 97 l 301 97 b 357 150 301 132 322 150 b 840 83 413 150 743 83 z "},"¬":{"ha":1118,"x_min":0,"x_max":0,"o":"m 1000 160 l 1000 507 l 110 507 l 110 344 l 810 344 l 810 160 z "},"~":{"ha":939,"x_min":0,"x_max":0,"o":"m 689 472 b 835 631 790 472 835 544 l 835 667 l 696 667 b 654 611 696 635 682 611 b 563 624 636 611 603 614 l 392 663 b 258 681 346 672 304 681 b 118 522 161 681 118 608 l 118 486 l 256 486 b 299 542 257 528 269 542 b 400 525 321 542 358 533 l 567 489 b 689 472 613 479 642 472 z "},"^":{"ha":1042,"x_min":0,"x_max":0,"o":"m 603 972 l 425 972 l 57 396 l 253 396 l 514 797 l 786 396 l 985 396 z "},"∞":{"ha":1639,"x_min":0,"x_max":0,"o":"m 424 233 b 819 376 604 233 725 286 b 1215 233 914 286 1033 233 b 1558 500 1421 233 1558 347 b 1215 767 1558 653 1421 767 b 819 624 1035 767 914 714 b 424 767 725 714 606 767 b 81 500 218 767 81 653 b 424 233 81 347 218 233 z m 436 381 b 260 500 336 381 260 424 b 436 619 260 576 336 619 l 443 619 b 717 497 539 619 625 582 b 443 381 635 421 538 381 z m 1196 381 b 922 503 1100 381 1014 418 b 1196 619 1004 579 1101 619 l 1203 619 b 1379 500 1303 619 1379 576 b 1203 381 1379 424 1303 381 z "},"∫":{"ha":797,"x_min":0,"x_max":0,"o":"m 235 -139 b 506 111 415 -139 506 -69 l 506 699 b 617 810 506 782 533 810 l 772 810 l 772 972 l 586 972 b 317 722 406 972 317 903 l 317 135 b 206 24 317 51 289 24 l 22 24 l 22 -139 z "},"Ω":{"ha":1500,"x_min":0,"x_max":0,"o":"m 653 0 l 653 165 b 283 492 438 201 283 315 b 743 814 283 697 460 814 l 757 814 b 1217 492 1040 814 1217 697 b 847 165 1217 315 1063 201 l 847 0 l 1389 0 l 1389 165 l 1190 165 b 1413 514 1317 242 1413 344 b 750 986 1413 792 1128 986 b 88 514 372 986 88 792 b 310 165 88 344 183 242 l 111 165 l 111 0 z "},"∆":{"ha":1368,"x_min":0,"x_max":0,"o":"m 578 972 l 57 125 l 57 0 l 1311 0 l 1311 125 l 790 972 z m 1089 165 l 279 165 l 685 808 z "},"∏":{"ha":1453,"x_min":0,"x_max":0,"o":"m 481 0 l 481 807 l 972 807 l 972 0 l 1161 0 l 1161 807 l 1399 807 l 1399 972 l 54 972 l 54 807 l 292 807 l 292 0 z "},"∑":{"ha":1107,"x_min":0,"x_max":0,"o":"m 79 972 l 79 840 l 461 486 l 79 139 l 79 0 l 1017 0 l 1017 165 l 358 165 l 713 486 l 363 807 l 1017 807 l 1017 972 z "},"√":{"ha":1326,"x_min":0,"x_max":0,"o":"m 703 972 l 464 167 l 219 694 l 31 694 l 350 0 l 593 0 l 843 807 l 1299 807 l 1299 972 z "},"∂":{"ha":1115,"x_min":0,"x_max":0,"o":"m 424 986 b 165 963 310 986 219 974 l 165 800 b 413 824 224 811 321 824 b 842 575 628 824 818 757 b 519 674 771 639 661 674 b 58 335 251 674 58 533 b 550 -14 58 125 240 -14 b 1043 425 839 -14 1043 131 b 424 986 1043 731 857 986 z m 549 154 b 249 335 372 154 249 213 b 542 513 249 453 367 513 l 556 513 b 856 333 726 513 856 447 b 556 154 856 207 715 154 z "},"µ":{"ha":1110,"x_min":0,"x_max":0,"o":"m 318 -278 l 318 14 b 494 -14 368 -4 426 -14 b 792 103 633 -14 726 24 l 792 0 l 978 0 l 978 694 l 792 694 l 792 364 b 540 135 792 222 717 135 l 529 135 b 318 326 419 135 318 189 l 318 694 l 132 694 l 132 -278 z "},"%":{"ha":1553,"x_min":0,"x_max":0,"o":"m 371 417 b 685 697 592 417 685 556 b 371 979 685 839 592 979 b 57 697 150 979 57 839 b 371 417 57 556 150 417 z m 522 0 l 1217 972 l 1035 972 l 340 0 z m 368 547 b 213 697 264 547 213 600 b 368 849 213 794 264 849 l 374 849 b 529 697 478 849 529 794 b 374 547 529 600 478 547 z m 1182 -7 b 1496 274 1403 -7 1496 132 b 1182 556 1496 415 1403 556 b 868 274 961 556 868 415 b 1182 -7 868 132 961 -7 z m 1179 124 b 1024 274 1075 124 1024 176 b 1179 425 1024 371 1075 425 l 1185 425 b 1340 274 1289 425 1340 371 b 1185 124 1340 176 1289 124 z "},"‰":{"ha":2025,"x_min":0,"x_max":0,"o":"m 685 697 b 371 979 685 839 592 979 b 57 697 150 979 57 839 b 371 417 57 556 150 417 b 685 697 592 417 685 556 z m 340 0 l 522 0 l 1217 972 l 1035 972 z m 213 697 b 368 849 213 794 264 849 l 374 849 b 529 697 478 849 529 794 b 374 547 529 600 478 547 l 368 547 b 213 697 264 547 213 600 z m 1654 556 b 1418 471 1546 556 1469 522 b 1182 556 1367 522 1290 556 b 868 274 961 556 868 415 b 1182 -7 868 132 961 -7 b 1418 76 1290 -7 1367 26 b 1654 -7 1469 26 1546 -7 b 1968 274 1875 -7 1968 132 b 1654 556 1968 415 1875 556 z m 1179 124 b 1024 274 1075 124 1024 176 b 1179 425 1024 371 1075 425 l 1185 425 b 1340 274 1289 425 1340 371 b 1185 124 1340 176 1289 124 z m 1651 124 b 1496 274 1547 124 1496 176 b 1651 425 1496 371 1547 425 l 1657 425 b 1813 274 1761 425 1813 371 b 1657 124 1813 176 1761 124 z "},"↑":{"ha":1097,"x_min":0,"x_max":0,"o":"m 640 0 l 640 696 l 857 474 l 979 594 l 550 1026 l 118 594 l 240 474 l 457 696 l 457 0 z "},"↗":{"ha":933,"x_min":0,"x_max":0,"o":"m 199 182 l 690 674 l 686 364 l 858 363 l 860 972 l 250 972 l 250 800 l 561 804 l 69 311 z "},"→":{"ha":1558,"x_min":0,"x_max":0,"o":"m 978 797 l 1200 581 l 63 581 l 63 397 l 1200 397 l 978 181 l 1099 58 l 1531 488 l 1099 919 z "},"↘":{"ha":933,"x_min":0,"x_max":0,"o":"m 69 661 l 561 169 l 251 174 l 250 1 l 860 0 l 860 610 l 688 610 l 692 299 l 199 790 z "},"↓":{"ha":1097,"x_min":0,"x_max":0,"o":"m 457 972 l 457 276 l 240 499 l 118 378 l 547 -54 l 979 378 l 857 499 l 640 276 l 640 972 z "},"↙":{"ha":935,"x_min":0,"x_max":0,"o":"m 736 790 l 244 299 l 249 608 l 76 610 l 75 0 l 685 0 l 685 172 l 374 168 l 865 661 z "},"←":{"ha":1558,"x_min":0,"x_max":0,"o":"m 581 179 l 358 396 l 1496 396 l 1496 579 l 358 579 l 581 796 l 460 918 l 28 489 l 460 57 z "},"↖":{"ha":933,"x_min":0,"x_max":0,"o":"m 864 311 l 372 803 l 682 799 l 683 971 l 74 972 l 74 363 l 246 363 l 242 674 l 735 182 z "},"↤":{"ha":1614,"x_min":0,"x_max":0,"o":"m 576 179 l 354 396 l 1308 396 l 1308 139 l 1492 139 l 1492 836 l 1308 836 l 1308 579 l 354 579 l 576 796 l 456 918 l 24 489 l 456 57 z "},"↥":{"ha":1188,"x_min":0,"x_max":0,"o":"m 942 0 l 942 185 l 685 185 l 685 696 l 901 474 l 1024 594 l 594 1026 l 163 594 l 285 474 l 501 696 l 501 185 l 244 185 l 244 0 z "},"↦":{"ha":1558,"x_min":0,"x_max":0,"o":"m 982 799 l 1204 582 l 250 582 l 250 839 l 67 839 l 67 142 l 250 142 l 250 399 l 1204 399 l 982 182 l 1103 60 l 1535 489 l 1103 921 z "},"↧":{"ha":1188,"x_min":0,"x_max":0,"o":"m 246 972 l 246 788 l 503 788 l 503 276 l 286 499 l 164 378 l 593 -54 l 1025 378 l 903 499 l 686 276 l 686 788 l 943 788 l 943 972 z "},"↰":{"ha":1628,"x_min":0,"x_max":0,"o":"m 1496 0 l 1496 579 l 358 579 l 581 796 l 460 918 l 28 489 l 460 57 l 581 179 l 358 396 l 1313 396 l 1313 0 z "},"↱":{"ha":1628,"x_min":0,"x_max":0,"o":"m 315 0 l 315 396 l 1269 396 l 1047 179 l 1168 57 l 1600 489 l 1168 918 l 1047 796 l 1269 579 l 132 579 l 132 0 z "},"↲":{"ha":1628,"x_min":0,"x_max":0,"o":"m 1313 972 l 1313 576 l 358 576 l 581 793 l 460 915 l 28 483 l 460 54 l 581 176 l 358 393 l 1496 393 l 1496 972 z "},"↳":{"ha":1628,"x_min":0,"x_max":0,"o":"m 132 972 l 132 393 l 1269 393 l 1047 176 l 1168 54 l 1600 483 l 1168 915 l 1047 793 l 1269 576 l 315 576 l 315 972 z "},"◊":{"ha":1207,"x_min":0,"x_max":0,"o":"m 699 0 l 1158 486 l 699 972 l 515 972 l 49 486 l 515 0 z m 296 488 l 603 806 l 913 481 l 607 168 z "},"▲":{"ha":1167,"x_min":0,"x_max":0,"o":"m 1146 0 l 583 1000 l 21 0 z "},"":{"ha":1685,"x_min":0,"x_max":0,"o":"m 1671 981 b 1638 979 1660 981 1649 981 b 1639 936 1638 965 1639 950 b 1606 821 1639 883 1632 833 b 1607 847 1607 829 1607 839 b 1513 963 1607 914 1569 963 b 1474 956 1501 963 1488 961 b 1414 879 1436 942 1414 911 b 1436 825 1414 861 1421 842 b 1517 753 1451 782 1481 786 b 1426 700 1511 729 1461 703 b 1435 746 1432 715 1435 731 b 1250 865 1435 813 1375 867 b 1226 788 1233 847 1226 818 b 1254 681 1226 751 1236 713 b 343 543 596 644 454 553 b 357 669 339 586 360 644 b 342 690 357 676 349 686 b 290 672 342 690 294 683 b 276 574 279 657 281 607 b 150 621 222 601 158 628 b 138 594 143 604 139 596 b 268 503 151 550 243 524 b 122 367 226 444 163 421 b 56 317 96 350 79 344 b 69 297 63 306 69 297 b 339 238 142 242 286 247 b 253 -10 290 153 253 42 b 283 -35 253 -31 268 -35 l 294 -35 b 382 163 311 -36 349 64 b 440 61 399 151 410 101 b 535 -54 471 21 504 -37 b 558 -62 543 -60 551 -62 b 586 -47 574 -62 583 -51 b 439 240 551 69 436 126 b 1297 304 572 272 1267 306 b 1351 19 1304 275 1310 89 b 1369 7 1353 11 1360 7 b 1410 24 1381 7 1396 13 b 1374 244 1404 83 1374 160 b 1375 265 1374 251 1374 258 b 1551 93 1443 199 1483 133 b 1578 118 1567 96 1578 103 b 1575 133 1578 122 1578 128 b 1492 242 1565 158 1533 204 b 1379 361 1442 288 1403 335 b 1318 631 1363 494 1318 628 b 1356 629 1329 629 1342 629 b 1594 764 1440 629 1560 653 b 1701 908 1674 757 1704 839 b 1749 903 1710 906 1729 903 b 1790 913 1767 903 1782 906 b 1796 951 1794 917 1794 940 b 1671 981 1776 968 1724 981 z m 1542 817 b 1486 879 1517 819 1486 847 b 1494 907 1486 888 1489 897 b 1546 840 1529 897 1546 868 b 1542 817 1546 832 1544 824 z m 1361 707 b 1326 701 1353 706 1339 701 b 1313 706 1321 701 1315 703 b 1296 760 1301 715 1296 738 b 1301 793 1296 771 1299 783 b 1381 754 1332 793 1361 774 b 1361 707 1381 714 1361 707 z m 419 308 b 382 472 417 317 401 403 b 1244 604 500 503 596 574 b 1276 481 1272 571 1264 543 b 1303 374 1285 443 1296 418 b 419 308 1125 374 547 319 z m 322 310 b 192 325 286 310 243 317 b 306 438 219 371 261 396 b 346 311 325 394 329 353 b 322 310 339 310 331 310 z "},"@":{"ha":1814,"x_min":0,"x_max":0,"o":"m 1476 -174 l 1476 -18 l 914 -18 b 244 424 517 -18 244 139 b 911 865 244 694 507 865 b 1564 499 1342 865 1564 708 b 1322 260 1564 317 1407 260 l 1299 260 l 1299 694 l 1133 694 l 1133 618 b 853 708 1081 672 971 708 b 486 414 640 708 486 572 b 853 118 486 256 640 118 b 1133 208 971 118 1081 154 l 1133 132 l 1335 132 b 1736 499 1501 132 1736 249 b 911 1014 1736 790 1394 1014 b 72 424 447 1014 72 792 b 901 -174 72 21 424 -174 z m 892 258 b 669 414 757 258 669 318 b 892 568 669 506 757 568 l 903 568 b 1126 414 1049 568 1126 489 b 903 258 1126 336 1049 258 z "},"&":{"ha":1285,"x_min":0,"x_max":0,"o":"m 1014 0 l 1014 419 l 1253 419 l 1253 568 l 1014 568 l 1014 735 l 828 735 l 828 568 l 426 568 b 271 700 336 568 271 610 b 426 824 271 790 336 824 l 750 824 l 750 972 l 371 972 b 85 722 218 972 85 882 b 263 493 85 604 163 529 b 78 257 153 458 78 375 b 374 0 78 97 221 0 z m 426 149 b 264 286 336 149 264 189 b 426 419 264 383 336 419 l 828 419 l 828 149 z "},"¶":{"ha":1303,"x_min":0,"x_max":0,"o":"m 664 -278 l 664 824 l 885 824 l 885 -278 l 1074 -278 l 1074 824 l 1233 824 l 1233 972 l 347 972 b 51 676 174 972 51 839 b 342 381 51 515 171 381 l 475 381 l 475 -278 z "},"§":{"ha":1001,"x_min":0,"x_max":0,"o":"m 626 -83 b 890 131 822 -83 890 28 b 818 274 890 179 868 232 b 936 457 893 314 936 379 b 725 640 936 536 876 613 l 375 703 b 301 765 319 713 301 736 b 385 824 301 801 328 824 l 853 824 l 853 972 l 381 972 b 117 768 193 972 117 871 b 189 617 117 717 135 660 b 71 444 114 578 71 524 b 296 247 71 365 111 282 l 632 186 b 706 124 688 176 706 153 b 622 65 706 88 679 65 l 126 65 l 126 -83 z m 340 396 b 258 471 294 404 258 428 b 332 554 258 504 275 535 l 667 493 b 749 418 713 485 749 461 b 675 335 749 385 732 354 z "},"©":{"ha":1725,"x_min":0,"x_max":0,"o":"m 863 -56 b 1651 486 1313 -56 1651 161 b 863 1028 1651 811 1313 1028 b 74 486 413 1028 74 811 b 863 -56 74 161 413 -56 z m 863 49 b 185 486 475 49 185 225 b 863 924 185 747 475 924 b 1540 486 1250 924 1540 747 b 863 49 1540 225 1250 49 z m 868 213 b 1210 424 1094 213 1193 310 l 1054 424 b 871 340 1038 369 972 340 l 865 340 b 669 494 760 340 669 383 b 865 649 669 606 760 649 l 871 649 b 1053 569 972 649 1036 621 l 1210 569 b 868 776 1193 682 1094 776 b 518 494 619 776 518 636 b 868 213 518 353 619 213 z "},"®":{"ha":1725,"x_min":0,"x_max":0,"o":"m 863 -56 b 1651 486 1313 -56 1651 161 b 863 1028 1651 811 1313 1028 b 74 486 413 1028 74 811 b 863 -56 74 161 413 -56 z m 863 49 b 185 486 475 49 185 225 b 863 924 185 747 475 924 b 1540 486 1250 924 1540 747 b 863 49 1540 225 1250 49 z m 729 226 l 729 413 l 958 413 b 1015 364 1004 413 1015 400 l 1015 226 l 1160 226 l 1160 392 b 1054 475 1160 453 1124 475 b 1167 608 1117 489 1167 531 b 972 763 1167 697 1096 763 l 585 763 l 585 226 z m 729 639 l 946 639 b 1022 586 993 639 1022 621 b 949 532 1022 551 996 532 l 729 532 z "},"℗":{"ha":1725,"x_min":0,"x_max":0,"o":"m 863 -56 b 1651 486 1313 -56 1651 161 b 863 1028 1651 811 1313 1028 b 74 486 413 1028 74 811 b 863 -56 74 161 413 -56 z m 863 49 b 185 486 475 49 185 225 b 863 924 185 747 475 924 b 1540 486 1250 924 1540 747 b 863 49 1540 225 1250 49 z m 771 229 l 771 404 l 1006 404 b 1204 579 1124 404 1204 478 b 1006 758 1204 681 1124 758 l 625 758 l 625 229 z m 771 635 l 994 635 b 1058 579 1025 635 1058 614 b 997 524 1058 544 1028 524 l 771 524 z "},"™":{"ha":1790,"x_min":0,"x_max":0,"o":"m 328 831 l 328 444 l 493 444 l 493 831 l 761 831 l 761 972 l 60 972 l 60 831 z m 1260 658 l 1061 972 l 847 972 l 847 444 l 1010 444 l 1010 779 l 1215 444 l 1304 444 l 1504 772 l 1504 444 l 1667 444 l 1667 972 l 1453 972 z "},"℅":{"ha":1307,"x_min":0,"x_max":0,"o":"m 310 569 b 556 722 478 569 539 646 l 415 722 b 306 681 401 696 371 681 l 300 681 b 181 774 210 681 181 725 b 300 868 181 822 210 868 l 306 868 b 415 822 372 868 401 849 l 556 822 b 310 979 542 900 479 979 b 39 774 156 979 39 911 b 310 569 39 636 156 569 z m 368 0 l 1071 972 l 922 972 l 219 0 z m 997 -7 b 1271 197 1167 -7 1271 82 b 997 403 1271 313 1167 403 b 718 197 822 403 718 313 b 997 -7 718 82 822 -7 z m 994 104 b 860 197 910 104 860 138 b 994 292 860 257 910 292 l 1000 292 b 1129 197 1078 292 1129 257 b 1000 104 1129 138 1078 104 z "},"°":{"ha":686,"x_min":0,"x_max":0,"o":"m 343 472 b 617 729 497 472 617 583 b 343 986 617 875 497 986 b 69 729 189 986 69 875 b 343 472 69 583 189 472 z m 343 622 b 233 729 279 622 233 668 b 343 829 233 786 279 829 b 453 729 407 829 453 786 b 343 622 453 668 407 622 z "},"|":{"ha":444,"x_min":0,"x_max":0,"o":"m 317 -118 l 317 1090 l 128 1090 l 128 -118 z "},"¦":{"ha":454,"x_min":0,"x_max":0,"o":"m 322 576 l 322 1090 l 132 1090 l 132 576 z m 322 -118 l 322 410 l 132 410 l 132 -118 z "},"†":{"ha":1028,"x_min":0,"x_max":0,"o":"m 604 -118 l 604 631 l 944 631 l 944 786 l 604 786 l 604 1090 l 418 1090 l 418 786 l 83 786 l 83 631 l 418 631 l 418 -118 z "},"ℓ":{"ha":846,"x_min":0,"x_max":0,"o":"m 408 343 l 569 408 b 804 722 728 472 804 596 b 511 986 804 858 714 986 b 219 721 329 986 219 892 l 219 439 l 63 375 l 63 203 l 219 267 l 219 146 b 368 0 219 49 271 0 l 725 0 l 725 163 l 463 163 b 408 218 421 163 408 176 z m 408 731 b 504 824 408 788 443 824 b 614 718 574 824 614 789 b 442 529 614 647 586 588 l 408 515 z "},"‡":{"ha":1028,"x_min":0,"x_max":0,"o":"m 608 -118 l 608 186 l 946 186 l 946 342 l 608 342 l 608 631 l 946 631 l 946 786 l 608 786 l 608 1090 l 419 1090 l 419 786 l 82 786 l 82 631 l 419 631 l 419 342 l 82 342 l 82 186 l 419 186 l 419 -118 z "},"№":{"ha":1972,"x_min":0,"x_max":0,"o":"m 1622 569 b 1896 774 1792 569 1896 658 b 1622 979 1896 889 1792 979 b 1343 774 1447 979 1343 889 b 1622 569 1343 658 1447 569 z m 392 972 l 144 972 l 144 0 l 342 0 l 342 742 l 979 0 l 1226 0 l 1226 972 l 1029 972 l 1029 231 z m 1625 868 b 1754 774 1703 868 1754 833 b 1625 681 1754 714 1703 681 l 1619 681 b 1485 774 1535 681 1485 714 b 1619 868 1485 833 1535 868 z m 1886 375 l 1886 486 l 1353 486 l 1353 375 z "},"":{"ha":750,"x_min":0,"x_max":0,"o":"m 653 208 l 653 764 l 97 764 l 97 208 z m 201 660 l 549 660 l 549 313 l 201 313 z "},"":{"ha":958,"x_min":0,"x_max":0,"o":"m 861 104 l 861 868 l 97 868 l 97 104 z m 201 764 l 757 764 l 757 208 l 201 208 z "},"":{"ha":1222,"x_min":0,"x_max":0,"o":"m 1097 0 l 1097 972 l 125 972 l 125 0 z m 229 868 l 993 868 l 993 104 l 229 104 z "},"":{"ha":750,"x_min":0,"x_max":0,"o":"m 653 208 l 653 764 l 97 764 l 97 208 z m 201 660 l 549 660 l 549 313 l 201 313 z m 444 417 l 444 556 l 306 556 l 306 417 z "},"":{"ha":958,"x_min":0,"x_max":0,"o":"m 861 104 l 861 868 l 97 868 l 97 104 z m 201 764 l 757 764 l 757 208 l 201 208 z m 653 313 l 653 660 l 306 660 l 306 313 z m 410 556 l 549 556 l 549 417 l 410 417 z "},"":{"ha":1222,"x_min":0,"x_max":0,"o":"m 1097 0 l 1097 972 l 125 972 l 125 0 z m 229 868 l 993 868 l 993 104 l 229 104 z m 889 208 l 889 764 l 333 764 l 333 208 z m 438 660 l 785 660 l 785 313 l 438 313 z m 681 417 l 681 556 l 542 556 l 542 417 z "},"":{"ha":750,"x_min":0,"x_max":0,"o":"m 653 208 l 653 764 l 97 764 l 97 208 z "},"":{"ha":958,"x_min":0,"x_max":0,"o":"m 861 104 l 861 868 l 97 868 l 97 104 z "},"":{"ha":1222,"x_min":0,"x_max":0,"o":"m 1097 0 l 1097 972 l 125 972 l 125 0 z "},"":{"ha":806,"x_min":0,"x_max":0,"o":"m 403 153 b 736 486 586 153 736 303 b 403 819 736 669 586 819 b 69 486 219 819 69 669 b 403 153 69 303 219 153 z m 403 257 b 174 486 276 257 174 360 b 403 715 174 613 276 715 b 632 486 529 715 632 613 b 403 257 632 360 529 257 z "},"":{"ha":1014,"x_min":0,"x_max":0,"o":"m 507 49 b 944 486 747 49 944 246 b 507 924 944 726 747 924 b 69 486 267 924 69 726 b 507 49 69 246 267 49 z m 507 153 b 174 486 324 153 174 303 b 507 819 174 669 324 819 b 840 486 690 819 840 669 b 507 153 840 303 690 153 z "},"":{"ha":1222,"x_min":0,"x_max":0,"o":"m 611 -56 b 1153 486 910 -56 1153 189 b 611 1028 1153 785 910 1028 b 69 486 314 1028 69 785 b 611 -56 69 189 314 -56 z m 611 49 b 174 486 371 49 174 246 b 611 924 174 726 371 924 b 1049 486 851 924 1049 726 b 611 49 1049 246 851 49 z "},"":{"ha":806,"x_min":0,"x_max":0,"o":"m 403 153 b 736 486 586 153 736 303 b 403 819 736 669 586 819 b 69 486 219 819 69 669 b 403 153 69 303 219 153 z m 403 257 b 174 486 276 257 174 360 b 403 715 174 613 276 715 b 632 486 529 715 632 613 b 403 257 632 360 529 257 z m 403 361 b 528 486 472 361 528 418 b 403 611 528 556 472 611 b 278 486 335 611 278 556 b 403 361 278 418 335 361 z "},"":{"ha":1014,"x_min":0,"x_max":0,"o":"m 507 49 b 944 486 747 49 944 246 b 507 924 944 726 747 924 b 69 486 267 924 69 726 b 507 49 69 246 267 49 z m 507 153 b 174 486 324 153 174 303 b 507 819 174 669 324 819 b 840 486 690 819 840 669 b 507 153 840 303 690 153 z m 507 257 b 736 486 633 257 736 360 b 507 715 736 613 633 715 b 278 486 381 715 278 613 b 507 257 278 360 381 257 z m 507 361 b 382 486 439 361 382 418 b 507 611 382 556 439 611 b 632 486 576 611 632 556 b 507 361 632 418 576 361 z "},"":{"ha":1222,"x_min":0,"x_max":0,"o":"m 611 -56 b 1153 486 910 -56 1153 189 b 611 1028 1153 785 910 1028 b 69 486 314 1028 69 785 b 611 -56 69 189 314 -56 z m 611 49 b 174 486 371 49 174 246 b 611 924 174 726 371 924 b 1049 486 851 924 1049 726 b 611 49 1049 246 851 49 z m 611 153 b 944 486 794 153 944 303 b 611 819 944 669 794 819 b 278 486 428 819 278 669 b 611 153 278 303 428 153 z m 611 257 b 382 486 485 257 382 360 b 611 715 382 613 485 715 b 840 486 738 715 840 613 b 611 257 840 360 738 257 z m 611 361 b 736 486 681 361 736 418 b 611 611 736 556 681 611 b 486 486 543 611 486 556 b 611 361 486 418 543 361 z "},"":{"ha":889,"x_min":0,"x_max":0,"o":"m 444 153 b 778 486 628 153 778 303 b 444 819 778 669 628 819 b 111 486 261 819 111 669 b 444 153 111 303 261 153 z "},"":{"ha":972,"x_min":0,"x_max":0,"o":"m 486 69 b 903 486 715 69 903 257 b 486 903 903 715 715 903 b 69 486 257 903 69 715 b 486 69 69 257 257 69 z "},"":{"ha":1139,"x_min":0,"x_max":0,"o":"m 569 -14 b 1069 486 844 -14 1069 211 b 569 986 1069 761 844 986 b 69 486 294 986 69 761 b 569 -14 69 211 294 -14 z "},"ʼ":{"ha":471,"x_min":0,"x_max":0,"o":"m 190 597 b 383 785 315 597 383 688 l 383 1010 l 158 1010 l 158 806 l 264 806 l 264 792 b 183 707 264 743 246 707 l 88 707 l 88 597 z "},"´":{"ha":397,"x_min":0,"x_max":0,"o":"m 175 767 l 369 975 l 153 975 l 35 767 z "},"˘":{"ha":664,"x_min":0,"x_max":0,"o":"m 332 767 b 622 983 500 767 619 849 l 467 983 b 332 901 461 929 418 901 b 197 983 246 901 203 929 l 42 983 b 332 767 44 849 164 767 z "},"ˇ":{"ha":736,"x_min":0,"x_max":0,"o":"m 457 765 l 701 974 l 543 974 l 369 876 l 193 974 l 35 974 l 278 765 z "},"¸":{"ha":419,"x_min":0,"x_max":0,"o":"m 211 -342 b 385 -194 308 -342 385 -285 b 221 -62 385 -104 318 -62 l 221 21 l 115 21 l 115 -154 l 222 -154 b 275 -194 257 -154 275 -174 b 215 -235 275 -222 250 -235 l 42 -235 l 42 -342 z "},"ˆ":{"ha":736,"x_min":0,"x_max":0,"o":"m 193 767 l 369 868 l 543 767 l 701 767 l 457 975 l 278 975 l 35 767 z "},"¨":{"ha":642,"x_min":0,"x_max":0,"o":"m 250 782 l 250 967 l 61 967 l 61 782 z m 581 782 l 581 967 l 392 967 l 392 782 z "},"˙":{"ha":285,"x_min":0,"x_max":0,"o":"m 244 776 l 244 972 l 40 972 l 40 776 z "},"`":{"ha":397,"x_min":0,"x_max":0,"o":"m 364 767 l 246 975 l 29 975 l 224 767 z "},"˝":{"ha":615,"x_min":0,"x_max":0,"o":"m 161 767 l 356 975 l 139 975 l 21 767 z m 424 767 l 618 975 l 401 975 l 283 767 z "},"¯":{"ha":674,"x_min":0,"x_max":0,"o":"m 632 785 l 632 931 l 42 931 l 42 785 z "},"˛":{"ha":386,"x_min":0,"x_max":0,"o":"m 344 -306 l 344 -192 l 254 -192 b 167 -125 213 -192 167 -174 b 296 0 167 -69 244 -26 l 200 21 b 36 -167 132 -7 36 -65 b 221 -306 36 -247 121 -306 z "},"˚":{"ha":461,"x_min":0,"x_max":0,"o":"m 231 767 b 424 924 346 767 424 835 b 231 1081 424 1004 346 1081 b 38 924 115 1081 38 1004 b 231 767 38 835 115 767 z m 232 864 b 146 924 186 864 146 892 b 232 983 146 956 186 983 b 317 924 281 983 317 956 b 232 864 317 892 281 864 z "},"˜":{"ha":736,"x_min":0,"x_max":0,"o":"m 517 767 b 674 928 624 767 674 842 l 674 967 l 540 967 b 496 906 540 935 528 906 b 421 924 474 906 446 915 l 300 961 b 194 981 267 971 253 981 b 35 819 107 981 35 906 l 35 781 l 168 781 b 214 842 168 813 183 842 b 275 829 238 842 246 839 l 399 790 b 517 767 451 774 482 767 z "}}}
